<?xml version="1.0" encoding="utf-8"?>
<!-- Generator: Adobe Illustrator 27.7.0, SVG Export Plug-In . SVG Version: 6.00 Build 0)  -->
<svg version="1.1" id="Layer_1" xmlns="http://www.w3.org/2000/svg" xmlns:xlink="http://www.w3.org/1999/xlink" x="0px" y="0px"
	 viewBox="0 0 551.4 343.5" style="enable-background:new 0 0 551.4 343.5;" xml:space="preserve">
<style type="text/css">
	.st0{fill:url(#SVGID_1_);}
	.st1{fill:url(#SVGID_00000111186412646857049570000012145770689268908192_);}
	.st2{fill:#FFFFFF;}
	.st3{fill:url(#SVGID_00000182502377379748472200000001165696622720048016_);}
	.st4{fill:url(#SVGID_00000018201091229872904720000006552720321618661003_);}
	.st5{fill:url(#SVGID_00000140725381574652150890000011806519290310575277_);}
	.st6{fill:url(#SVGID_00000129175035157078940810000014626596767847502478_);}
	.st7{fill-rule:evenodd;clip-rule:evenodd;fill:#FFFFFF;}
</style>
<linearGradient id="SVGID_1_" gradientUnits="userSpaceOnUse" x1="158.4719" y1="166.1537" x2="407.7219" y2="415.4037" gradientTransform="matrix(1 0 0 -1 0 343.2756)">
	<stop  offset="0.2" style="stop-color:#00539E"/>
	<stop  offset="0.8" style="stop-color:#0080C6"/>
</linearGradient>
<path class="st0" d="M495.3,87.2H70.8c-3,0-5.4-2.4-5.4-5.4V23.2c0-3,2.4-5.4,5.4-5.4h424.6c3,0,5.4,2.4,5.4,5.4v58.6
	C500.8,84.8,498.4,87.2,495.3,87.2z"/>
<g>
	
		<linearGradient id="SVGID_00000089573996714313882200000004053165501437600447_" gradientUnits="userSpaceOnUse" x1="16.4376" y1="254.7131" x2="88.4596" y2="326.7351" gradientTransform="matrix(1 0 0 -1 0 343.2756)">
		<stop  offset="0.2" style="stop-color:#00539E"/>
		<stop  offset="0.8" style="stop-color:#0080C6"/>
	</linearGradient>
	<circle style="fill:url(#SVGID_00000089573996714313882200000004053165501437600447_);" cx="52.5" cy="52.5" r="51"/>
	<path class="st2" d="M52.5,3C79.8,3,102,25.2,102,52.5S79.8,102,52.5,102C25.2,101.9,3,79.7,3,52.5C3,25.2,25.2,3,52.5,3 M52.5,0
		C23.5,0,0,23.5,0,52.5S23.5,105,52.5,105S105,81.5,105,52.5C104.9,23.5,81.4,0,52.5,0L52.5,0z"/>
</g>
<linearGradient id="SVGID_00000050646593858066164850000000971353334646070684_" gradientUnits="userSpaceOnUse" x1="158.4594" y1="46.8662" x2="407.7095" y2="296.1161" gradientTransform="matrix(1 0 0 -1 0 343.2756)">
	<stop  offset="0.2" style="stop-color:#009BA9"/>
	<stop  offset="0.8" style="stop-color:#2EB8C3"/>
</linearGradient>
<path style="fill:url(#SVGID_00000050646593858066164850000000971353334646070684_);" d="M495.3,206.5H70.8c-3,0-5.4-2.4-5.4-5.4
	v-58.6c0-3,2.4-5.4,5.4-5.4h424.6c3,0,5.4,2.4,5.4,5.4V201C500.8,204,498.4,206.5,495.3,206.5z"/>
<g>
	
		<linearGradient id="SVGID_00000177481110365078133340000010405135119581509811_" gradientUnits="userSpaceOnUse" x1="16.4438" y1="135.5568" x2="88.5187" y2="207.6318" gradientTransform="matrix(1 0 0 -1 0 343.2756)">
		<stop  offset="0.2" style="stop-color:#009BA9"/>
		<stop  offset="0.8" style="stop-color:#2EB8C3"/>
	</linearGradient>
	<path style="fill:url(#SVGID_00000177481110365078133340000010405135119581509811_);" d="M52.5,222.7c-28.1,0-51-22.9-51-51
		s22.9-51,51-51s51,22.9,51,51C103.4,199.8,80.5,222.7,52.5,222.7z"/>
	<path class="st2" d="M52.5,122.3c27.3,0,49.5,22.2,49.5,49.5s-22.2,49.5-49.5,49.5C25.2,221.2,3,199,3,171.7S25.2,122.3,52.5,122.3
		 M52.5,119.3c-29,0-52.5,23.5-52.5,52.5s23.5,52.5,52.5,52.5s52.5-23.5,52.5-52.5C104.9,142.8,81.4,119.3,52.5,119.3L52.5,119.3z"
		/>
</g>
<linearGradient id="SVGID_00000017486277530070532310000013725764905762034346_" gradientUnits="userSpaceOnUse" x1="158.4625" y1="-72.4369" x2="407.7125" y2="176.8131" gradientTransform="matrix(1 0 0 -1 0 343.2756)">
	<stop  offset="0.2" style="stop-color:#AB1254"/>
	<stop  offset="0.8" style="stop-color:#CD4366"/>
</linearGradient>
<path style="fill:url(#SVGID_00000017486277530070532310000013725764905762034346_);" d="M495.3,325.8H70.8c-3,0-5.4-2.4-5.4-5.4
	v-58.6c0-3,2.4-5.4,5.4-5.4h424.6c3,0,5.4,2.4,5.4,5.4v58.6C500.8,323.3,498.4,325.8,495.3,325.8z"/>
<g>
	
		<linearGradient id="SVGID_00000141436523150633360450000011044879488211432631_" gradientUnits="userSpaceOnUse" x1="16.4375" y1="16.2131" x2="88.4596" y2="88.2351" gradientTransform="matrix(1 0 0 -1 0 343.2756)">
		<stop  offset="0.2" style="stop-color:#AB1254"/>
		<stop  offset="0.8" style="stop-color:#CD4366"/>
	</linearGradient>
	<circle style="fill:url(#SVGID_00000141436523150633360450000011044879488211432631_);" cx="52.5" cy="291" r="51"/>
	<path class="st2" d="M52.5,241.6c27.3,0,49.5,22.2,49.5,49.5s-22.2,49.5-49.5,49.5C25.2,340.5,3,318.3,3,291S25.2,241.6,52.5,241.6
		 M52.5,238.6C23.5,238.6,0,262,0,291s23.5,52.5,52.5,52.5S105,320,105,291C104.9,262,81.4,238.6,52.5,238.6L52.5,238.6z"/>
</g>
<g>
	<path class="st2" d="M168.2,52.8c0,2.4-0.6,4.2-1.9,5.4s-3.1,1.9-5.5,1.9h-4V45.8h4.4c2.2,0,3.9,0.6,5.2,1.8S168.2,50.6,168.2,52.8
		z M166.5,52.8c0-1.9-0.5-3.3-1.4-4.2s-2.3-1.4-4.2-1.4h-2.4v11.4h2c2,0,3.5-0.5,4.5-1.5S166.5,54.7,166.5,52.8z"/>
	<path class="st2" d="M179.4,60.1h-8V45.8h8v1.5h-6.3v4.6h5.9v1.5h-5.9v5.3h6.3V60.1z"/>
	<path class="st2" d="M190.5,60.1h-8V45.8h8v1.5h-6.3v4.6h5.9v1.5h-5.9v5.3h6.3V60.1z"/>
	<path class="st2" d="M202.7,49.9c0,1.4-0.5,2.6-1.5,3.3s-2.4,1.2-4.2,1.2h-1.7V60h-1.7V45.8h3.7C200.9,45.8,202.7,47.2,202.7,49.9z
		 M195.3,53h1.5c1.5,0,2.5-0.2,3.2-0.7s1-1.2,1-2.3c0-0.9-0.3-1.6-0.9-2.1c-0.6-0.5-1.6-0.7-2.9-0.7h-1.9L195.3,53L195.3,53z"/>
	<path class="st2" d="M219.9,60.1l-1.8-4.5h-5.7l-1.8,4.5h-1.7l5.6-14.3h1.4l5.6,14.3H219.9z M217.6,54l-1.7-4.4
		c-0.2-0.6-0.4-1.2-0.7-2.1c-0.1,0.6-0.3,1.3-0.6,2.1L213,54H217.6z"/>
	<path class="st2" d="M234.7,60.1h-1.9l-7.8-12h-0.1c0.1,1.4,0.2,2.7,0.2,3.9v8.1h-1.5V45.8h1.9l7.8,11.9h0.1c0-0.2,0-0.7-0.1-1.7
		c0-1-0.1-1.6,0-2v-8.2h1.6v14.3H234.7z"/>
	<path class="st2" d="M250,52.8c0,2.4-0.6,4.2-1.9,5.4s-3.1,1.9-5.5,1.9h-4V45.8h4.4c2.2,0,3.9,0.6,5.2,1.8S250,50.6,250,52.8z
		 M248.3,52.8c0-1.9-0.5-3.3-1.4-4.2s-2.3-1.4-4.2-1.4h-2.4v11.4h2c2,0,3.5-0.5,4.5-1.5S248.3,54.7,248.3,52.8z"/>
	<path class="st2" d="M267.5,49.9c0,1.4-0.5,2.6-1.5,3.3s-2.4,1.2-4.2,1.2h-1.7V60h-1.7V45.8h3.7C265.7,45.8,267.5,47.2,267.5,49.9z
		 M260.1,53h1.5c1.5,0,2.5-0.2,3.2-0.7s1-1.2,1-2.3c0-0.9-0.3-1.6-0.9-2.1s-1.6-0.7-2.9-0.7h-1.9L260.1,53L260.1,53z"/>
	<path class="st2" d="M272.1,54.1V60h-1.7V45.8h3.9c1.8,0,3,0.3,3.9,1c0.8,0.7,1.3,1.7,1.3,3c0,1.9-1,3.2-2.9,3.8l3.9,6.4h-2
		l-3.5-5.9H272.1z M272.1,52.7h2.3c1.2,0,2-0.2,2.6-0.7s0.8-1.2,0.8-2.1c0-0.9-0.3-1.6-0.8-2s-1.5-0.6-2.7-0.6h-2.2L272.1,52.7
		L272.1,52.7z"/>
	<path class="st2" d="M295.2,52.9c0,2.3-0.6,4.1-1.7,5.4c-1.2,1.3-2.8,2-4.8,2c-2.1,0-3.7-0.6-4.9-1.9s-1.7-3.1-1.7-5.4
		c0-2.3,0.6-4.1,1.7-5.4c1.1-1.3,2.8-1.9,4.9-1.9s3.7,0.7,4.8,2S295.2,50.6,295.2,52.9z M283.8,52.9c0,1.9,0.4,3.4,1.2,4.4
		c0.8,1,2,1.5,3.6,1.5s2.8-0.5,3.6-1.5c0.8-1,1.2-2.5,1.2-4.4s-0.4-3.4-1.2-4.4c-0.8-1-2-1.5-3.6-1.5s-2.8,0.5-3.6,1.5
		C284.3,49.5,283.8,51,283.8,52.9z"/>
	<path class="st2" d="M306.6,45.8h1.8l-5.1,14.3h-1.6l-5.1-14.3h1.8l3.3,9.2c0.4,1.1,0.7,2.1,0.9,3.1c0.2-1.1,0.5-2.1,0.9-3.2
		L306.6,45.8z"/>
	<path class="st2" d="M318.3,60.1h-8V45.8h8v1.5H312v4.6h5.9v1.5H312v5.3h6.3V60.1z"/>
	<path class="st2" d="M332.6,60.1h-1.9l-7.8-12h-0.1c0.1,1.4,0.2,2.7,0.2,3.9v8.1h-1.5V45.8h1.9l7.8,11.9h0.1c0-0.2,0-0.7-0.1-1.7
		c0-1-0.1-1.6,0-2v-8.2h1.6v14.3H332.6z"/>
	<path class="st2" d="M349.7,60.1h-8V45.8h8v1.5h-6.3v4.6h5.9v1.5h-5.9v5.3h6.3V60.1z"/>
	<path class="st2" d="M362.3,60.1h-1.9l-3.8-6.3l-3.9,6.3h-1.8l4.7-7.5l-4.4-6.8h1.8l3.5,5.7l3.6-5.7h1.8l-4.4,6.8L362.3,60.1z"/>
	<path class="st2" d="M373.4,49.9c0,1.4-0.5,2.6-1.5,3.3s-2.4,1.2-4.2,1.2H366V60h-1.7V45.8h3.7C371.6,45.8,373.4,47.2,373.4,49.9z
		 M366,53h1.5c1.5,0,2.5-0.2,3.2-0.7s1-1.2,1-2.3c0-0.9-0.3-1.6-0.9-2.1s-1.6-0.7-2.9-0.7H366V53z"/>
	<path class="st2" d="M384.4,60.1h-8V45.8h8v1.5h-6.3v4.6h5.9v1.5h-5.9v5.3h6.3V60.1z"/>
	<path class="st2" d="M389.2,54.1V60h-1.7V45.8h3.9c1.8,0,3,0.3,3.9,1c0.8,0.7,1.3,1.7,1.3,3c0,1.9-1,3.2-2.9,3.8l3.9,6.4h-2
		l-3.5-5.9H389.2z M389.2,52.7h2.3c1.2,0,2-0.2,2.6-0.7s0.8-1.2,0.8-2.1c0-0.9-0.3-1.6-0.8-2s-1.5-0.6-2.7-0.6h-2.2L389.2,52.7
		L389.2,52.7z"/>
	<path class="st2" d="M404.3,60.1h-1.7V47.2h-4.5v-1.5h10.7v1.5h-4.5V60.1z"/>
	<path class="st2" d="M411,60.1V45.8h1.7v14.3H411z"/>
	<path class="st2" d="M424.6,56.3c0,1.3-0.5,2.2-1.4,2.9s-2.1,1.1-3.7,1.1c-1.7,0-3-0.2-3.9-0.7V58c0.6,0.2,1.2,0.4,1.9,0.6
		c0.7,0.1,1.4,0.2,2.1,0.2c1.1,0,1.9-0.2,2.5-0.6c0.6-0.4,0.8-1,0.8-1.8c0-0.5-0.1-0.9-0.3-1.2c-0.2-0.3-0.5-0.6-1-0.9
		c-0.5-0.3-1.2-0.6-2.1-0.9c-1.3-0.5-2.3-1-2.8-1.7c-0.6-0.7-0.9-1.5-0.9-2.5c0-1.1,0.4-2,1.2-2.6c0.8-0.7,1.9-1,3.3-1
		s2.7,0.3,3.9,0.8l-0.5,1.4c-1.2-0.5-2.3-0.7-3.4-0.7c-0.9,0-1.6,0.2-2.1,0.6c-0.5,0.4-0.7,0.9-0.7,1.6c0,0.5,0.1,0.9,0.3,1.2
		c0.2,0.3,0.5,0.6,0.9,0.9c0.4,0.3,1.1,0.6,2,0.9c1.5,0.5,2.5,1.1,3.1,1.7C424.3,54.5,424.6,55.3,424.6,56.3z"/>
	<path class="st2" d="M435.5,60.1h-8V45.8h8v1.5h-6.3v4.6h5.9v1.5h-5.9v5.3h6.3V60.1z"/>
</g>
<g>
	<path class="st2" d="M180.3,168.3l-4.8-12.7h-0.1c0.1,1,0.1,2.2,0.1,3.6v9.1H174V154h2.5l4.5,11.8h0.1l4.6-11.8h2.5v14.3h-1.7v-9.2
		c0-1.1,0-2.2,0.1-3.4h-0.1l-4.9,12.6L180.3,168.3L180.3,168.3z"/>
	<path class="st2" d="M201,168.3l-1.8-4.5h-5.7l-1.8,4.5H190l5.6-14.3h1.4l5.6,14.3H201z M198.7,162.3l-1.7-4.4
		c-0.2-0.6-0.4-1.2-0.7-2.1c-0.1,0.6-0.3,1.3-0.6,2.1l-1.7,4.4H198.7z"/>
	<path class="st2" d="M206.4,162.4v5.9h-1.7V154h3.9c1.8,0,3,0.3,3.9,1c0.8,0.7,1.3,1.7,1.3,3c0,1.9-1,3.2-2.9,3.8l3.9,6.4h-2
		l-3.5-5.9h-2.9V162.4z M206.4,161h2.3c1.2,0,2-0.2,2.6-0.7s0.8-1.2,0.8-2.1c0-0.9-0.3-1.6-0.8-2s-1.5-0.6-2.7-0.6h-2.2L206.4,161
		L206.4,161z"/>
	<path class="st2" d="M227.4,168.3h-2l-5.2-6.9l-1.5,1.3v5.6H217V154h1.7v7.1l6.5-7.1h2l-5.7,6.2L227.4,168.3z"/>
	<path class="st2" d="M237.3,168.3h-8V154h8v1.5H231v4.6h5.9v1.5H231v5.3h6.3V168.3z"/>
	<path class="st2" d="M244.9,168.3h-1.7v-12.8h-4.5V154h10.7v1.5h-4.5V168.3z"/>
	<path class="st2" d="M250.4,163.7v-1.5h4.8v1.5H250.4z"/>
	<path class="st2" d="M258,168.3V154h1.7v12.8h6.3v1.5H258z"/>
	<path class="st2" d="M276.3,168.3h-8V154h8v1.5H270v4.6h5.9v1.5H270v5.3h6.3V168.3z"/>
	<path class="st2" d="M288.4,168.3l-1.8-4.5h-5.7l-1.8,4.5h-1.7L283,154h1.4l5.6,14.3H288.4z M286.1,162.3l-1.7-4.4
		c-0.2-0.6-0.4-1.2-0.7-2.1c-0.1,0.6-0.3,1.3-0.6,2.1l-1.7,4.4H286.1z"/>
	<path class="st2" d="M303.5,161.1c0,2.4-0.6,4.2-1.9,5.4s-3.1,1.9-5.5,1.9h-4v-14.3h4.4c2.2,0,3.9,0.6,5.2,1.8
		S303.5,158.8,303.5,161.1z M301.8,161.1c0-1.9-0.5-3.3-1.4-4.2s-2.3-1.4-4.2-1.4h-2.4v11.4h2c2,0,3.5-0.5,4.5-1.5
		S301.8,163,301.8,161.1z"/>
	<path class="st2" d="M306.7,168.3V154h1.7v14.3H306.7z"/>
	<path class="st2" d="M323.4,168.3h-1.9l-7.8-12h-0.1c0.1,1.4,0.2,2.7,0.2,3.9v8.1h-1.5V154h1.9l7.8,11.9h0.1c0-0.2,0-0.7-0.1-1.7
		c0-1-0.1-1.6,0-2V154h1.6v14.3H323.4z"/>
	<path class="st2" d="M333.6,160.9h4.9v6.9c-0.8,0.2-1.5,0.4-2.3,0.5s-1.7,0.2-2.7,0.2c-2.2,0-3.8-0.6-5-1.9
		c-1.2-1.3-1.8-3.1-1.8-5.4c0-1.5,0.3-2.8,0.9-3.9s1.5-2,2.6-2.6s2.4-0.9,3.9-0.9s2.9,0.3,4.3,0.8l-0.6,1.5
		c-1.3-0.5-2.5-0.8-3.7-0.8c-1.7,0-3.1,0.5-4.1,1.6s-1.5,2.5-1.5,4.3c0,1.9,0.5,3.4,1.4,4.4s2.3,1.5,4.1,1.5c1,0,2-0.1,2.9-0.3v-4.4
		h-3.2L333.6,160.9L333.6,160.9z"/>
	<path class="st2" d="M358.5,161.1c0,2.4-0.6,4.2-1.9,5.4s-3.1,1.9-5.5,1.9h-4v-14.3h4.4c2.2,0,3.9,0.6,5.2,1.8
		S358.5,158.8,358.5,161.1z M356.7,161.1c0-1.9-0.5-3.3-1.4-4.2s-2.3-1.4-4.2-1.4h-2.4v11.4h2c2,0,3.5-0.5,4.5-1.5
		S356.7,163,356.7,161.1z"/>
	<path class="st2" d="M361.7,168.3V154h1.7v14.3H361.7z"/>
	<path class="st2" d="M373.5,160.9h4.9v6.9c-0.8,0.2-1.5,0.4-2.3,0.5s-1.7,0.2-2.7,0.2c-2.2,0-3.8-0.6-5-1.9
		c-1.2-1.3-1.8-3.1-1.8-5.4c0-1.5,0.3-2.8,0.9-3.9s1.5-2,2.6-2.6s2.4-0.9,3.9-0.9s2.9,0.3,4.3,0.8l-0.6,1.5
		c-1.3-0.5-2.5-0.8-3.7-0.8c-1.7,0-3.1,0.5-4.1,1.6s-1.5,2.5-1.5,4.3c0,1.9,0.5,3.4,1.4,4.4s2.3,1.5,4.1,1.5c1,0,2-0.1,2.9-0.3v-4.4
		h-3.2L373.5,160.9L373.5,160.9z"/>
	<path class="st2" d="M381.8,168.3V154h1.7v14.3H381.8z"/>
	<path class="st2" d="M391.8,168.3h-1.7v-12.8h-4.5V154h10.7v1.5h-4.5V168.3z"/>
	<path class="st2" d="M407.4,168.3l-1.8-4.5h-5.7l-1.8,4.5h-1.7L402,154h1.4l5.6,14.3H407.4z M405.1,162.3l-1.7-4.4
		c-0.2-0.6-0.4-1.2-0.7-2.1c-0.1,0.6-0.3,1.3-0.6,2.1l-1.7,4.4H405.1z"/>
	<path class="st2" d="M411.1,168.3V154h1.7v12.8h6.3v1.5H411.1z"/>
	<path class="st2" d="M236.2,190.3h-1.7v-12.8H230V176h10.7v1.5h-4.5V190.3z"/>
	<path class="st2" d="M250.8,190.3h-8V176h8v1.5h-6.3v4.6h5.9v1.5h-5.9v5.3h6.3V190.3z"/>
	<path class="st2" d="M260.1,177.3c-1.6,0-2.8,0.5-3.7,1.6s-1.4,2.5-1.4,4.3c0,1.9,0.4,3.3,1.3,4.3s2.1,1.5,3.7,1.5
		c1,0,2.1-0.2,3.4-0.5v1.5c-1,0.4-2.2,0.6-3.7,0.6c-2.1,0-3.7-0.6-4.9-1.9s-1.7-3.1-1.7-5.4c0-1.5,0.3-2.8,0.8-3.9
		c0.6-1.1,1.3-2,2.4-2.6c1-0.6,2.3-0.9,3.7-0.9c1.5,0,2.8,0.3,3.9,0.8l-0.7,1.4C262.2,177.6,261.2,177.3,260.1,177.3z"/>
	<path class="st2" d="M277.4,190.3h-1.7v-6.7h-7.5v6.7h-1.7V176h1.7v6.1h7.5V176h1.7V190.3z"/>
	<path class="st2" d="M292.5,190.3h-1.9l-7.8-12h-0.1c0.1,1.4,0.2,2.7,0.2,3.9v8.1h-1.5V176h1.9l7.7,12h0.1c0-0.2,0-0.7-0.1-1.7
		c0-1-0.1-1.6,0-2v-8.2h1.6v14.2H292.5z"/>
	<path class="st2" d="M308.8,183.2c0,2.3-0.6,4.1-1.7,5.4c-1.2,1.3-2.8,2-4.8,2c-2.1,0-3.7-0.6-4.9-1.9s-1.7-3.1-1.7-5.4
		c0-2.3,0.6-4.1,1.7-5.4c1.1-1.3,2.8-1.9,4.9-1.9s3.7,0.7,4.8,2S308.8,180.9,308.8,183.2z M297.4,183.2c0,1.9,0.4,3.4,1.2,4.4
		c0.8,1,2,1.5,3.6,1.5s2.8-0.5,3.6-1.5c0.8-1,1.2-2.5,1.2-4.4s-0.4-3.4-1.2-4.4c-0.8-1-2-1.5-3.6-1.5s-2.8,0.5-3.6,1.5
		S297.4,181.3,297.4,183.2z"/>
	<path class="st2" d="M312,190.3V176h1.7v12.8h6.3v1.5H312z"/>
	<path class="st2" d="M334.8,183.2c0,2.3-0.6,4.1-1.7,5.4c-1.2,1.3-2.8,2-4.8,2c-2.1,0-3.7-0.6-4.9-1.9s-1.7-3.1-1.7-5.4
		c0-2.3,0.6-4.1,1.7-5.4c1.1-1.3,2.8-1.9,4.9-1.9s3.7,0.7,4.8,2S334.8,180.9,334.8,183.2z M323.4,183.2c0,1.9,0.4,3.4,1.2,4.4
		c0.8,1,2,1.5,3.6,1.5s2.8-0.5,3.6-1.5c0.8-1,1.2-2.5,1.2-4.4s-0.4-3.4-1.2-4.4c-0.8-1-2-1.5-3.6-1.5s-2.8,0.5-3.6,1.5
		S323.4,181.3,323.4,183.2z"/>
	<path class="st2" d="M344.2,182.9h4.9v6.9c-0.8,0.2-1.5,0.4-2.3,0.5s-1.7,0.2-2.7,0.2c-2.2,0-3.8-0.6-5-1.9
		c-1.2-1.3-1.8-3.1-1.8-5.4c0-1.5,0.3-2.8,0.9-3.9s1.5-2,2.6-2.6s2.4-0.9,3.9-0.9s2.9,0.3,4.3,0.8l-0.6,1.5
		c-1.3-0.5-2.5-0.8-3.7-0.8c-1.7,0-3.1,0.5-4.1,1.6s-1.5,2.5-1.5,4.3c0,1.9,0.5,3.4,1.4,4.4s2.3,1.5,4.1,1.5c1,0,2-0.1,2.9-0.3v-4.4
		h-3.2L344.2,182.9L344.2,182.9z"/>
	<path class="st2" d="M356.1,183.2l3.8-7.1h1.8l-4.8,8.7v5.5h-1.7v-5.5l-4.8-8.8h1.8L356.1,183.2z"/>
</g>
<g>
	<path class="st2" d="M151.3,285.6c-1.6,0-2.8,0.5-3.7,1.6s-1.4,2.5-1.4,4.3c0,1.9,0.4,3.3,1.3,4.3c0.9,1,2.1,1.5,3.7,1.5
		c1,0,2.1-0.2,3.4-0.5v1.5c-1,0.4-2.2,0.6-3.7,0.6c-2.1,0-3.7-0.6-4.9-1.9s-1.7-3.1-1.7-5.4c0-1.5,0.3-2.8,0.8-3.9
		c0.6-1.1,1.3-2,2.4-2.6c1-0.6,2.3-0.9,3.7-0.9c1.5,0,2.8,0.3,3.9,0.8l-0.7,1.4C153.5,285.9,152.4,285.6,151.3,285.6z"/>
	<path class="st2" d="M168.6,284.3v9.2c0,1.6-0.5,2.9-1.5,3.8s-2.3,1.4-4.1,1.4s-3-0.5-4-1.4c-0.9-0.9-1.4-2.2-1.4-3.9v-9.2h1.7v9.3
		c0,1.2,0.3,2.1,1,2.7s1.6,1,2.9,1c1.2,0,2.1-0.3,2.8-1c0.7-0.6,1-1.6,1-2.8v-9.3h1.6V284.3z"/>
	<path class="st2" d="M180.4,294.8c0,1.3-0.5,2.2-1.4,2.9c-0.9,0.7-2.1,1.1-3.7,1.1c-1.7,0-3-0.2-3.9-0.7v-1.6
		c0.6,0.2,1.2,0.4,1.9,0.6c0.7,0.1,1.4,0.2,2.1,0.2c1.1,0,1.9-0.2,2.5-0.6s0.8-1,0.8-1.8c0-0.5-0.1-0.9-0.3-1.2
		c-0.2-0.3-0.5-0.6-1-0.9s-1.2-0.6-2.1-0.9c-1.3-0.5-2.3-1-2.8-1.7c-0.6-0.7-0.9-1.5-0.9-2.5c0-1.1,0.4-2,1.2-2.6
		c0.8-0.7,1.9-1,3.3-1c1.4,0,2.7,0.3,3.9,0.8l-0.5,1.4c-1.2-0.5-2.3-0.7-3.4-0.7c-0.9,0-1.6,0.2-2.1,0.6s-0.7,0.9-0.7,1.6
		c0,0.5,0.1,0.9,0.3,1.2c0.2,0.3,0.5,0.6,0.9,0.9s1.1,0.6,2,0.9c1.5,0.5,2.5,1.1,3.1,1.7C180.2,293,180.4,293.8,180.4,294.8z"/>
	<path class="st2" d="M187.8,298.6h-1.7v-12.8h-4.5v-1.5h10.7v1.5h-4.5V298.6z"/>
	<path class="st2" d="M206.8,291.5c0,2.3-0.6,4.1-1.7,5.4c-1.2,1.3-2.8,2-4.8,2c-2.1,0-3.7-0.6-4.9-1.9s-1.7-3.1-1.7-5.4
		s0.6-4.1,1.7-5.4c1.1-1.3,2.8-1.9,4.9-1.9c2.1,0,3.7,0.7,4.8,2S206.8,289.2,206.8,291.5z M195.4,291.5c0,1.9,0.4,3.4,1.2,4.4
		s2,1.5,3.6,1.5s2.8-0.5,3.6-1.5s1.2-2.5,1.2-4.4s-0.4-3.4-1.2-4.4s-2-1.5-3.6-1.5s-2.8,0.5-3.6,1.5
		C195.9,288.1,195.4,289.5,195.4,291.5z"/>
	<path class="st2" d="M216.3,298.6l-4.8-12.7h-0.1c0.1,1,0.1,2.2,0.1,3.6v9.1H210v-14.3h2.5l4.5,11.8h0.1l4.6-11.8h2.5v14.3h-1.7
		v-9.2c0-1.1,0-2.2,0.1-3.4h-0.1l-4.9,12.6H216.3z"/>
	<path class="st2" d="M236,298.6h-8v-14.3h8v1.5h-6.3v4.6h5.9v1.5h-5.9v5.3h6.3V298.6z"/>
	<path class="st2" d="M240.8,292.7v5.9h-1.7v-14.3h3.9c1.8,0,3,0.3,3.9,1c0.8,0.7,1.3,1.7,1.3,3c0,1.9-1,3.2-2.9,3.8l3.9,6.4h-2
		l-3.5-5.9h-2.9V292.7z M240.8,291.2h2.3c1.2,0,2-0.2,2.6-0.7s0.8-1.2,0.8-2.1s-0.3-1.6-0.8-2s-1.5-0.6-2.7-0.6h-2.2L240.8,291.2
		L240.8,291.2z"/>
	<path class="st2" d="M269.1,291.5c0,2.3-0.6,4.1-1.7,5.4c-1.2,1.3-2.8,2-4.8,2c-2.1,0-3.7-0.6-4.9-1.9s-1.7-3.1-1.7-5.4
		s0.6-4.1,1.7-5.4s2.8-1.9,4.9-1.9s3.7,0.7,4.8,2S269.1,289.2,269.1,291.5z M257.8,291.5c0,1.9,0.4,3.4,1.2,4.4c0.8,1,2,1.5,3.6,1.5
		s2.8-0.5,3.6-1.5c0.8-1,1.2-2.5,1.2-4.4s-0.4-3.4-1.2-4.4c-0.8-1-2-1.5-3.6-1.5s-2.8,0.5-3.6,1.5
		C258.2,288.1,257.8,289.5,257.8,291.5z"/>
	<path class="st2" d="M283.1,284.3v9.2c0,1.6-0.5,2.9-1.5,3.8s-2.3,1.4-4.1,1.4s-3-0.5-4-1.4c-0.9-0.9-1.4-2.2-1.4-3.9v-9.2h1.7v9.3
		c0,1.2,0.3,2.1,1,2.7s1.6,1,2.9,1c1.2,0,2.1-0.3,2.8-1c0.7-0.6,1-1.6,1-2.8v-9.3h1.6V284.3z"/>
	<path class="st2" d="M291.3,298.6h-1.7v-12.8h-4.5v-1.5h10.7v1.5h-4.5V298.6z"/>
	<path class="st2" d="M304.1,285.6c-1.6,0-2.8,0.5-3.7,1.6s-1.4,2.5-1.4,4.3c0,1.9,0.4,3.3,1.3,4.3s2.1,1.5,3.7,1.5
		c1,0,2.1-0.2,3.4-0.5v1.5c-1,0.4-2.2,0.6-3.7,0.6c-2.1,0-3.7-0.6-4.9-1.9s-1.7-3.1-1.7-5.4c0-1.5,0.3-2.8,0.8-3.9
		c0.6-1.1,1.3-2,2.4-2.6c1-0.6,2.3-0.9,3.7-0.9c1.5,0,2.8,0.3,3.9,0.8l-0.7,1.4C306.2,285.9,305.1,285.6,304.1,285.6z"/>
	<path class="st2" d="M323,291.5c0,2.3-0.6,4.1-1.7,5.4c-1.2,1.3-2.8,2-4.8,2c-2.1,0-3.7-0.6-4.9-1.9s-1.7-3.1-1.7-5.4
		s0.6-4.1,1.7-5.4s2.8-1.9,4.9-1.9s3.7,0.7,4.8,2S323,289.2,323,291.5z M311.6,291.5c0,1.9,0.4,3.4,1.2,4.4c0.8,1,2,1.5,3.6,1.5
		s2.8-0.5,3.6-1.5c0.8-1,1.2-2.5,1.2-4.4s-0.4-3.4-1.2-4.4c-0.8-1-2-1.5-3.6-1.5s-2.8,0.5-3.6,1.5S311.6,289.5,311.6,291.5z"/>
	<path class="st2" d="M332.5,298.6l-4.8-12.7h-0.1c0.1,1,0.1,2.2,0.1,3.6v9.1h-1.5v-14.3h2.5l4.5,11.8h0.1l4.6-11.8h2.5v14.3h-1.7
		v-9.2c0-1.1,0-2.2,0.1-3.4h-0.1l-4.9,12.6H332.5z"/>
	<path class="st2" d="M352.2,298.6h-8v-14.3h8v1.5h-6.3v4.6h5.9v1.5h-5.9v5.3h6.3V298.6z"/>
	<path class="st2" d="M362.2,298.6h-1.7v-14.3h8v1.5h-6.3v5.2h5.9v1.5h-5.9V298.6z"/>
	<path class="st2" d="M383.2,291.5c0,2.3-0.6,4.1-1.7,5.4c-1.2,1.3-2.8,2-4.8,2c-2.1,0-3.7-0.6-4.9-1.9s-1.7-3.1-1.7-5.4
		s0.6-4.1,1.7-5.4s2.8-1.9,4.9-1.9s3.7,0.7,4.8,2S383.2,289.2,383.2,291.5z M371.9,291.5c0,1.9,0.4,3.4,1.2,4.4c0.8,1,2,1.5,3.6,1.5
		s2.8-0.5,3.6-1.5c0.8-1,1.2-2.5,1.2-4.4s-0.4-3.4-1.2-4.4c-0.8-1-2-1.5-3.6-1.5s-2.8,0.5-3.6,1.5S371.9,289.5,371.9,291.5z"/>
	<path class="st2" d="M392.5,285.6c-1.6,0-2.8,0.5-3.7,1.6s-1.4,2.5-1.4,4.3c0,1.9,0.4,3.3,1.3,4.3s2.1,1.5,3.7,1.5
		c1,0,2.1-0.2,3.4-0.5v1.5c-1,0.4-2.2,0.6-3.7,0.6c-2.1,0-3.7-0.6-4.9-1.9s-1.7-3.1-1.7-5.4c0-1.5,0.3-2.8,0.8-3.9
		c0.6-1.1,1.3-2,2.4-2.6c1-0.6,2.3-0.9,3.7-0.9c1.5,0,2.8,0.3,3.9,0.8l-0.7,1.4C394.7,285.9,393.6,285.6,392.5,285.6z"/>
	<path class="st2" d="M409.8,284.3v9.2c0,1.6-0.5,2.9-1.5,3.8s-2.3,1.4-4.1,1.4s-3-0.5-4-1.4c-0.9-0.9-1.4-2.2-1.4-3.9v-9.2h1.7v9.3
		c0,1.2,0.3,2.1,1,2.7s1.6,1,2.9,1c1.2,0,2.1-0.3,2.8-1c0.7-0.6,1-1.6,1-2.8v-9.3h1.6V284.3z"/>
	<path class="st2" d="M421.6,294.8c0,1.3-0.5,2.2-1.4,2.9c-0.9,0.7-2.1,1.1-3.7,1.1c-1.7,0-3-0.2-3.9-0.7v-1.6
		c0.6,0.2,1.2,0.4,1.9,0.6c0.7,0.1,1.4,0.2,2.1,0.2c1.1,0,1.9-0.2,2.5-0.6s0.8-1,0.8-1.8c0-0.5-0.1-0.9-0.3-1.2
		c-0.2-0.3-0.5-0.6-1-0.9s-1.2-0.6-2.1-0.9c-1.3-0.5-2.3-1-2.8-1.7c-0.6-0.7-0.9-1.5-0.9-2.5c0-1.1,0.4-2,1.2-2.6
		c0.8-0.7,1.9-1,3.3-1s2.7,0.3,3.9,0.8l-0.5,1.4c-1.2-0.5-2.3-0.7-3.4-0.7c-0.9,0-1.6,0.2-2.1,0.6s-0.7,0.9-0.7,1.6
		c0,0.5,0.1,0.9,0.3,1.2c0.2,0.3,0.5,0.6,0.9,0.9s1.1,0.6,2,0.9c1.5,0.5,2.5,1.1,3.1,1.7C421.4,293,421.6,293.8,421.6,294.8z"/>
	<path class="st2" d="M432.5,298.6h-8v-14.3h8v1.5h-6.3v4.6h5.9v1.5h-5.9v5.3h6.3V298.6z"/>
	<path class="st2" d="M447.1,291.3c0,2.4-0.6,4.2-1.9,5.4s-3.1,1.9-5.5,1.9h-4v-14.3h4.4c2.2,0,3.9,0.6,5.2,1.8
		S447.1,289.1,447.1,291.3z M445.3,291.4c0-1.9-0.5-3.3-1.4-4.2s-2.3-1.4-4.2-1.4h-2.4v11.4h2c2,0,3.5-0.5,4.5-1.5
		S445.3,293.3,445.3,291.4z"/>
</g>
<path class="st2" d="M35.7,295.6c-0.2,1.8,1.1,3.4,2.9,3.4h4.9c0.9-2,2.3-3.6,4-4.6c-1-1.2-1.6-2.8-1.6-4.4c0-2.8,1.6-5.1,4-6.2
	c0.2-0.6,0.4-1.3,0.4-2.1c-0.1-2.8-2.3-5.1-5.1-5.2c-3.1-0.1-5.7,2.3-5.7,5.4c0,2.1,1.2,4,3,4.8C39.1,287.5,36.5,290.3,35.7,295.6z
	 M66.2,281.6c-0.1-2.8-2.3-5.1-5.1-5.2c-3.1-0.1-5.7,2.3-5.7,5.4c0,0.7,0.1,1.3,0.4,1.9c2.3,1.1,3.9,3.4,4,6
	c0.1,1.7-0.5,3.4-1.6,4.6c1.7,1,3,2.6,4,4.6H67c1.8,0,3.2-1.6,2.9-3.4c-0.7-5.4-3.3-8.2-6.7-9C65,285.7,66.3,283.8,66.2,281.6z
	 M46.7,307.1H59c1.3,0,2.4-0.9,2.8-2.1c0.1-0.4,0.2-0.8,0.1-1.3c-0.7-5.4-3.3-8.2-6.7-9c1.1-0.6,2.1-1.5,2.6-2.7
	c0.3-0.7,0.5-1.5,0.4-2.3c0-0.7-0.2-1.4-0.4-2c-0.5-1.2-1.5-2.2-2.7-2.8c-0.6-0.3-1.3-0.4-2-0.5l0,0c-0.1,0-0.2,0-0.3,0
	c-0.3,0-0.6,0-1,0.1h-0.1c-0.3,0.1-0.6,0.2-0.9,0.3c0,0-0.1,0-0.1,0.1c-0.3,0.1-0.6,0.3-0.8,0.4c0,0-0.1,0-0.1,0.1
	c-0.3,0.2-0.5,0.4-0.7,0.6c0,0,0,0-0.1,0.1c-0.2,0.2-0.4,0.5-0.6,0.7c0,0,0,0,0,0.1c-0.2,0.3-0.3,0.6-0.5,0.8c0,0,0,0,0,0.1
	c-0.1,0.3-0.2,0.6-0.3,1l0,0c-0.1,0.3-0.1,0.7-0.1,1.1c0,1.3,0.4,2.4,1.2,3.3c0.2,0.2,0.4,0.5,0.6,0.7c0.2,0.2,0.4,0.3,0.6,0.5
	c0.2,0.1,0.4,0.3,0.6,0.4c-0.6,0.2-1.2,0.4-1.8,0.7c-0.2,0.1-0.4,0.2-0.6,0.3c-0.5,0.4-1,0.8-1.5,1.3c-1.4,1.5-2.4,3.7-2.8,6.7
	c-0.1,0.4,0,0.9,0.1,1.3C44.2,306.2,45.3,307.1,46.7,307.1z M85.7,306.8l-6.8-4.8c-0.2-0.2-0.4-0.3-0.7-0.4c2-4.6,2.7-9.9,1.8-15.2
	c-2.5-15-16.8-25.1-31.7-22.5c-15,2.5-25.1,16.8-22.5,31.7c2.5,15,16.8,25.1,31.7,22.5c5.3-0.9,10-3.3,13.8-6.7
	c0.2,0.2,0.4,0.4,0.6,0.5l6.8,4.8c1.4,1,3,1.3,4.6,1c1.5-0.3,3-1.1,4-2.5C89.1,312.5,88.5,308.7,85.7,306.8z M56.4,312
	c-6.1,1-12-0.7-16.6-4.2l-2.2-1.9c-2.9-3-5-6.9-5.8-11.3c-2-11.6,5.9-22.6,17.4-24.6c11.6-2,22.6,5.9,24.6,17.4
	C75.8,299,68,310.1,56.4,312z"/>
<path class="st2" d="M80.4,56.8c-0.1,1-0.7,1.1-2,1.8s-2.1,0.7-2.1,1.5s0.5,1.4,1,1.6c0.5,0.2,0.3,1.7-1.1,2.1
	c-1.4,0.4-1.8,0.3-1.3,0.7c0.5,0.4,1.3,0.8,1.3,1.7c0,0.9-1.4,1.3-1.8,1.5S74,68.5,74.3,69c0.2,0.5,0.6,1.7,0.1,2.8
	c-0.5,1.1-1.8,2.2-3.7,2.4c-1.9,0.2-4.4-1.3-6.3-1.3s-4.1,0.5-4.9,1.6c-0.5,0.7-1.1,1.2-1.4,2.3c-0.2,0.7-0.8,1.1-1.5,1.1H37.8
	c-1,0-1.8-1-1.5-2c1.3-4.9,2.6-10.2,2.4-11.9c-0.3-3.3-2.1-5.1-4.8-7.6c-1.4-1.3-2.1-2.2-2.4-2.8c-0.2-0.4-0.4-0.8-0.6-1.2h7.5
	L35.7,50h-1.2c-0.5,0.8-1.5,1.3-2.6,1.1c-0.9-0.2-1.7-0.9-1.9-1.9c-0.3-1.6,0.9-3,2.4-3c0.9,0,1.6,0.4,2.1,1.1h1.8
	c0.3,0,0.7,0.1,0.9,0.4l4.9,4.9h5.1V58c0,2.6,2.1,4.6,4.6,4.6h10.4c2.6,0,4.6-2.1,4.6-4.6V47.7c0-2.6-2.1-4.6-4.6-4.6H57V31.4
	l-5.5-5.5C50.8,26.1,50,26,49,25c-0.4-0.4-0.7-1-0.7-1.6c0-1.4,1.1-2.5,2.6-2.6c0.6,0,1.2,0.3,1.6,0.7c1,1,1,1.8,0.8,2.4l3.6,3.6v-7
	c7.8,2,11.4,6.1,13.5,8.2c2.9,2.9,5,8.5,4.6,12.6c-0.4,3.7-0.9,6.4,1.9,10.2C80,55.6,80.5,55.8,80.4,56.8z M30.8,44.6
	c-1.2-0.2-2.2-1.2-2.4-2.4c-0.2-1.3,0.5-2.4,1.5-2.9v-3.7c0-0.7,0.6-1.3,1.3-1.3h8c0.3,0,0.7,0.1,0.9,0.4l1.8,1.8
	c0.5-0.1,1-0.1,1.6,0.2c1,0.5,1.5,1.3,1.5,2.3c0,1.3-1.1,2.4-2.4,2.4c-0.9,0-1.8-0.5-2.2-1.4c-0.3-0.6-0.3-1.1-0.2-1.6L38.8,37h-6.2
	v2.4c0.5,0.3,0.9,0.7,1.1,1.2h3.1c0.3,0,0.7,0.1,0.9,0.4l7,7h2.5h2v-0.2c0-0.3,0.1-0.5,0.1-0.8l-1.5-1.5l-1-1
	c-0.2-0.2-0.4-0.6-0.4-0.9v-7.7L41.5,31l-3,0.1c-0.4,1-1.5,1.8-2.7,1.8c-1.5,0-2.8-1.3-2.8-2.8c0-1.6,1.3-2.9,2.8-2.9
	c1,0,1.9,0.5,2.4,1.3l3.7-0.1c0.4,0,0.7,0.1,1,0.4l5.7,5.7c0.2,0.2,0.4,0.6,0.4,0.9v7.7l0.6,0.6l1.5,1.5c0.2,0,0.4-0.1,0.6-0.1h0.4
	v-2v-8.4l-7.6-7.4c-0.8,0.2-1.6,0.3-2.7-0.6c-0.6-0.5-1-1.3-1-2.1c0-1.5,1.2-2.8,2.8-2.8c0.7,0,1.4,0.3,1.9,0.8
	c1.1,1.1,1.1,2,0.9,2.8l8,7.8c0.3,0.2,0.4,0.6,0.4,0.9v9v2h7.4c0.4,0,0.7,0.1,1,0.2c1,0.4,1.6,1.4,1.6,2.5v10.4c0,1.1-0.7,2-1.6,2.5
	c-0.3,0.1-0.7,0.2-1,0.2H51.9c-1.5,0-2.7-1.2-2.7-2.7v-7.6h-2h-3.1c-0.3,0-0.7-0.1-0.9-0.4l-7-7h-2.5C33.2,44.2,32.1,44.8,30.8,44.6
	z M51.6,58.1c0,0.1,0,0.1,0.1,0.2c0,0,0.1,0.1,0.2,0.1h10.4c0.1,0,0.2-0.1,0.2-0.2V47.7c0-0.1-0.1-0.2-0.2-0.2H51.9
	c-0.1,0-0.1,0-0.2,0.1c0,0-0.1,0.1-0.1,0.2C51.6,47.8,51.6,58.1,51.6,58.1z M54.1,56.9h6c0.5,0,1-0.4,1-1v-6c0-0.5-0.4-1-1-1h-6
	c-0.5,0-1,0.4-1,1v6C53.1,56.4,53.6,56.9,54.1,56.9z"/>
<g>
	<path class="st7" d="M82.3,158.1l-30.6,41.6c-1,1.3-3.1,0.8-3.3-0.9l-1.7-15.1l12.3-5.4c0.8-0.3,1.1-1.2,0.8-2v-0.1
		c-0.3-0.8-1.2-1.1-2-0.8l-23.6,10.3c-0.1,1.5-1.4,2.6-2.9,2.6c-1.6,0-2.9-1.3-2.9-2.9c0-1.6,1.3-2.9,2.9-2.9c0.6,0,1.1,0.2,1.5,0.4
		l17.3-7.6c0.8-0.3,1.1-1.2,0.8-2v-0.1c-0.3-0.8-1.2-1.1-2-0.8L38.8,177c-0.8,0.3-1.7,0-2-0.8s0-1.7,0.8-2L63.2,163
		c0.8-0.4,1.2-1.3,0.8-2.1c-0.4-0.7-1.3-1-2.1-0.7l-27.4,12.1c-0.1,1.5-1.4,2.6-2.9,2.6c-1.6,0-2.9-1.3-2.9-2.9
		c0-1.6,1.3-2.9,2.9-2.9c0.5,0,1.1,0.2,1.5,0.4l16.4-7.2c0.8-0.3,1.1-1.2,0.8-2v-0.1c-0.3-0.8-1.2-1.1-2-0.8l-10.2,4.5l-10-11.5
		c-1.1-1.3-0.1-3.2,1.6-3l51.3,5.7C82.4,155.3,83.1,156.9,82.3,158.1z"/>
</g>
</svg>
