<svg id="Layer_1" data-name="Layer 1" xmlns="http://www.w3.org/2000/svg" viewBox="0 0 477.58 157.3"><defs><style>.cls-1{fill:#007bc2;}.cls-2{fill:#00539e;}.cls-3{fill:#5c6062;}</style></defs><path class="cls-1" d="M477.25,35.52a13.31,13.31,0,0,0-3.82-8.45L467,19.72a11.92,11.92,0,0,1,0,1.69,14.33,14.33,0,0,1-2.94,8.75c-1,1.23-4.63,5.39-4.63,5.39s3.82,4.17,4.63,5.43a14.17,14.17,0,0,1,3,8.68,11.92,11.92,0,0,1,0,1.69L473.47,44a13.46,13.46,0,0,0,3.82-8.45Z"/><path class="cls-2" d="M434,64.58a30.51,30.51,0,0,0,5,3,15.77,15.77,0,0,0,6.73,1.38,11,11,0,0,0,6-1.53,23.35,23.35,0,0,0,5.08-4.59l5.62-6.43.27-.38a11.72,11.72,0,0,0,1.91-6.42,11.44,11.44,0,0,0-2.48-7.15c-1.3-1.65-4.33-5.09-4.33-5.09Z"/><path class="cls-2" d="M434,6.42a29.38,29.38,0,0,1,5-3,15.64,15.64,0,0,1,6.81-1.34,11.47,11.47,0,0,1,6,1.53A22.69,22.69,0,0,1,457,8.18l5.62,6.42.27.38a11.71,11.71,0,0,1-.58,13.62c-1.3,1.6-4.32,5-4.32,5Z"/><path class="cls-2" d="M310.69,142.05a25.07,25.07,0,0,1-.58,5.66,10.22,10.22,0,0,1-1.87,4.2,8.71,8.71,0,0,1-3.82,2.64,15.57,15.57,0,0,1-5.78.92,17.6,17.6,0,0,1-4.28-.46,15.78,15.78,0,0,1-3-1.15,4.62,4.62,0,0,1-1.34-1.11,1.76,1.76,0,0,1-.38-1.11,2.64,2.64,0,0,1,.57-1.49c.42-.57.77-1,1.07-1.37a5,5,0,0,0,.69.61,10,10,0,0,0,1.53,1,12.69,12.69,0,0,0,2.3.92,9.53,9.53,0,0,0,2.86.38,9.66,9.66,0,0,0,3.83-.68,5.59,5.59,0,0,0,2.29-2,7.61,7.61,0,0,0,1-3.06,24.58,24.58,0,0,0,.27-3.83v-.34l-1.07.92a5.81,5.81,0,0,1-1.49,1,9,9,0,0,1-1.95.73,9.37,9.37,0,0,1-2.41.31,11.57,11.57,0,0,1-3.82-.69,8.73,8.73,0,0,1-3.33-2.18,10.76,10.76,0,0,1-2.26-3.83,19.16,19.16,0,0,1-.65-6.08,19.78,19.78,0,0,1,.88-6.11,12.15,12.15,0,0,1,2.26-3.83,9.34,9.34,0,0,1,3.29-2.37,10.41,10.41,0,0,1,3.82-.76,9.43,9.43,0,0,1,4.13.76,9,9,0,0,1,2.79,1.88,2.53,2.53,0,0,1,1.19-1.69,3.81,3.81,0,0,1,1.83-.53h1.3Zm-16.9-10.71a18.82,18.82,0,0,0,.3,3.82,8,8,0,0,0,1.11,3,5.4,5.4,0,0,0,2.07,2,6.56,6.56,0,0,0,3.17.69,9.14,9.14,0,0,0,2.33-.3,7.57,7.57,0,0,0,1.84-.81,3.31,3.31,0,0,0,1.22-1.07,2.29,2.29,0,0,0,.42-1.26V125.15h0c0-.23-.46-.46-.8-.81a5.23,5.23,0,0,0-2.83-1.57,8.16,8.16,0,0,0-2.26-.3,5.62,5.62,0,0,0-4.7,2.25A10.75,10.75,0,0,0,293.79,131.34Z"/><path class="cls-2" d="M318,119.1a4.17,4.17,0,0,1,2.18.58,2.77,2.77,0,0,1,1.19,2,7,7,0,0,1,2.1-2.06,6,6,0,0,1,3.4-1h1.22a4.63,4.63,0,0,1,1.23.31,2.8,2.8,0,0,1,.92.65,1.6,1.6,0,0,1,.38,1.11,4.6,4.6,0,0,1-.42,1.79,10.7,10.7,0,0,1-.84,1.61,5.29,5.29,0,0,0-5.13-1,4.79,4.79,0,0,0-1.45.8,3.75,3.75,0,0,0-1,1.11,2.59,2.59,0,0,0-.35,1.3v17.32h-4.36V119.14H318Z"/><path class="cls-2" d="M354.51,131.42a19.46,19.46,0,0,1-.42,4.93,12.13,12.13,0,0,1-2,4.2,10.21,10.21,0,0,1-3.55,2.91,12.08,12.08,0,0,1-5.32,1.11,11.84,11.84,0,0,1-5.31-1.07,9.4,9.4,0,0,1-3.52-2.79,11.4,11.4,0,0,1-2-4.17,18.91,18.91,0,0,1-.61-5,16.38,16.38,0,0,1,.72-5,12.6,12.6,0,0,1,2.18-4.09,10.81,10.81,0,0,1,3.64-2.79,13.28,13.28,0,0,1,10.28,0,9.76,9.76,0,0,1,3.52,2.79,11.52,11.52,0,0,1,2,4A18,18,0,0,1,354.51,131.42Zm-4.63,0a19.29,19.29,0,0,0-.3-3.22,8.34,8.34,0,0,0-1-2.86,5.22,5.22,0,0,0-2-2.07,6.53,6.53,0,0,0-3.41-.8,6.21,6.21,0,0,0-3.32.8,6.06,6.06,0,0,0-2.14,2.07,9.24,9.24,0,0,0-1.11,2.86,15.19,15.19,0,0,0-.35,3.22,19,19,0,0,0,.31,3.28,8.38,8.38,0,0,0,1.07,3,6.44,6.44,0,0,0,2.1,2.21,6.27,6.27,0,0,0,3.33.85,6.88,6.88,0,0,0,3.44-.85,6,6,0,0,0,2.07-2.21,9.31,9.31,0,0,0,1-3A19,19,0,0,0,349.88,131.42Z"/><path class="cls-2" d="M369.08,140.75a7.44,7.44,0,0,0,2.56-.39,7.08,7.08,0,0,0,2-1,5.2,5.2,0,0,0,1.3-1.22,2.1,2.1,0,0,0,.45-1.15V119h1a4.09,4.09,0,0,1,2.49.73,3.32,3.32,0,0,1,1,2.75v21.34h-4.44v-2.26a8.74,8.74,0,0,1-2.9,2.1,10.57,10.57,0,0,1-4.86,1,9.9,9.9,0,0,1-4.7-1,6,6,0,0,1-2.49-2.41,8,8,0,0,1-1-3.21,31.38,31.38,0,0,1,0-3.36V119h1a3.77,3.77,0,0,1,2.45.73,3.08,3.08,0,0,1,1,2.71V134.7a14.77,14.77,0,0,0,.27,3.25,3.09,3.09,0,0,0,1.19,1.84,4.92,4.92,0,0,0,1.72.8A11.49,11.49,0,0,0,369.08,140.75Z"/><path class="cls-2" d="M387.28,119.14a4,4,0,0,1,2.18.58,3,3,0,0,1,1.22,1.91,8,8,0,0,1,2.75-2.07,9.7,9.7,0,0,1,4.44-.88,10.38,10.38,0,0,1,3.82.69,8.14,8.14,0,0,1,3.22,2.14,10.81,10.81,0,0,1,2.18,3.83,22,22,0,0,1,0,12.31,11.07,11.07,0,0,1-2.53,4.09,8.44,8.44,0,0,1-3.4,2.14,11.58,11.58,0,0,1-3.83.65,8.63,8.63,0,0,1-4.43-1,7.75,7.75,0,0,1-2.18-1.72V155h-4.44V119.18h1Zm15.87,12.35a17.66,17.66,0,0,0-.35-3.55,8,8,0,0,0-1.11-2.87,5.69,5.69,0,0,0-2-1.88,6.7,6.7,0,0,0-3.14-.72,7.65,7.65,0,0,0-4.17,1.07,3,3,0,0,0-1.64,2.48v11.86l.84.92a5.4,5.4,0,0,0,1.26.91,16.12,16.12,0,0,0,1.72.73,7.63,7.63,0,0,0,2.07.31,5.55,5.55,0,0,0,4.89-2.41A11.83,11.83,0,0,0,403.15,131.49Z"/><path class="cls-3" d="M37.83,90a23.72,23.72,0,0,0,6.27-.76,26.63,26.63,0,0,0,4.81-1.91,18.93,18.93,0,0,0,3.83-2.49l2.83-2.48a36.59,36.59,0,0,1,3.55,5.47A12,12,0,0,1,61,93.26,7.1,7.1,0,0,1,57.29,99a27.47,27.47,0,0,1-8.41,3.82,45.48,45.48,0,0,1-12.81,1.61,51.64,51.64,0,0,1-13-1.61,29.12,29.12,0,0,1-11.47-6A30.57,30.57,0,0,1,3.45,85.38a44.94,44.94,0,0,1-3.14-18,38.71,38.71,0,0,1,2.76-15.3A30.58,30.58,0,0,1,10.45,41.4a29.27,29.27,0,0,1,10.36-6.23,37.31,37.31,0,0,1,12.08-2,32.83,32.83,0,0,1,13.42,2.49,24.12,24.12,0,0,1,8.95,6.65,25.67,25.67,0,0,1,5.05,9.52,40.89,40.89,0,0,1,1.53,11.48v6.84a11.19,11.19,0,0,1-.23,1.91H19.55a22.29,22.29,0,0,0,4.82,12.77A16.44,16.44,0,0,0,37.83,90Zm6.53-28.67a20.69,20.69,0,0,0-2.63-11,10.29,10.29,0,0,0-9.45-4.21,11.73,11.73,0,0,0-9.33,4,16.77,16.77,0,0,0-3.48,11.25Z"/><path class="cls-3" d="M91.47,102H72.35V35.17L74,34.9A12.65,12.65,0,0,1,76,34.68h2.67a16.85,16.85,0,0,1,7.65,1.64A7.64,7.64,0,0,1,90.44,42a23,23,0,0,1,7.65-6,28,28,0,0,1,13.42-2.75,20.22,20.22,0,0,1,11.81,2.83,18.25,18.25,0,0,1,5.78,6.65,26.36,26.36,0,0,1,21.45-9.48,28.88,28.88,0,0,1,8.72,1.15,19.85,19.85,0,0,1,6.08,3.09,14.46,14.46,0,0,1,3.82,4.59,18,18,0,0,1,1.8,5.59c.34,2.18.61,4.55.76,7.07s.19,5,.19,7.65V102H152.81V57.35a10.76,10.76,0,0,0-1.38-4.24,6.11,6.11,0,0,0-2.83-2.83,11.62,11.62,0,0,0-5.39-1,15.37,15.37,0,0,0-7,1.68,11.84,11.84,0,0,0-4.59,3.83c.27,2.75.42,5.54.42,8.33V102H112.92V57.24a11.57,11.57,0,0,0-1.1-4.63,7.2,7.2,0,0,0-3-3,12.24,12.24,0,0,0-5.69-1.07A14.26,14.26,0,0,0,95,50.77a6.49,6.49,0,0,0-3.21,5.47Z"/><path class="cls-3" d="M200.87,39.42a24.4,24.4,0,0,1,6.19-4.17,23.72,23.72,0,0,1,10.6-2.07,33.48,33.48,0,0,1,10.55,1.65,21.74,21.74,0,0,1,8.91,5.58,28.34,28.34,0,0,1,6.08,10.36,47.59,47.59,0,0,1,2.33,16.06,56,56,0,0,1-2.33,18.24,31.19,31.19,0,0,1-6.58,11.47,22.57,22.57,0,0,1-9.06,5.89,31.78,31.78,0,0,1-10.09,1.68,25.09,25.09,0,0,1-7.65-1.07,26.33,26.33,0,0,1-5.51-2.37,16.56,16.56,0,0,1-3.4-2.48,12.91,12.91,0,0,1-1.49-1.65,7,7,0,0,1-1.11,3.83,4.44,4.44,0,0,1-3.83,1.64H181.64V2.4a11.84,11.84,0,0,1,2.1-.38,41.83,41.83,0,0,1,4.4-.19,27.21,27.21,0,0,1,4.59.42,9.87,9.87,0,0,1,4.09,1.68,9.76,9.76,0,0,1,2.9,3.48,12.2,12.2,0,0,1,1.15,5.7ZM225.57,67a43.58,43.58,0,0,0-.69-8.06,19.4,19.4,0,0,0-2.33-6.43,11.46,11.46,0,0,0-4.4-4.2,13.31,13.31,0,0,0-6.69-1.57A11.79,11.79,0,0,0,203.2,49a6.89,6.89,0,0,0-2.33,5.09V84.69A17.47,17.47,0,0,0,205,87.52a14.91,14.91,0,0,0,7.27,1.61,10.83,10.83,0,0,0,10.32-5.7A34.55,34.55,0,0,0,225.57,67Z"/><path class="cls-3" d="M310,85.61a31,31,0,0,0,3.25,16.25,23.71,23.71,0,0,1-4.74,1.41,22.13,22.13,0,0,1-4.59.46,12.85,12.85,0,0,1-7.65-2,8.94,8.94,0,0,1-3.32-5.66,25.39,25.39,0,0,1-8.22,5.51,30.24,30.24,0,0,1-12.43,2.26,29.57,29.57,0,0,1-7.65-1,20.6,20.6,0,0,1-6.92-3.48A17.85,17.85,0,0,1,252.61,93a22.28,22.28,0,0,1-2-9.79,18.75,18.75,0,0,1,3.44-11.7,24.15,24.15,0,0,1,8.68-7.11,38.8,38.8,0,0,1,11.47-3.6q5.47-.9,11-1.26,1.67-.08,3.33,0h3V56.93a9.33,9.33,0,0,0-2.87-7.65A15.28,15.28,0,0,0,279.33,47a27.48,27.48,0,0,0-10.82,2,88.44,88.44,0,0,0-9.29,4.13,20.26,20.26,0,0,1-3.17-5.28,13,13,0,0,1-1.38-4.17,5.14,5.14,0,0,1,2.22-3.82,21.26,21.26,0,0,1,6-3.33A47.61,47.61,0,0,1,271.8,34a56.29,56.29,0,0,1,10.44-.92,46.45,46.45,0,0,1,13,1.57,20.09,20.09,0,0,1,8.61,4.81,18.19,18.19,0,0,1,4.74,8.11A42.27,42.27,0,0,1,310,59ZM291.88,69.24h-2a16.52,16.52,0,0,0-2,0c-2.33.19-4.67.5-7,.88a19.72,19.72,0,0,0-6.12,1.95,13.25,13.25,0,0,0-4.39,3.83,9.39,9.39,0,0,0-1.69,5.81A10.16,10.16,0,0,0,271,88.44a9.31,9.31,0,0,0,7.65,2.75,16.83,16.83,0,0,0,5.08-.73,16.36,16.36,0,0,0,4.25-1.83,10.65,10.65,0,0,0,2.9-2.49,3.81,3.81,0,0,0,1.07-2.44Z"/><path class="cls-3" d="M338.79,41.63a31.66,31.66,0,0,1,2.26-2.79A16.1,16.1,0,0,1,344.53,36a21.84,21.84,0,0,1,4.36-2,17,17,0,0,1,5.2-.81,25.46,25.46,0,0,1,3.59.31,13.07,13.07,0,0,1,3.52,1,7.33,7.33,0,0,1,2.64,2.11,5.34,5.34,0,0,1,1,3.28A19.79,19.79,0,0,1,363.27,47a56.85,56.85,0,0,1-3.1,6.84,21.27,21.27,0,0,0-4.82-3.06,14.42,14.42,0,0,0-5.66-1,11,11,0,0,0-7.34,2.52,7.64,7.64,0,0,0-3,6.12V102H320.25V35.17l1.68-.27a13.31,13.31,0,0,1,2-.22h2.68a16.74,16.74,0,0,1,7.83,1.75A8,8,0,0,1,338.79,41.63Z"/><path class="cls-3" d="M392.33,75a14.84,14.84,0,0,1-1.95-3.18A12.87,12.87,0,0,1,389.23,68v34.07H370.11V2.4a11.08,11.08,0,0,1,2.1-.38,41.83,41.83,0,0,1,4.4-.19,26.28,26.28,0,0,1,4.51.42,10.44,10.44,0,0,1,4.09,1.68,9.56,9.56,0,0,1,3,3.48,12.7,12.7,0,0,1,1.1,5.7V63.74a16.18,16.18,0,0,1,3.83-7.08l15-17.09a20.52,20.52,0,0,1,4.89-4.4,11.13,11.13,0,0,1,6-1.57,15.29,15.29,0,0,1,6.53,1.34,27.81,27.81,0,0,1,5.59,3.48L408.19,65.19,434.39,100a17.43,17.43,0,0,1-4.94,2.41,18.82,18.82,0,0,1-6.23,1,16.67,16.67,0,0,1-15.29-7.35Z"/></svg>