<?xml version="1.0" encoding="utf-8"?>
<!-- Generator: Adobe Illustrator 27.7.0, SVG Export Plug-In . SVG Version: 6.00 Build 0)  -->
<svg version="1.1" id="Layer_1" xmlns="http://www.w3.org/2000/svg" xmlns:xlink="http://www.w3.org/1999/xlink" x="0px" y="0px"
	 viewBox="0 0 500.1 221.9" style="enable-background:new 0 0 500.1 221.9;" xml:space="preserve">
<style type="text/css">
	.st0{fill:url(#SVGID_1_);}
	.st1{fill:url(#SVGID_00000165926154679583135490000000091577841763987329_);}
	.st2{fill-rule:evenodd;clip-rule:evenodd;fill:url(#SVGID_00000005226689822169892970000002846578632205432748_);}
	.st3{fill-rule:evenodd;clip-rule:evenodd;fill:url(#SVGID_00000116917917394534347920000007719966769161706400_);}
</style>
<linearGradient id="SVGID_1_" gradientUnits="userSpaceOnUse" x1="189.6728" y1="191.5157" x2="314.958" y2="66.2304">
	<stop  offset="0.2" style="stop-color:#00539E"/>
	<stop  offset="0.8" style="stop-color:#009BA9"/>
</linearGradient>
<path class="st0" d="M175.6,122c-0.8,5.7,3.6,10.8,9.4,10.8h15.7c3-6.6,7.3-11.6,12.7-14.9c-3.3-3.9-5.1-8.9-5.1-14.3
	c0-8.9,5.2-16.5,12.7-20.1c0.8-2.1,1.2-4.3,1.1-6.7c-0.3-9-7.5-16.4-16.6-16.8c-10-0.5-18.2,7.5-18.2,17.4c0,6.8,3.9,12.7,9.7,15.6
	C186.3,95.7,178,104.7,175.6,122z M273.7,76.8c-0.3-9-7.5-16.4-16.6-16.8c-10-0.5-18.2,7.5-18.2,17.4c0,2.2,0.4,4.2,1.2,6.1
	c7.3,3.5,12.5,10.9,12.7,19.4c0.2,5.5-1.7,10.8-5.1,14.9c5.5,3.3,9.8,8.4,12.8,15h15.7c5.8,0,10.2-5.1,9.4-10.8
	c-2.4-17.3-10.7-26.3-21.4-29.1C269.9,90,273.9,83.9,273.7,76.8z M210.7,159h39.6c4.3,0,7.9-2.9,9-6.7c0.4-1.3,0.5-2.7,0.3-4.1
	c-2.4-17.3-10.7-26.3-21.4-29.1c3.7-1.8,6.6-4.9,8.2-8.7c1-2.3,1.5-4.8,1.4-7.4c-0.1-2.3-0.6-4.4-1.4-6.4c-1.7-3.9-4.9-7.1-8.8-8.9
	c-2-0.9-4.1-1.4-6.3-1.5c0,0,0,0,0,0c-0.4,0-0.7,0-1.1,0c-1,0-2.1,0.1-3.1,0.3c-0.1,0-0.3,0.1-0.4,0.1c-1,0.2-2,0.5-2.9,0.9
	c-0.1,0.1-0.2,0.1-0.4,0.2c-0.9,0.4-1.8,0.9-2.6,1.4c-0.1,0.1-0.2,0.1-0.3,0.2c-0.8,0.6-1.6,1.2-2.3,1.9c-0.1,0.1-0.1,0.2-0.2,0.2
	c-0.7,0.7-1.4,1.5-1.9,2.3c-0.1,0.1-0.1,0.2-0.1,0.2c-0.6,0.9-1.1,1.8-1.5,2.7c0,0.1,0,0.1-0.1,0.2c-0.4,1-0.7,2-1,3.1
	c0,0,0,0.1,0,0.1c-0.2,1.1-0.3,2.2-0.3,3.4c0,4,1.4,7.7,3.7,10.7c0.6,0.8,1.3,1.5,2,2.2c0.6,0.5,1.2,1,1.9,1.5
	c0.7,0.4,1.3,0.9,2.1,1.2c-2,0.5-3.9,1.3-5.8,2.2c-0.6,0.3-1.2,0.7-1.8,1c-1.7,1.1-3.4,2.5-4.9,4.1c-4.5,4.9-7.7,12-9,21.7
	c-0.2,1.4-0.1,2.8,0.3,4.1C202.9,156.2,206.4,159,210.7,159z M349.8,167.6l-35.4-25.1c-0.7-0.5-1.4-0.8-2.1-1.2
	c6.3-15,8.6-31.8,5.7-49c-8.2-48.2-54-80.7-102.2-72.6c-48.2,8.2-80.7,54-72.6,102.2c8.2,48.2,54,80.7,102.2,72.6
	c17.2-2.9,32.3-10.6,44.4-21.5c0.6,0.6,1.2,1.1,1.9,1.6l35.4,25.1c4.4,3.1,9.7,4.2,14.7,3.4c5-0.8,9.6-3.6,12.8-8
	C360.8,186.2,358.7,173.9,349.8,167.6z M242,174.7c-19.6,3.3-38.7-2.1-53.4-13.5l-7-6.2c-9.5-9.7-16.2-22.2-18.7-36.5
	c-6.3-37.3,18.9-72.8,56.2-79.1c37.3-6.3,72.8,18.9,79.1,56.2C304.5,132.9,279.3,168.4,242,174.7z"/>
</svg>
