<?xml version="1.0" encoding="utf-8"?>
<!-- Generator: Adobe Illustrator 27.7.0, SVG Export Plug-In . SVG Version: 6.00 Build 0)  -->
<svg version="1.1" id="Layer_1" xmlns="http://www.w3.org/2000/svg" xmlns:xlink="http://www.w3.org/1999/xlink" x="0px" y="0px"
	 viewBox="0 0 500.1 221.9" style="enable-background:new 0 0 500.1 221.9;" xml:space="preserve">
<style type="text/css">
	.st0{fill:url(#SVGID_1_);}
	.st1{fill:url(#SVGID_00000057134608686058061390000018184698599708349114_);}
	.st2{fill-rule:evenodd;clip-rule:evenodd;fill:url(#SVGID_00000046306885022397818820000000350541515693517205_);}
	.st3{fill-rule:evenodd;clip-rule:evenodd;fill:url(#SVGID_00000040547891887281163660000006427138753497155259_);}
</style>
<g>
	<linearGradient id="SVGID_1_" gradientUnits="userSpaceOnUse" x1="159.5124" y1="149.9139" x2="302.1088" y2="7.3175">
		<stop  offset="0.2" style="stop-color:#00539E"/>
		<stop  offset="0.8" style="stop-color:#009BA9"/>
	</linearGradient>
	<path style="fill-rule:evenodd;clip-rule:evenodd;fill:url(#SVGID_1_);" d="M341.5,54.1L238.4,194.3c-3.3,4.5-10.5,2.6-11.1-3
		l-5.6-51l41.6-18.2c2.6-1.1,3.7-4.1,2.6-6.7l-0.1-0.2c-1.1-2.6-4.1-3.7-6.7-2.6l-79.5,34.8c-0.5,4.9-4.6,8.8-9.7,8.8
		c-5.4,0-9.8-4.4-9.8-9.8s4.4-9.8,9.8-9.8c1.9,0,3.6,0.5,5.1,1.4l58.2-25.5c2.6-1.1,3.7-4.1,2.6-6.7l-0.1-0.2
		c-1.1-2.6-4.1-3.7-6.7-2.6l-33.9,14.9c-2.6,1.1-5.7,0-6.8-2.7s0-5.7,2.7-6.8l86.2-37.8c2.7-1.2,3.9-4.4,2.5-7.1
		c-1.3-2.5-4.4-3.4-7-2.3l-92.4,40.6c-0.5,5-4.6,8.9-9.7,8.9c-5.4,0-9.8-4.4-9.8-9.8c0-5.4,4.4-9.8,9.8-9.8c1.8,0,3.5,0.5,5,1.4
		L231,68.4c2.6-1.1,3.7-4.1,2.6-6.7l-0.1-0.2c-1.1-2.6-4.1-3.7-6.7-2.6l-34.2,15l-33.7-38.6c-3.7-4.2-0.3-10.8,5.3-10.2l172.9,19.2
		C341.9,44.8,344.3,50.3,341.5,54.1z"/>
</g>
</svg>
