<?xml version="1.0" encoding="utf-8"?>
<!-- Generator: Adobe Illustrator 27.7.0, SVG Export Plug-In . SVG Version: 6.00 Build 0)  -->
<svg version="1.1" id="Layer_1" xmlns="http://www.w3.org/2000/svg" xmlns:xlink="http://www.w3.org/1999/xlink" x="0px" y="0px"
	 viewBox="0 0 500.1 221.9" style="enable-background:new 0 0 500.1 221.9;" xml:space="preserve">
<style type="text/css">
	.st0{fill:url(#SVGID_1_);}
	.st1{fill:url(#SVGID_00000102507503217415534260000004879222780373806470_);}
	.st2{fill:url(#SVGID_00000012470407407074244770000007601687141548629657_);}
	.st3{fill:url(#SVGID_00000165941852829187515240000014007635967845222063_);}
	.st4{fill-rule:evenodd;clip-rule:evenodd;fill:url(#SVGID_00000111156803178754976510000016137835918100076676_);}
	.st5{fill-rule:evenodd;clip-rule:evenodd;fill:url(#SVGID_00000095310021875876550500000001319434367607967909_);}
	.st6{fill-rule:evenodd;clip-rule:evenodd;fill:url(#SVGID_00000049184199513166511440000002930773590490662572_);}
	.st7{fill-rule:evenodd;clip-rule:evenodd;fill:url(#SVGID_00000054234446550046977420000000883736484328268183_);}
</style>
<linearGradient id="SVGID_1_" gradientUnits="userSpaceOnUse" x1="178.9298" y1="184.3537" x2="317.5473" y2="45.7362">
	<stop  offset="0.2" style="stop-color:#00539E"/>
	<stop  offset="0.8" style="stop-color:#009BA9"/>
</linearGradient>
<path style="fill-rule:evenodd;clip-rule:evenodd;fill:url(#SVGID_1_);" d="M244.1,178.8c0.5,0.1,1.1-0.1,1.5-0.5l84.6-77.7
	c0.4-0.4,0.6-0.9,0.6-1.4c0-0.5-0.2-1-0.5-1.4l-13.6-14.5c-0.3-0.3-0.7-0.6-1.2-0.6c-0.6-0.1-1.2,0.1-1.6,0.5l-62.6,59.2
	c-0.8,0.8-2,1.2-3.1,1c-0.9-0.1-1.8-0.6-2.4-1.4l-20.3-24.4c-0.3-0.4-0.8-0.6-1.3-0.7c-0.6-0.1-1.1,0.1-1.5,0.4l-15.2,12.7
	c-0.4,0.3-0.7,0.8-0.7,1.4c0,0.5,0.1,1.1,0.5,1.5l35.8,45.2C243.3,178.5,243.7,178.7,244.1,178.8L244.1,178.8z M250.7,183.8
	l72.5-66.6c2.6,7.8,4,16.1,4,24.8c0,43.6-35.4,79-79,79c-43.6,0-79-35.4-79-79s35.4-79,79-79c20.8,0,39.7,8,53.8,21.1l-53,50.1
	l-17.8-21.3c-1.5-1.8-3.7-3-6.1-3.3c-0.4-0.1-0.8-0.1-1.3-0.1c-2.2,0-4.4,0.8-6.1,2.2l-15.2,12.7c-2,1.6-3.2,3.9-3.4,6.5
	c-0.2,2.5,0.5,4.9,2.1,6.9l35.8,45.1l0.1,0.1l0.1,0.1c1.5,1.8,3.6,3,6,3.3c0.4,0.1,0.8,0.1,1.2,0.1
	C246.7,186.3,249,185.4,250.7,183.8z M211.3,61v-0.8c0-20.3,16.6-36.9,36.9-36.9c20.3,0,36.9,16.6,36.9,36.9V61
	c8.2,3.6,15.7,8.4,22.4,14.1V60.3c0-32.7-26.6-59.3-59.3-59.3c-32.7,0-59.3,26.6-59.3,59.3v14.9C195.6,69.4,203.2,64.6,211.3,61z"/>
</svg>
