<?xml version="1.0" encoding="utf-8"?>
<!-- Generator: Adobe Illustrator 27.7.0, SVG Export Plug-In . SVG Version: 6.00 Build 0)  -->
<svg version="1.1" id="Layer_1" xmlns="http://www.w3.org/2000/svg" xmlns:xlink="http://www.w3.org/1999/xlink" x="0px" y="0px"
	 viewBox="0 0 500.1 221.9" style="enable-background:new 0 0 500.1 221.9;" xml:space="preserve">
<style type="text/css">
	.st0{fill:url(#SVGID_1_);}
	.st1{fill:url(#SVGID_00000110465546355470356570000002739331660623253668_);}
	.st2{fill-rule:evenodd;clip-rule:evenodd;fill:url(#SVGID_00000117678418971233015550000018062649551641096615_);}
	.st3{fill-rule:evenodd;clip-rule:evenodd;fill:url(#SVGID_00000016064496528114619650000015593641281107012543_);}
</style>
<linearGradient id="SVGID_1_" gradientUnits="userSpaceOnUse" x1="172.8625" y1="189.3342" x2="312.8347" y2="49.362">
	<stop  offset="0.2" style="stop-color:#00539E"/>
	<stop  offset="0.8" style="stop-color:#009BA9"/>
</linearGradient>
<path class="st0" d="M337.9,135.8c-0.3,3.5-2.5,3.9-6.9,6.2c-4.4,2.3-7,2.5-7,5.1c0,2.6,1.8,4.8,3.4,5.4c1.6,0.6,1,5.8-3.8,7.3
	c-4.8,1.4-6.1,1-4.4,2.3c1.7,1.3,4.4,2.7,4.4,5.9c0,3.2-4.9,4.5-6.2,5.2c-1.3,0.8-1.3,2.7-0.5,4.5c0.8,1.8,2,5.8,0.4,9.6
	c-1.6,3.8-6.1,7.5-12.7,8.1c-6.6,0.6-14.8-4.3-21.4-4.3c-6.6,0-13.9,1.6-16.6,5.4c-1.7,2.3-3.7,4.2-4.8,7.9
	c-0.7,2.3-2.7,3.9-5.1,3.9H194c-3.5,0-6-3.3-5.1-6.6c4.4-16.7,8.6-34.6,8.2-40.2c-0.9-11.2-7.2-17.4-16.2-25.8
	c-4.7-4.4-7.2-7.4-8.3-9.5c-0.7-1.2-1.4-2.6-2.1-4.2h25.3l-9.1-9.1h-4.1c-1.8,2.7-5.1,4.4-8.7,3.6c-3.1-0.7-5.6-3.2-6.3-6.3
	c-1.1-5.3,2.9-10,8.1-10c2.9,0,5.5,1.5,6.9,3.8h5.9c1.2,0,2.3,0.5,3.1,1.3l16.7,16.7h17.4v18.1c0,8.7,7,15.7,15.7,15.7h35.2
	c8.7,0,15.7-7,15.7-15.7v-35.2c0-8.7-7-15.7-15.7-15.7H259V49.9l-18.6-18.6c-2.4,0.6-5,0.5-8.4-3c-1.4-1.4-2.3-3.4-2.3-5.4
	c0-4.8,3.9-8.6,8.6-8.6c2.1,0,4,0.9,5.5,2.4c3.4,3.3,3.4,5.9,2.9,8.3L259,37.3V13.6c26.4,6.6,38.6,20.6,45.7,27.7
	c9.8,9.7,16.9,28.8,15.4,42.6c-1.3,12.5-3.1,21.5,6.5,34.4C336.4,131.4,338.2,132.4,337.9,135.8z M170.3,94.5
	c-4.1-0.6-7.5-4-8.1-8.1c-0.6-4.3,1.6-8,5.1-9.8l0.1-12.5c0-2.4,2-4.4,4.4-4.4H199c1.2,0,2.3,0.5,3.1,1.3l6.1,6.1
	c1.6-0.4,3.4-0.3,5.4,0.7c2.8,1.5,4.7,4.3,4.6,7.4c-0.1,4.4-3.7,8-8.1,8.1c-3.2,0-5.9-1.9-7.4-4.6c-1-2-1.1-3.7-0.7-5.4l-4.8-4.8
	h-20.9l-0.1,8.1c1.7,0.9,3,2.3,3.9,3.9h10.4c1.2,0,2.3,0.5,3.1,1.3l23.5,23.5h8.6h6.7v-0.6c0-0.9,0.2-1.8,0.4-2.6l-5.1-5.1l-3.4-3.4
	c-0.8-0.8-1.3-2-1.3-3.1v-26L206.4,48l-10.2,0.4c-1.4,3.5-4.9,6-9,5.9c-5.1-0.1-9.3-4.3-9.4-9.4c-0.1-5.3,4.2-9.7,9.5-9.7
	c3.3,0,6.3,1.7,8,4.3l12.6-0.5c1.3,0,2.4,0.4,3.3,1.3l19.4,19.4c0.8,0.8,1.3,2,1.3,3.1v25.9l2.2,2.2l5.2,5.2
	c0.7-0.2,1.4-0.3,2.1-0.3h1.3v-6.7V60.6l-25.6-25.1c-2.6,0.8-5.4,0.9-9-2.1c-2-1.8-3.4-4.2-3.4-6.9c0-5.2,4.2-9.5,9.4-9.6
	c2.4,0,4.7,1,6.4,2.7c3.8,3.8,3.7,6.8,2.9,9.5l26.9,26.4c0.9,0.8,1.3,2,1.3,3.2v30.4v6.7h25c1.2,0,2.4,0.3,3.5,0.7
	c3.2,1.4,5.5,4.6,5.5,8.3v35.2c0,3.7-2.3,6.9-5.5,8.3c-1.1,0.5-2.3,0.7-3.5,0.7h-35.2c-5,0-9-4-9-9v-25.7h-6.7h-10.4
	c-1.2,0-2.3-0.5-3.1-1.3l-23.5-23.5h-8.5C178.3,92.9,174.6,95.1,170.3,94.5z M240.6,140.1c0,0.2,0.1,0.4,0.2,0.5
	c0.1,0.1,0.3,0.2,0.5,0.2h35.2c0.4,0,0.8-0.3,0.8-0.8v-35.2c0-0.4-0.3-0.8-0.8-0.8h-35.2c-0.2,0-0.4,0.1-0.5,0.2
	c-0.1,0.1-0.2,0.3-0.2,0.5V140.1z M248.9,135.9h20.1c1.8,0,3.3-1.5,3.3-3.3v-20.1c0-1.8-1.5-3.3-3.3-3.3h-20.1
	c-1.8,0-3.3,1.5-3.3,3.3v20.1C245.6,134.4,247.1,135.9,248.9,135.9z"/>
</svg>
