<?xml version="1.0" encoding="utf-8"?>
<!-- Generator: Adobe Illustrator 27.7.0, SVG Export Plug-In . SVG Version: 6.00 Build 0)  -->
<svg version="1.1" id="Layer_5" xmlns="http://www.w3.org/2000/svg" xmlns:xlink="http://www.w3.org/1999/xlink" x="0px" y="0px"
	 viewBox="0 0 412.7 458" style="enable-background:new 0 0 412.7 458;" xml:space="preserve">
<style type="text/css">
	.st0{fill:#2F2E2F;}
	.st1{fill:#FFFFFF;}
	.st2{fill:url(#SVGID_1_);}
	.st3{fill:#EBECEC;}
	.st4{fill:#F2F2F2;}
	.st5{fill:url(#SVGID_00000173882810169001153820000009030808934010876858_);}
	.st6{fill:none;stroke:#FFFFFF;stroke-width:2;stroke-miterlimit:10;}
	.st7{fill:none;stroke:#FFFFFF;stroke-linejoin:round;stroke-miterlimit:10;}
	.st8{fill:none;stroke:#FFFFFF;stroke-linecap:round;stroke-linejoin:round;stroke-miterlimit:10;}
	.st9{fill:url(#SVGID_00000098937922752301605090000000930770852505532835_);}
	.st10{fill:url(#SVGID_00000152255367089228764450000004634452624536563350_);}
	.st11{fill:none;stroke:#FFFFFF;stroke-miterlimit:10;}
	.st12{fill:url(#SVGID_00000039121023366764095040000017357216581171726473_);}
	.st13{fill:url(#SVGID_00000013909994635721970790000007929331852458233216_);}
	.st14{fill:url(#SVGID_00000078027886715875805430000010229756350950839731_);}
</style>
<rect x="-57.2" y="472.8" style="fill:none;" width="263.8" height="12.4"/>
<text transform="matrix(1 0 0 1 -57.1576 480.0511)" style="display:none;fill:#02549E; font-family:'OpenSans-Semibold'; font-size:9.5px;">Business Account Manager</text>
<rect x="230.5" y="472.8" style="fill:none;" width="239.6" height="12.4"/>
<text transform="matrix(1 0 0 1 230.5307 480.0511)" style="display:none;fill:#02549E; font-family:'OpenSans-Semibold'; font-size:9.5px;">Platform Adoption Consultant</text>
<g>
	<path class="st0" d="M206.5,166.7c33.9,0,61.4,27.8,61.4,62s-27.6,62-61.4,62s-61.4-27.8-61.4-62S172.7,166.7,206.5,166.7
		 M206.5,148.7c-43.9,0-79.4,35.8-79.4,80s35.6,80,79.4,80c43.9,0,79.4-35.8,79.4-80S250.4,148.7,206.5,148.7L206.5,148.7z"/>
</g>
<g>
	<path class="st1" d="M137.2,209.9c0.7,0.2,1.1,0.5,1.4,1s0.3,1.1,0.1,1.9l-0.1,0.6l2.2,0.5l-0.3,1.3l-6.3-1.4l0.5-2
		c0.2-0.8,0.5-1.3,0.9-1.6C136,209.8,136.5,209.8,137.2,209.9z M137.5,213.1l0.1-0.4c0.1-0.4,0.1-0.7,0-1c-0.1-0.2-0.3-0.4-0.6-0.5
		c-0.3-0.1-0.6,0-0.7,0.1s-0.3,0.4-0.4,0.7l-0.1,0.6L137.5,213.1z"/>
	<path class="st1" d="M142.9,206.3l-1.1,3.5l-6.1-1.9l1.1-3.5l1.1,0.3l-0.7,2.2l1.3,0.4l0.7-2.1l1.1,0.3l-0.7,2.1l1.6,0.5l0.7-2.2
		L142.9,206.3z"/>
	<path class="st1" d="M145.4,199.9l-0.7,1.6l-5.6,0.7l0,0c0.8,0.3,1.4,0.5,1.7,0.6l2.8,1.2l-0.5,1.1l-5.9-2.5l0.7-1.6l5.5-0.7l0,0
		c-0.8-0.3-1.3-0.5-1.7-0.6l-2.8-1.2l0.5-1.1L145.4,199.9z"/>
	<path class="st1" d="M146.3,194.4c0.5,0.3,0.8,0.7,0.9,1.2s0,1.1-0.4,1.8c-0.3,0.6-0.7,1.1-1.2,1.4l-1.1-0.6
		c0.4-0.3,0.7-0.6,0.9-0.8c0.2-0.2,0.4-0.5,0.5-0.7c0.1-0.3,0.2-0.5,0.2-0.7s-0.1-0.3-0.3-0.4c-0.1-0.1-0.2-0.1-0.3-0.1
		c-0.1,0-0.3,0.1-0.4,0.1s-0.4,0.3-0.8,0.5c-0.3,0.3-0.6,0.4-0.9,0.5c-0.2,0.1-0.5,0.1-0.7,0.1c-0.3,0-0.5-0.1-0.8-0.2
		c-0.5-0.3-0.8-0.6-0.9-1.1c-0.1-0.5,0-1,0.3-1.6c0.2-0.3,0.3-0.6,0.5-0.8c0.2-0.2,0.5-0.5,0.7-0.7l0.7,0.9
		c-0.3,0.2-0.5,0.4-0.7,0.6s-0.3,0.4-0.4,0.5c-0.1,0.2-0.2,0.4-0.1,0.6c0,0.2,0.1,0.3,0.3,0.4c0.1,0.1,0.2,0.1,0.3,0.1
		c0.1,0,0.2,0,0.4-0.1c0.1-0.1,0.4-0.3,0.8-0.6c0.5-0.4,1-0.6,1.3-0.7C145.6,194.1,145.9,194.2,146.3,194.4z"/>
	<path class="st1" d="M148.4,194.3l-5.5-3.3l0.7-1.2l5.5,3.3L148.4,194.3z"/>
	<path class="st1" d="M150.6,185.2c0.9,0.6,1.4,1.3,1.6,2.1s0,1.5-0.6,2.3c-0.6,0.8-1.2,1.3-2,1.4c-0.8,0.1-1.6-0.2-2.5-0.8
		s-1.4-1.3-1.5-2.1c-0.2-0.8,0-1.5,0.6-2.3s1.2-1.3,2-1.4C148.9,184.4,149.7,184.6,150.6,185.2z M147.9,189.1
		c0.6,0.4,1.1,0.6,1.6,0.6c0.5,0,0.8-0.2,1.1-0.7c0.6-0.9,0.3-1.7-0.8-2.6c-1.2-0.8-2.1-0.8-2.7,0.1c-0.3,0.4-0.4,0.9-0.3,1.3
		C147,188.2,147.3,188.6,147.9,189.1z"/>
	<path class="st1" d="M157.7,181.9l-1.1,1.3l-5.5-1.1l0,0c0.7,0.5,1.2,0.9,1.4,1.1l2.3,2l-0.8,0.9l-4.8-4.2l1.1-1.3l5.5,1.1l0,0
		c-0.7-0.5-1.1-0.9-1.4-1.1l-2.3-2l0.8-0.9L157.7,181.9z"/>
	<path class="st1" d="M164.8,175.3l-1.2,1.1l-0.7,0c-0.2,0.7-0.5,1.2-1,1.7c-0.5,0.5-1.1,0.7-1.6,0.8c-0.5,0-1-0.2-1.4-0.6
		c-0.3-0.3-0.4-0.6-0.5-0.9s0-0.7,0.2-1.2c-0.3,0-0.6-0.1-0.8-0.2s-0.4-0.3-0.6-0.5c-0.3-0.3-0.4-0.7-0.3-1.1
		c0.1-0.4,0.3-0.8,0.8-1.2c0.4-0.4,0.8-0.6,1.2-0.6c0.4,0,0.8,0.1,1,0.4c0.2,0.3,0.4,0.6,0.4,0.9c0,0.4,0,0.8-0.2,1.3l1.7,0.1
		c-0.1-0.4-0.2-0.8-0.5-1.4l1-0.9c0.2,0.4,0.3,0.8,0.4,1.2c0.1,0.4,0.2,0.8,0.2,1.2L164.8,175.3z M159,173.8
		c-0.1-0.1-0.2-0.2-0.4-0.2c-0.1,0-0.3,0.1-0.4,0.2c-0.1,0.1-0.2,0.3-0.3,0.4c0,0.1,0,0.3,0.1,0.4c0.2,0.2,0.5,0.3,0.9,0.4
		c0.1-0.3,0.2-0.5,0.2-0.7S159.1,173.9,159,173.8z M159.8,177.2c0.2,0.2,0.4,0.3,0.6,0.3c0.2,0,0.5-0.1,0.7-0.3
		c0.3-0.2,0.5-0.5,0.6-0.9l-2.1-0.1c0,0.2-0.1,0.4,0,0.6C159.7,176.9,159.7,177.1,159.8,177.2z"/>
	<path class="st1" d="M167.3,173.6l-3.7-5.2l1.1-0.8l3.7,5.2L167.3,173.6z"/>
	<path class="st1" d="M174.4,168.9l-1.5,0.9l-4.9-2.7l0,0c0.5,0.7,0.8,1.2,1,1.5l1.6,2.6l-1,0.6l-3.3-5.5l1.5-0.9l4.9,2.7l0,0
		c-0.5-0.7-0.8-1.2-1-1.5l-1.6-2.6l1.1-0.6L174.4,168.9z"/>
	<path class="st1" d="M176.3,160.9l1.2-0.6l0.8,6.7l-1.3,0.6l-4.7-4.9l1.2-0.6l2.7,2.9c0.2,0.2,0.3,0.4,0.5,0.6
		c0.2,0.2,0.3,0.4,0.4,0.5c-0.1-0.3-0.2-0.7-0.3-1.4L176.3,160.9z"/>
	<path class="st1" d="M184.4,164.5l-3.5,1.3l-2.3-6l3.5-1.3l0.4,1l-2.2,0.8l0.5,1.3l2-0.8l0.4,1l-2,0.8l0.6,1.5l2.2-0.8L184.4,164.5
		z"/>
	<path class="st1" d="M188.7,161.4c0.2,0.6,0.1,1.1-0.2,1.5c-0.3,0.4-0.8,0.8-1.5,1c-0.7,0.2-1.3,0.2-1.9,0.2l-0.4-1.2
		c0.5,0.1,0.9,0.1,1.2,0.1c0.3,0,0.6-0.1,0.8-0.1c0.3-0.1,0.5-0.2,0.6-0.4c0.1-0.2,0.1-0.3,0.1-0.6c0-0.1-0.1-0.2-0.2-0.3
		c-0.1-0.1-0.2-0.1-0.4-0.2c-0.2,0-0.5-0.1-0.9-0.2c-0.4-0.1-0.8-0.1-1-0.3s-0.4-0.2-0.6-0.4c-0.2-0.2-0.3-0.4-0.4-0.7
		c-0.2-0.5-0.1-1,0.2-1.5s0.7-0.7,1.4-0.9c0.3-0.1,0.6-0.2,0.9-0.2c0.3,0,0.6,0,1,0l-0.1,1.1c-0.4,0-0.7,0-0.9,0
		c-0.2,0-0.4,0-0.7,0.1c-0.2,0.1-0.4,0.2-0.5,0.3c-0.1,0.2-0.1,0.3-0.1,0.5c0,0.1,0.1,0.2,0.2,0.3c0.1,0.1,0.2,0.1,0.3,0.2
		c0.1,0,0.5,0.1,1,0.2c0.7,0.1,1.1,0.3,1.4,0.5C188.4,160.7,188.6,161,188.7,161.4z"/>
	<path class="st1" d="M192.6,162.3l-1.3,0.3l-1.1-5.2l-1.7,0.4l-0.2-1.1l4.7-1.1l0.2,1.1l-1.7,0.4L192.6,162.3z"/>
	<path class="st1" d="M197.8,161.4l-2.1-4.8l0,0c0.2,1,0.3,1.7,0.3,2l0.4,3l-1.2,0.1l-0.8-6.4l1.8-0.2l2.1,4.7l0,0l1-5.1l1.8-0.2
		l0.8,6.4l-1.3,0.1l-0.4-3c0-0.1,0-0.3-0.1-0.5c0-0.2-0.1-0.7-0.1-1.5l0,0l-1.1,5.2L197.8,161.4z"/>
	<path class="st1" d="M207.1,160.8l-3.7,0.1l-0.1-6.4l3.7-0.1l0,1.1l-2.3,0l0,1.4l2.2,0l0,1.1l-2.2,0l0,1.7l2.3,0L207.1,160.8z"/>
	<path class="st1" d="M214,161.2l-1.7-0.1l-2.5-5l0,0c0,0.9,0,1.5,0,1.8l-0.2,3l-1.2-0.1l0.4-6.4l1.7,0.1l2.5,5l0,0
		c0-0.8,0-1.4,0.1-1.8l0.2-3l1.2,0.1L214,161.2z"/>
	<path class="st1" d="M217.9,161.8l-1.3-0.2l0.8-5.2l-1.7-0.3l0.2-1.1l4.8,0.8l-0.2,1.1l-1.7-0.3L217.9,161.8z"/>
	<path class="st1" d="M226.5,163.8l0-1.6l-2.3-0.6l-0.9,1.3l-1.4-0.4l4-5.6l1.6,0.5l0.4,6.8L226.5,163.8z M226.5,161.1
		c0-1.5-0.1-2.3-0.1-2.5c0-0.2,0-0.3,0-0.4c-0.2,0.3-0.7,1.1-1.6,2.4L226.5,161.1z"/>
	<path class="st1" d="M234.7,163.4c-0.4,1-1,1.6-1.7,1.9c-0.8,0.3-1.7,0.3-2.7-0.2l-1.7-0.7l2.3-6l1.9,0.7c1,0.4,1.6,0.9,2,1.7
		C235,161.6,235,162.4,234.7,163.4z M233.3,162.9c0.5-1.3,0.2-2.1-1-2.6l-0.7-0.3l-1.5,3.9l0.5,0.2
		C232,164.6,232.8,164.2,233.3,162.9z"/>
	<path class="st1" d="M237,168.1l1-5.2l0,0c-0.4,0.9-0.7,1.6-0.9,1.9l-1.4,2.6l-1.1-0.6l3-5.7l1.6,0.9l-0.9,5.1l0,0l3.7-3.6l1.6,0.9
		l-3,5.7l-1.1-0.6l1.4-2.7c0.1-0.1,0.1-0.3,0.2-0.4s0.3-0.6,0.7-1.3l0,0l-3.8,3.7L237,168.1z"/>
	<path class="st1" d="M241.9,170.9l3.4-5.4l1.1,0.7l-3.4,5.4L241.9,170.9z"/>
	<path class="st1" d="M248.9,175.8l-1.4-1l0.7-5.6l0,0c-0.5,0.7-0.8,1.2-1,1.5l-1.8,2.4l-1-0.7l3.8-5.1l1.4,1l-0.6,5.5l0,0
		c0.5-0.7,0.8-1.2,1-1.5l1.8-2.4l1,0.7L248.9,175.8z"/>
	<path class="st1" d="M250,176.8l4.2-4.9l1,0.9l-4.2,4.9L250,176.8z"/>
	<path class="st1" d="M256.1,180.1c-0.4,0.4-0.9,0.6-1.4,0.5c-0.5-0.1-1.1-0.3-1.6-0.9c-0.5-0.5-0.8-1-1-1.5l0.9-0.9
		c0.2,0.4,0.3,0.8,0.5,1.1c0.2,0.3,0.3,0.5,0.5,0.7c0.2,0.2,0.4,0.3,0.6,0.4c0.2,0,0.4,0,0.5-0.2c0.1-0.1,0.1-0.2,0.2-0.3
		c0-0.1,0-0.3,0-0.4c0-0.2-0.1-0.5-0.3-0.9c-0.2-0.4-0.2-0.7-0.3-1c0-0.3,0-0.5,0.1-0.8c0.1-0.2,0.2-0.5,0.4-0.7
		c0.4-0.4,0.8-0.6,1.3-0.6c0.5,0,1,0.3,1.5,0.8c0.2,0.2,0.4,0.5,0.6,0.8c0.2,0.3,0.3,0.6,0.4,0.9l-1.1,0.5c-0.1-0.3-0.3-0.6-0.4-0.8
		c-0.1-0.2-0.3-0.4-0.4-0.5c-0.2-0.2-0.4-0.3-0.6-0.3c-0.2,0-0.3,0.1-0.5,0.2c-0.1,0.1-0.1,0.2-0.2,0.3c0,0.1,0,0.2,0,0.4
		c0,0.1,0.1,0.5,0.3,0.9c0.2,0.6,0.3,1.1,0.3,1.5C256.6,179.5,256.4,179.8,256.1,180.1z"/>
	<path class="st1" d="M257.2,184l-0.9-1l4-3.5l-1.2-1.3l0.8-0.8l3.2,3.6l-0.8,0.8l-1.2-1.3L257.2,184z"/>
	<path class="st1" d="M261.7,185.6l-2,1.5l-0.8-1.1l5.1-3.9l1.1,1.5c0.5,0.7,0.8,1.3,0.8,1.8c0,0.5-0.3,1-0.8,1.4
		c-0.3,0.2-0.6,0.3-1,0.4s-0.7-0.1-1.1-0.3c-0.6,1.6-0.9,2.7-1.1,3.2l-0.9-1.2l1-2.7L261.7,185.6z M262.6,184.9l0.3,0.4
		c0.3,0.3,0.5,0.6,0.7,0.6c0.2,0.1,0.5,0,0.7-0.2c0.2-0.2,0.4-0.4,0.3-0.6c0-0.2-0.2-0.5-0.4-0.9l-0.2-0.3L262.6,184.9z"/>
	<path class="st1" d="M264.5,194l1-1.2l-1.2-2l-1.5,0.4l-0.8-1.2l6.7-1.5l0.9,1.4l-4.3,5.3L264.5,194z M266.3,191.9
		c0.9-1.1,1.5-1.7,1.6-1.9s0.2-0.3,0.3-0.3c-0.4,0.1-1.3,0.4-2.8,0.8L266.3,191.9z"/>
	<path class="st1" d="M266.7,198.1l-0.6-1.2l4.7-2.4l-0.8-1.6l1-0.5l2.2,4.3l-1,0.5l-0.8-1.6L266.7,198.1z"/>
	<path class="st1" d="M267.8,200.4l5.9-2.6l0.6,1.2l-5.9,2.6L267.8,200.4z"/>
	<path class="st1" d="M274,207.5c-1,0.4-1.9,0.4-2.6,0.1c-0.7-0.3-1.2-0.9-1.6-1.8s-0.3-1.7,0-2.4s1-1.2,2.1-1.6
		c1-0.4,1.9-0.4,2.6-0.1c0.7,0.3,1.2,0.9,1.6,1.9c0.3,0.9,0.3,1.7,0,2.4C275.7,206.6,275,207.1,274,207.5z M272.4,203.1
		c-0.7,0.2-1.1,0.6-1.4,0.9c-0.2,0.4-0.3,0.8-0.1,1.3c0.4,1,1.2,1.3,2.6,0.8c1.4-0.5,1.9-1.2,1.5-2.3c-0.2-0.5-0.5-0.8-0.9-1
		C273.6,202.8,273.1,202.8,272.4,203.1z"/>
	<path class="st1" d="M272.6,215.2l-0.4-1.7l4.1-3.9l0,0c-0.8,0.3-1.4,0.4-1.8,0.5l-2.9,0.7l-0.3-1.2l6.2-1.5l0.4,1.7l-4,3.9l0,0
		c0.8-0.2,1.4-0.4,1.7-0.5l3-0.7l0.3,1.2L272.6,215.2z"/>
</g>
<g>
	<path class="st1" d="M146.2,271.6l-0.9-1.5l2.6-5l0,0c-0.7,0.5-1.2,0.9-1.5,1.1l-2.5,1.6l-0.7-1l5.4-3.5l0.9,1.4l-2.5,5l0,0
		c0.7-0.5,1.2-0.8,1.5-1l2.6-1.7l0.7,1L146.2,271.6z"/>
	<path class="st1" d="M153.6,275.8c-0.8,0.7-1.6,1-2.4,0.9c-0.8-0.1-1.5-0.5-2.1-1.2c-0.6-0.8-0.9-1.5-0.8-2.3
		c0.1-0.8,0.6-1.5,1.4-2.2s1.6-1,2.4-0.9c0.8,0.1,1.5,0.5,2.1,1.2c0.6,0.8,0.9,1.5,0.8,2.3C154.9,274.4,154.4,275.1,153.6,275.8z
		 M150.6,272.1c-0.6,0.4-0.9,0.9-1,1.3c-0.1,0.4,0,0.9,0.3,1.3c0.7,0.8,1.6,0.8,2.7-0.1c1.1-0.9,1.4-1.8,0.7-2.6
		c-0.3-0.4-0.7-0.6-1.2-0.6C151.7,271.4,151.2,271.7,150.6,272.1z"/>
	<path class="st1" d="M154.2,281l2.5-4.7l0,0c-0.7,0.8-1.1,1.3-1.4,1.5l-2.1,2.1l-0.9-0.9l4.5-4.6l1.3,1.3l-2.4,4.6l0,0l4.6-2.3
		l1.3,1.3l-4.5,4.6l-0.9-0.9l2.1-2.2c0.1-0.1,0.2-0.2,0.4-0.3c0.1-0.1,0.5-0.5,1.1-1l0,0l-4.7,2.4L154.2,281z"/>
	<path class="st1" d="M158.6,285.2l4.1-4.9l1,0.9l-4.1,4.9L158.6,285.2z"/>
	<path class="st1" d="M165.7,290.7l-1.4-1l0.6-5.6l0,0c-0.5,0.7-0.8,1.2-1,1.5l-1.8,2.4l-1-0.7l3.8-5.2l1.4,1l-0.6,5.5l0,0
		c0.5-0.7,0.8-1.2,1-1.5l1.8-2.5l1,0.7L165.7,290.7z"/>
	<path class="st1" d="M170.6,293.6l-3.2-1.9l3.3-5.5l3.2,1.9l-0.6,1l-2-1.2l-0.7,1.2l1.9,1.1l-0.6,1L170,290l-0.9,1.4l2,1.2
		L170.6,293.6z"/>
	<path class="st1" d="M175.3,296.1l-3.3-1.7l2.9-5.7l3.3,1.7l-0.5,1l-2.1-1.1l-0.6,1.3l1.9,1l-0.5,1l-1.9-1l-0.7,1.5l2.1,1.1
		L175.3,296.1z"/>
	<path class="st1" d="M184.7,299.8l-1.6-0.6l-0.3-0.6c-0.7,0.2-1.3,0.1-2-0.1c-0.7-0.2-1.1-0.6-1.4-1s-0.3-0.9-0.1-1.5
		c0.1-0.4,0.3-0.7,0.6-0.9s0.6-0.4,1.1-0.4c-0.1-0.3-0.2-0.6-0.2-0.8c0-0.2,0-0.5,0.1-0.8c0.2-0.4,0.4-0.7,0.8-0.8s0.9-0.1,1.4,0.1
		c0.5,0.2,0.9,0.5,1.1,0.8s0.3,0.7,0.1,1.1c-0.1,0.3-0.3,0.6-0.6,0.8c-0.3,0.2-0.7,0.3-1.2,0.4l0.8,1.6c0.3-0.3,0.6-0.6,1-1.1
		l1.3,0.5c-0.2,0.3-0.5,0.6-0.8,0.9s-0.6,0.5-0.9,0.7L184.7,299.8z M180.7,296.3c-0.1,0.2-0.1,0.5,0.1,0.7s0.3,0.4,0.6,0.5
		c0.3,0.1,0.7,0.2,1,0.1l-0.9-1.9c-0.2,0.1-0.4,0.1-0.5,0.2C180.8,296,180.7,296.2,180.7,296.3z M183.2,293.9c0.1-0.1,0-0.3,0-0.4
		c-0.1-0.1-0.2-0.2-0.3-0.3c-0.2-0.1-0.3-0.1-0.5,0c-0.1,0-0.2,0.2-0.3,0.3c-0.1,0.2-0.1,0.6,0.1,0.9c0.3,0,0.5-0.1,0.7-0.2
		C183,294.2,183.1,294.1,183.2,293.9z"/>
	<path class="st1" d="M193.5,297.4c-0.2,0.7-0.5,1.1-1,1.4c-0.5,0.3-1.1,0.3-1.9,0.1l-0.6-0.1l-0.5,2.2l-1.3-0.3l1.4-6.3l2,0.5
		c0.8,0.2,1.3,0.5,1.6,0.9S193.7,296.8,193.5,297.4z M190.3,297.7l0.4,0.1c0.4,0.1,0.7,0.1,1,0c0.2-0.1,0.4-0.3,0.5-0.6
		c0.1-0.3,0-0.6-0.1-0.7c-0.1-0.2-0.4-0.3-0.7-0.4l-0.6-0.1L190.3,297.7z"/>
	<path class="st1" d="M194.1,302l0.9-6.4l1.3,0.2l-0.8,5.2l2.6,0.4l-0.2,1.1L194.1,302z"/>
	<path class="st1" d="M203.4,303l-0.4-1.6l-2.3-0.2l-0.6,1.5l-1.5-0.1l2.7-6.3l1.7,0.1l1.9,6.6L203.4,303z M202.8,300.2
		c-0.3-1.4-0.5-2.2-0.6-2.4c0-0.2-0.1-0.3-0.1-0.4c-0.1,0.4-0.5,1.3-1,2.7L202.8,300.2z"/>
	<path class="st1" d="M208.5,303l-1.4,0l-0.1-5.3l-1.7,0l0-1.1l4.9-0.1l0,1.1l-1.7,0L208.5,303z"/>
	<path class="st1" d="M212.8,302.7l-1.3,0.1l-0.6-6.4l3.7-0.3l0.1,1.1l-2.3,0.2l0.1,1.7l2.2-0.2l0.1,1.1l-2.2,0.2L212.8,302.7z"/>
	<path class="st1" d="M221.9,298.2c0.2,1,0.1,1.9-0.3,2.6c-0.4,0.7-1.1,1.1-2.1,1.2c-1,0.2-1.8,0-2.4-0.4c-0.6-0.5-1-1.2-1.2-2.3
		c-0.2-1.1-0.1-1.9,0.4-2.6c0.4-0.6,1.1-1.1,2.1-1.2c1-0.2,1.8,0,2.4,0.4C221.3,296.3,221.7,297.1,221.9,298.2z M217.3,299
		c0.1,0.7,0.4,1.2,0.7,1.5c0.3,0.3,0.8,0.4,1.3,0.3c1.1-0.2,1.5-1,1.2-2.4c-0.3-1.4-0.9-2-2-1.9c-0.5,0.1-0.9,0.3-1.1,0.8
		S217.2,298.3,217.3,299z"/>
	<path class="st1" d="M224.8,298.2l0.7,2.4l-1.3,0.4l-1.7-6.2l1.8-0.5c0.8-0.2,1.5-0.3,2-0.1c0.5,0.2,0.8,0.6,1,1.2
		c0.1,0.4,0.1,0.7,0,1.1c-0.1,0.3-0.3,0.6-0.7,0.9c1.3,1.1,2.2,1.9,2.6,2.2l-1.5,0.4l-2.1-2L224.8,298.2z M224.5,297.1l0.4-0.1
		c0.4-0.1,0.7-0.3,0.9-0.5s0.2-0.4,0.1-0.7c-0.1-0.3-0.2-0.5-0.5-0.5c-0.2-0.1-0.6,0-1,0.1l-0.4,0.1L224.5,297.1z"/>
	<path class="st1" d="M232.8,298.2l-3.3-4.1l0,0c0.4,0.9,0.7,1.6,0.8,1.9l1.1,2.8l-1.1,0.4l-2.4-6l1.7-0.7l3.2,4l0,0l-0.3-5.2
		l1.7-0.7l2.4,6l-1.2,0.5l-1.1-2.8c-0.1-0.1-0.1-0.3-0.2-0.5c-0.1-0.2-0.2-0.6-0.5-1.4l0,0l0.3,5.3L232.8,298.2z"/>
	<path class="st1" d="M243.1,291.2c0.3,0.5,0.3,1,0.1,1.5c-0.2,0.5-0.6,0.9-1.3,1.3c-0.6,0.3-1.2,0.5-1.8,0.5l-0.6-1.1
		c0.5,0,0.9-0.1,1.2-0.2c0.3-0.1,0.6-0.2,0.8-0.3c0.3-0.1,0.4-0.3,0.5-0.5c0.1-0.2,0.1-0.4,0-0.6c-0.1-0.1-0.1-0.2-0.3-0.2
		s-0.2-0.1-0.4-0.1c-0.2,0-0.5,0-0.9,0c-0.4,0-0.8,0-1,0c-0.3-0.1-0.5-0.1-0.7-0.3c-0.2-0.1-0.4-0.3-0.5-0.6c-0.3-0.5-0.3-1-0.1-1.5
		s0.6-0.9,1.2-1.2c0.3-0.2,0.6-0.3,0.9-0.4c0.3-0.1,0.6-0.1,1-0.2l0.1,1.1c-0.4,0-0.7,0.1-0.9,0.2c-0.2,0.1-0.4,0.1-0.6,0.2
		c-0.2,0.1-0.4,0.3-0.4,0.4c-0.1,0.2,0,0.3,0,0.5c0.1,0.1,0.1,0.2,0.2,0.2c0.1,0.1,0.2,0.1,0.4,0.1c0.1,0,0.5,0,1,0
		c0.7,0,1.2,0,1.5,0.2C242.7,290.6,242.9,290.8,243.1,291.2z"/>
	<path class="st1" d="M248.3,290l-3.1,2l-3.5-5.4l3.1-2l0.6,0.9l-2,1.3l0.8,1.2l1.8-1.2l0.6,0.9l-1.8,1.2l0.9,1.4l2-1.3L248.3,290z"
		/>
	<path class="st1" d="M249.3,286.2l1.5,2l-1.1,0.8l-3.9-5.1l1.5-1.1c0.7-0.5,1.3-0.8,1.8-0.8c0.5,0,1,0.2,1.4,0.8
		c0.2,0.3,0.4,0.6,0.4,1s-0.1,0.7-0.3,1.1c1.6,0.6,2.7,0.9,3.2,1.1l-1.2,0.9l-2.7-1L249.3,286.2z M248.6,285.3l0.3-0.3
		c0.3-0.3,0.5-0.5,0.6-0.8c0.1-0.2,0-0.5-0.2-0.7c-0.2-0.2-0.4-0.3-0.6-0.3c-0.2,0-0.5,0.2-0.9,0.4l-0.3,0.3L248.6,285.3z"/>
	<path class="st1" d="M253,277.9l1-0.9l2.7,6.2l-1.1,1l-5.9-3.3l1-0.9l3.5,2c0.2,0.1,0.4,0.3,0.7,0.4c0.3,0.2,0.4,0.3,0.5,0.4
		c-0.2-0.2-0.4-0.6-0.7-1.3L253,277.9z"/>
	<path class="st1" d="M259,280.9l-4.6-4.5l0.9-1l4.6,4.5L259,280.9z"/>
	<path class="st1" d="M258.9,273c-0.3,0.4-0.4,0.8-0.3,1.3s0.4,0.9,1,1.4c1.1,0.9,2,1,2.7,0.2c0.3-0.3,0.6-0.8,0.8-1.5l0.9,0.7
		c-0.2,0.5-0.5,1.1-0.9,1.6c-0.6,0.7-1.3,1.1-2,1.1c-0.8,0-1.5-0.3-2.3-1c-0.5-0.4-0.9-0.9-1.1-1.4s-0.3-1-0.2-1.5
		c0.1-0.5,0.3-1,0.7-1.5c0.4-0.5,0.9-0.9,1.6-1.1l0.6,1.1c-0.2,0.1-0.5,0.2-0.7,0.4C259.3,272.7,259.1,272.8,258.9,273z"/>
	<path class="st1" d="M267.3,270.9l-2.2,3l-5.2-3.8l2.2-3l0.9,0.7l-1.4,1.9l1.1,0.8l1.3-1.8l0.9,0.7l-1.3,1.8l1.3,1l1.4-1.9
		L267.3,270.9z"/>
	<path class="st1" d="M268.7,265.4c0.5,0.3,0.8,0.7,0.8,1.3c0.1,0.5-0.1,1.1-0.5,1.7c-0.4,0.6-0.8,1-1.3,1.3l-1.1-0.7
		c0.4-0.3,0.7-0.5,0.9-0.7c0.2-0.2,0.4-0.4,0.5-0.6c0.2-0.3,0.2-0.5,0.2-0.7c0-0.2-0.1-0.4-0.3-0.5c-0.1-0.1-0.2-0.1-0.3-0.1
		s-0.3,0-0.4,0.1c-0.1,0.1-0.4,0.2-0.8,0.5c-0.4,0.2-0.7,0.4-0.9,0.5c-0.2,0.1-0.5,0.1-0.8,0.1c-0.3,0-0.5-0.1-0.8-0.3
		c-0.5-0.3-0.8-0.7-0.8-1.2c-0.1-0.5,0.1-1,0.4-1.6c0.2-0.3,0.4-0.5,0.6-0.7c0.2-0.2,0.5-0.4,0.8-0.6l0.7,0.9
		c-0.3,0.2-0.5,0.4-0.7,0.6c-0.2,0.2-0.3,0.3-0.4,0.5c-0.1,0.2-0.2,0.4-0.2,0.6c0,0.2,0.1,0.3,0.3,0.4c0.1,0.1,0.2,0.1,0.3,0.1
		c0.1,0,0.2,0,0.4-0.1c0.1-0.1,0.4-0.2,0.8-0.5c0.6-0.4,1-0.6,1.4-0.6C268,265.1,268.3,265.2,268.7,265.4z"/>
</g>
<linearGradient id="SVGID_1_" gradientUnits="userSpaceOnUse" x1="164.4374" y1="270.7759" x2="248.6221" y2="186.5912">
	<stop  offset="0.2921" style="stop-color:#0258A1"/>
	<stop  offset="0.8" style="stop-color:#087BC0"/>
</linearGradient>
<circle class="st2" cx="206.5" cy="228.7" r="59.5"/>
<g>
	<path class="st1" d="M175.8,237.4v-7.1h1.5v7.1H175.8z"/>
	<path class="st1" d="M185.3,237.4h-1.9l-3.1-5.4h0c0.1,1,0.1,1.6,0.1,2v3.4H179v-7.1h1.9l3.1,5.3h0c0-0.9-0.1-1.6-0.1-2v-3.4h1.4
		V237.4z"/>
	<path class="st1" d="M191.2,230.2h1.5l-2.4,7.1h-1.6l-2.4-7.1h1.5l1.3,4.2c0.1,0.2,0.2,0.5,0.2,0.9c0.1,0.3,0.1,0.6,0.1,0.7
		c0-0.3,0.2-0.8,0.4-1.6L191.2,230.2z"/>
	<path class="st1" d="M197.6,237.4h-4.1v-7.1h4.1v1.2h-2.6v1.6h2.4v1.2h-2.4v1.8h2.6V237.4z"/>
	<path class="st1" d="M203.3,235.4c0,0.6-0.2,1.2-0.7,1.5c-0.5,0.4-1.1,0.6-1.9,0.6c-0.8,0-1.4-0.1-2-0.4v-1.4
		c0.5,0.2,0.9,0.4,1.2,0.5s0.6,0.1,0.9,0.1c0.3,0,0.6-0.1,0.8-0.2c0.2-0.1,0.3-0.3,0.3-0.6c0-0.1,0-0.3-0.1-0.4
		c-0.1-0.1-0.2-0.2-0.3-0.3c-0.2-0.1-0.5-0.3-0.9-0.5c-0.4-0.2-0.8-0.4-1-0.6c-0.2-0.2-0.4-0.4-0.5-0.7c-0.1-0.3-0.2-0.5-0.2-0.9
		c0-0.6,0.2-1.1,0.6-1.5s1-0.5,1.8-0.5c0.4,0,0.7,0,1.1,0.1c0.3,0.1,0.7,0.2,1,0.4l-0.5,1.2c-0.4-0.2-0.7-0.3-0.9-0.3
		c-0.2-0.1-0.5-0.1-0.7-0.1c-0.3,0-0.5,0.1-0.7,0.2c-0.2,0.1-0.2,0.3-0.2,0.5c0,0.1,0,0.2,0.1,0.3c0.1,0.1,0.2,0.2,0.3,0.3
		c0.1,0.1,0.5,0.3,1,0.5c0.7,0.3,1.1,0.6,1.4,1C203.2,234.5,203.3,234.9,203.3,235.4z"/>
	<path class="st1" d="M207.3,237.4h-1.5v-5.9h-1.9v-1.3h5.4v1.3h-1.9V237.4z"/>
	<path class="st1" d="M213.3,237.4l-1.7-5.6h0c0.1,1.1,0.1,1.9,0.1,2.3v3.3h-1.3v-7.1h2l1.7,5.5h0l1.8-5.5h2v7.1h-1.4V234
		c0-0.2,0-0.3,0-0.6c0-0.2,0-0.8,0.1-1.7h0l-1.8,5.6H213.3z"/>
	<path class="st1" d="M223.8,237.4h-4.1v-7.1h4.1v1.2h-2.6v1.6h2.4v1.2h-2.4v1.8h2.6V237.4z"/>
	<path class="st1" d="M231.6,237.4h-1.9l-3.1-5.4h0c0.1,1,0.1,1.6,0.1,2v3.4h-1.3v-7.1h1.9l3.1,5.3h0c0-0.9-0.1-1.6-0.1-2v-3.4h1.4
		V237.4z"/>
	<path class="st1" d="M236.1,237.4h-1.5v-5.9h-1.9v-1.3h5.4v1.3h-1.9V237.4z"/>
	<path class="st1" d="M185.2,245.4c0,0.6-0.2,1.2-0.7,1.5c-0.5,0.4-1.1,0.6-1.9,0.6c-0.8,0-1.4-0.1-2-0.4v-1.4
		c0.5,0.2,0.9,0.4,1.2,0.5s0.6,0.1,0.9,0.1c0.3,0,0.6-0.1,0.8-0.2c0.2-0.1,0.3-0.3,0.3-0.6c0-0.1,0-0.3-0.1-0.4
		c-0.1-0.1-0.2-0.2-0.3-0.3c-0.2-0.1-0.5-0.3-0.9-0.5c-0.4-0.2-0.8-0.4-1-0.6c-0.2-0.2-0.4-0.4-0.5-0.7c-0.1-0.3-0.2-0.5-0.2-0.9
		c0-0.6,0.2-1.1,0.6-1.5s1-0.5,1.8-0.5c0.4,0,0.7,0,1.1,0.1c0.3,0.1,0.7,0.2,1,0.4l-0.5,1.2c-0.4-0.2-0.7-0.3-0.9-0.3
		c-0.2-0.1-0.5-0.1-0.7-0.1c-0.3,0-0.5,0.1-0.7,0.2c-0.2,0.1-0.2,0.3-0.2,0.5c0,0.1,0,0.2,0.1,0.3c0.1,0.1,0.2,0.2,0.3,0.3
		c0.1,0.1,0.5,0.3,1,0.5c0.7,0.3,1.1,0.6,1.4,1C185.1,244.5,185.2,244.9,185.2,245.4z"/>
	<path class="st1" d="M190.8,247.4l-0.5-1.7h-2.6l-0.5,1.7h-1.6l2.5-7.2h1.8l2.5,7.2H190.8z M190,244.4c-0.5-1.5-0.7-2.4-0.8-2.6
		c-0.1-0.2-0.1-0.4-0.1-0.5c-0.1,0.4-0.4,1.4-0.9,3.1H190z"/>
	<path class="st1" d="M197.4,240.2h1.5l-2.4,7.1h-1.6l-2.4-7.1h1.5l1.3,4.2c0.1,0.2,0.2,0.5,0.2,0.9c0.1,0.3,0.1,0.6,0.1,0.7
		c0-0.3,0.2-0.8,0.4-1.6L197.4,240.2z"/>
	<path class="st1" d="M199.8,247.4v-7.1h1.5v7.1H199.8z"/>
	<path class="st1" d="M209.4,247.4h-1.9l-3.1-5.4h0c0.1,1,0.1,1.6,0.1,2v3.4h-1.3v-7.1h1.9l3.1,5.3h0c0-0.9-0.1-1.6-0.1-2v-3.4h1.4
		V247.4z"/>
	<path class="st1" d="M213.8,243.4h2.8v3.7c-0.5,0.1-0.9,0.3-1.3,0.3c-0.4,0.1-0.8,0.1-1.2,0.1c-1.1,0-1.9-0.3-2.5-1
		c-0.6-0.6-0.8-1.5-0.8-2.7c0-1.2,0.3-2.1,1-2.7s1.6-1,2.7-1c0.7,0,1.4,0.1,2.1,0.4l-0.5,1.2c-0.5-0.3-1.1-0.4-1.6-0.4
		c-0.6,0-1.2,0.2-1.6,0.7c-0.4,0.4-0.6,1-0.6,1.8c0,0.8,0.2,1.4,0.5,1.8c0.3,0.4,0.8,0.6,1.4,0.6c0.3,0,0.6,0,1-0.1v-1.5h-1.3V243.4
		z"/>
	<path class="st1" d="M222.5,245.4c0,0.6-0.2,1.2-0.7,1.5c-0.5,0.4-1.1,0.6-1.9,0.6c-0.8,0-1.4-0.1-2-0.4v-1.4
		c0.5,0.2,0.9,0.4,1.2,0.5s0.6,0.1,0.9,0.1c0.3,0,0.6-0.1,0.8-0.2c0.2-0.1,0.3-0.3,0.3-0.6c0-0.1,0-0.3-0.1-0.4
		c-0.1-0.1-0.2-0.2-0.3-0.3c-0.2-0.1-0.5-0.3-0.9-0.5c-0.4-0.2-0.8-0.4-1-0.6c-0.2-0.2-0.4-0.4-0.5-0.7c-0.1-0.3-0.2-0.5-0.2-0.9
		c0-0.6,0.2-1.1,0.6-1.5s1-0.5,1.8-0.5c0.4,0,0.7,0,1.1,0.1c0.3,0.1,0.7,0.2,1,0.4l-0.5,1.2c-0.4-0.2-0.7-0.3-0.9-0.3
		c-0.2-0.1-0.5-0.1-0.7-0.1c-0.3,0-0.5,0.1-0.7,0.2c-0.2,0.1-0.2,0.3-0.2,0.5c0,0.1,0,0.2,0.1,0.3c0.1,0.1,0.2,0.2,0.3,0.3
		c0.1,0.1,0.5,0.3,1,0.5c0.7,0.3,1.1,0.6,1.4,1C222.4,244.5,222.5,244.9,222.5,245.4z"/>
	<path class="st1" d="M232.9,247.4h-1.8l-0.6-0.6c-0.6,0.4-1.3,0.6-2.1,0.6c-0.8,0-1.4-0.2-1.9-0.5c-0.5-0.4-0.7-0.9-0.7-1.5
		c0-0.4,0.1-0.8,0.3-1.1c0.2-0.3,0.5-0.6,1-0.9c-0.2-0.3-0.4-0.5-0.5-0.8c-0.1-0.3-0.2-0.5-0.2-0.8c0-0.5,0.2-0.9,0.6-1.2
		c0.4-0.3,0.9-0.5,1.5-0.5c0.6,0,1.1,0.1,1.4,0.4c0.4,0.3,0.5,0.7,0.5,1.1c0,0.4-0.1,0.7-0.3,1.1c-0.2,0.3-0.6,0.6-1.1,0.9l1.4,1.4
		c0.2-0.4,0.4-0.9,0.6-1.5h1.5c-0.1,0.4-0.3,0.9-0.5,1.3c-0.2,0.4-0.4,0.8-0.7,1.1L232.9,247.4z M227.4,245.3c0,0.3,0.1,0.5,0.3,0.7
		c0.2,0.2,0.5,0.2,0.8,0.2c0.4,0,0.8-0.1,1.1-0.3l-1.6-1.6c-0.2,0.1-0.3,0.3-0.4,0.4S227.4,245.1,227.4,245.3z M229.2,241.8
		c0-0.2-0.1-0.3-0.2-0.4c-0.1-0.1-0.3-0.1-0.5-0.1c-0.2,0-0.4,0.1-0.5,0.2c-0.1,0.1-0.2,0.3-0.2,0.4c0,0.3,0.2,0.6,0.5,0.9
		c0.3-0.2,0.5-0.3,0.6-0.5S229.2,242,229.2,241.8z"/>
	<path class="st1" d="M177.9,254.6v2.7h-1.5v-7.1h2.1c1,0,1.7,0.2,2.1,0.5c0.5,0.4,0.7,0.9,0.7,1.6c0,0.4-0.1,0.8-0.3,1.1
		s-0.6,0.6-1,0.8c1.1,1.6,1.8,2.6,2.1,3.1h-1.7l-1.7-2.7H177.9z M177.9,253.4h0.5c0.5,0,0.8-0.1,1.1-0.2c0.2-0.2,0.3-0.4,0.3-0.8
		c0-0.3-0.1-0.6-0.3-0.7c-0.2-0.1-0.6-0.2-1.1-0.2h-0.5V253.4z"/>
	<path class="st1" d="M187.1,257.4H183v-7.1h4.1v1.2h-2.6v1.6h2.4v1.2h-2.4v1.8h2.6V257.4z"/>
	<path class="st1" d="M191.3,257.4h-1.5v-5.9h-1.9v-1.3h5.4v1.3h-1.9V257.4z"/>
	<path class="st1" d="M194.3,257.4v-7.1h1.5v7.1H194.3z"/>
	<path class="st1" d="M199.1,254.6v2.7h-1.5v-7.1h2.1c1,0,1.7,0.2,2.1,0.5c0.5,0.4,0.7,0.9,0.7,1.6c0,0.4-0.1,0.8-0.3,1.1
		s-0.6,0.6-1,0.8c1.1,1.6,1.8,2.6,2.1,3.1h-1.7l-1.7-2.7H199.1z M199.1,253.4h0.5c0.5,0,0.8-0.1,1.1-0.2c0.2-0.2,0.3-0.4,0.3-0.8
		c0-0.3-0.1-0.6-0.3-0.7c-0.2-0.1-0.6-0.2-1.1-0.2h-0.5V253.4z"/>
	<path class="st1" d="M208.2,257.4h-4.1v-7.1h4.1v1.2h-2.6v1.6h2.4v1.2h-2.4v1.8h2.6V257.4z"/>
	<path class="st1" d="M212.7,257.4l-1.7-5.6h0c0.1,1.1,0.1,1.9,0.1,2.3v3.3h-1.3v-7.1h2l1.7,5.5h0l1.8-5.5h2v7.1h-1.4V254
		c0-0.2,0-0.3,0-0.6c0-0.2,0-0.8,0.1-1.7h0l-1.8,5.6H212.7z"/>
	<path class="st1" d="M223.1,257.4H219v-7.1h4.1v1.2h-2.6v1.6h2.4v1.2h-2.4v1.8h2.6V257.4z"/>
	<path class="st1" d="M230.9,257.4H229l-3.1-5.4h0c0.1,1,0.1,1.6,0.1,2v3.4h-1.3v-7.1h1.9l3.1,5.3h0c0-0.9-0.1-1.6-0.1-2v-3.4h1.4
		V257.4z"/>
	<path class="st1" d="M235.4,257.4h-1.5v-5.9H232v-1.3h5.4v1.3h-1.9V257.4z"/>
	<path class="st1" d="M183.1,265.4c0,0.6-0.2,1.2-0.7,1.5c-0.5,0.4-1.1,0.6-1.9,0.6c-0.8,0-1.4-0.1-2-0.4v-1.4
		c0.5,0.2,0.9,0.4,1.2,0.5s0.6,0.1,0.9,0.1c0.3,0,0.6-0.1,0.8-0.2c0.2-0.1,0.3-0.3,0.3-0.6c0-0.1,0-0.3-0.1-0.4
		c-0.1-0.1-0.2-0.2-0.3-0.3c-0.2-0.1-0.5-0.3-0.9-0.5c-0.4-0.2-0.8-0.4-1-0.6c-0.2-0.2-0.4-0.4-0.5-0.7c-0.1-0.3-0.2-0.5-0.2-0.9
		c0-0.6,0.2-1.1,0.6-1.5s1-0.5,1.8-0.5c0.4,0,0.7,0,1.1,0.1c0.3,0.1,0.7,0.2,1,0.4l-0.5,1.2c-0.4-0.2-0.7-0.3-0.9-0.3
		c-0.2-0.1-0.5-0.1-0.7-0.1c-0.3,0-0.5,0.1-0.7,0.2c-0.2,0.1-0.2,0.3-0.2,0.5c0,0.1,0,0.2,0.1,0.3c0.1,0.1,0.2,0.2,0.3,0.3
		c0.1,0.1,0.5,0.3,1,0.5c0.7,0.3,1.1,0.6,1.4,1C183,264.5,183.1,264.9,183.1,265.4z"/>
	<path class="st1" d="M190.8,263.8c0,1.2-0.3,2.1-0.9,2.7s-1.4,1-2.5,1c-1.1,0-1.9-0.3-2.5-1c-0.6-0.6-0.9-1.5-0.9-2.7
		c0-1.2,0.3-2.1,0.9-2.7c0.6-0.6,1.4-0.9,2.5-0.9c1.1,0,1.9,0.3,2.5,0.9C190.6,261.7,190.8,262.6,190.8,263.8z M185.7,263.8
		c0,0.8,0.2,1.4,0.5,1.8c0.3,0.4,0.7,0.6,1.3,0.6c1.2,0,1.8-0.8,1.8-2.4c0-1.6-0.6-2.4-1.8-2.4c-0.6,0-1,0.2-1.4,0.6
		C185.8,262.4,185.7,263,185.7,263.8z"/>
	<path class="st1" d="M192.3,267.4v-7.1h1.5v5.9h2.9v1.2H192.3z"/>
	<path class="st1" d="M203.7,260.2v4.6c0,0.5-0.1,1-0.4,1.4c-0.2,0.4-0.6,0.7-1,0.9c-0.4,0.2-1,0.3-1.6,0.3c-0.9,0-1.6-0.2-2.1-0.7
		c-0.5-0.5-0.8-1.1-0.8-1.9v-4.6h1.5v4.4c0,0.5,0.1,1,0.3,1.2c0.2,0.3,0.6,0.4,1.1,0.4c0.5,0,0.8-0.1,1.1-0.4
		c0.2-0.3,0.3-0.7,0.3-1.2v-4.4H203.7z"/>
	<path class="st1" d="M208.2,267.4h-1.5v-5.9h-1.9v-1.3h5.4v1.3h-1.9V267.4z"/>
	<path class="st1" d="M211.2,267.4v-7.1h1.5v7.1H211.2z"/>
	<path class="st1" d="M220.9,263.8c0,1.2-0.3,2.1-0.9,2.7s-1.4,1-2.5,1c-1.1,0-1.9-0.3-2.5-1c-0.6-0.6-0.9-1.5-0.9-2.7
		c0-1.2,0.3-2.1,0.9-2.7c0.6-0.6,1.4-0.9,2.5-0.9c1.1,0,1.9,0.3,2.5,0.9C220.6,261.7,220.9,262.6,220.9,263.8z M215.7,263.8
		c0,0.8,0.2,1.4,0.5,1.8c0.3,0.4,0.7,0.6,1.3,0.6c1.2,0,1.8-0.8,1.8-2.4c0-1.6-0.6-2.4-1.8-2.4c-0.6,0-1,0.2-1.4,0.6
		C215.9,262.4,215.7,263,215.7,263.8z"/>
	<path class="st1" d="M228.6,267.4h-1.9l-3.1-5.4h0c0.1,1,0.1,1.6,0.1,2v3.4h-1.3v-7.1h1.9l3.1,5.3h0c0-0.9-0.1-1.6-0.1-2v-3.4h1.4
		V267.4z"/>
	<path class="st1" d="M234.6,265.4c0,0.6-0.2,1.2-0.7,1.5c-0.5,0.4-1.1,0.6-1.9,0.6c-0.8,0-1.4-0.1-2-0.4v-1.4
		c0.5,0.2,0.9,0.4,1.2,0.5s0.6,0.1,0.9,0.1c0.3,0,0.6-0.1,0.8-0.2c0.2-0.1,0.3-0.3,0.3-0.6c0-0.1,0-0.3-0.1-0.4
		c-0.1-0.1-0.2-0.2-0.3-0.3c-0.2-0.1-0.5-0.3-0.9-0.5c-0.4-0.2-0.8-0.4-1-0.6c-0.2-0.2-0.4-0.4-0.5-0.7c-0.1-0.3-0.2-0.5-0.2-0.9
		c0-0.6,0.2-1.1,0.6-1.5s1-0.5,1.8-0.5c0.4,0,0.7,0,1.1,0.1c0.3,0.1,0.7,0.2,1,0.4l-0.5,1.2c-0.4-0.2-0.7-0.3-0.9-0.3
		c-0.2-0.1-0.5-0.1-0.7-0.1c-0.3,0-0.5,0.1-0.7,0.2c-0.2,0.1-0.2,0.3-0.2,0.5c0,0.1,0,0.2,0.1,0.3c0.1,0.1,0.2,0.2,0.3,0.3
		c0.1,0.1,0.5,0.3,1,0.5c0.7,0.3,1.1,0.6,1.4,1C234.5,264.5,234.6,264.9,234.6,265.4z"/>
</g>
<path class="st1" d="M242.3,201.1C242.3,201.1,242.3,201.1,242.3,201.1c0,0.4-0.2,0.7-0.6,1.3l-1,1.1c0-0.1,0-0.2,0-0.3
	c0-0.5-0.2-0.9-0.4-1.3c-0.1-0.2-0.7-0.8-0.7-0.8s0.5-0.6,0.7-0.8c0.3-0.4,0.4-0.8,0.4-1.3c0-0.1,0-0.2,0-0.3l1,1.1
	C242.2,200.3,242.3,200.7,242.3,201.1C242.3,201.1,242.3,201.1,242.3,201.1z M235.8,205.5c0.2,0.2,0.5,0.3,0.8,0.5
	c0.3,0.1,0.6,0.2,1,0.2c0.4,0,0.7-0.1,0.9-0.2c0.3-0.2,0.5-0.4,0.8-0.7l0.8-1l0-0.1c0.2-0.3,0.3-0.6,0.3-1c0-0.4-0.1-0.8-0.4-1.1
	c-0.2-0.2-0.7-0.8-0.7-0.8L235.8,205.5z M239.4,200.8c0,0,0.5-0.5,0.7-0.8c0.2-0.3,0.4-0.7,0.4-1.1c0-0.4-0.1-0.7-0.3-1l0-0.1
	l-0.8-1c-0.3-0.3-0.5-0.5-0.8-0.7c-0.2-0.2-0.5-0.2-0.9-0.2c-0.4,0-0.7,0.1-1,0.2c-0.3,0.1-0.5,0.3-0.8,0.5L239.4,200.8z
	 M217.3,213.7C217.3,213.7,217.3,213.7,217.3,213.7c-0.1,0-0.1,0-0.1,0c0,0,0,0-0.1,0c-0.1,0-0.2,0-0.3,0.1
	c-0.1,0.1-0.2,0.1-0.2,0.3c-0.1-0.1-0.2-0.2-0.4-0.3c-0.2-0.1-0.4-0.1-0.6-0.1c-0.2,0-0.4,0-0.6,0.1c-0.2,0.1-0.4,0.2-0.5,0.4
	c-0.1,0.2-0.3,0.4-0.3,0.6c-0.1,0.3-0.1,0.6-0.1,0.9c0,0.4,0,0.7,0.1,0.9c0.1,0.2,0.2,0.4,0.3,0.6c0.1,0.1,0.3,0.3,0.5,0.3
	c0.2,0.1,0.4,0.1,0.6,0.1c0.1,0,0.3,0,0.4,0c0.1,0,0.2-0.1,0.3-0.1c0.1,0,0.2-0.1,0.2-0.1c0.1-0.1,0.1-0.1,0.2-0.1v0.1
	c0,0.2,0,0.4,0,0.6c0,0.2-0.1,0.3-0.2,0.5c-0.1,0.1-0.2,0.2-0.3,0.3s-0.3,0.1-0.6,0.1c-0.2,0-0.3,0-0.4-0.1c-0.1,0-0.2-0.1-0.3-0.1
	c-0.1-0.1-0.2-0.1-0.2-0.1c-0.1,0-0.1-0.1-0.1-0.1c0,0.1-0.1,0.1-0.2,0.2s-0.1,0.2-0.1,0.2c0,0.1,0,0.1,0.1,0.2
	c0,0.1,0.1,0.1,0.2,0.2c0.1,0.1,0.3,0.1,0.5,0.2c0.2,0,0.4,0.1,0.6,0.1c0.3,0,0.6,0,0.9-0.1c0.2-0.1,0.4-0.2,0.5-0.4
	c0.1-0.2,0.2-0.4,0.3-0.6c0.1-0.2,0.1-0.5,0.1-0.9V213.7z M215,214.6c0.2-0.2,0.4-0.3,0.7-0.3c0.1,0,0.2,0,0.3,0
	c0.1,0,0.2,0.1,0.3,0.1c0.1,0,0.1,0.1,0.2,0.1c0.1,0,0.1,0.1,0.1,0.1h0v1.8c0,0.1,0,0.1-0.1,0.2c0,0.1-0.1,0.1-0.2,0.2
	c-0.1,0-0.2,0.1-0.3,0.1c-0.1,0-0.2,0-0.3,0c-0.2,0-0.3,0-0.5-0.1c-0.1-0.1-0.2-0.2-0.3-0.3c-0.1-0.1-0.1-0.3-0.2-0.5
	c0-0.2,0-0.4,0-0.6C214.8,215.1,214.9,214.8,215,214.6z M218.4,213.7C218.4,213.7,218.4,213.7,218.4,213.7l-0.1,0v3.7h0.7v-2.6
	c0-0.1,0-0.1,0.1-0.2c0-0.1,0.1-0.1,0.1-0.2c0.1-0.1,0.1-0.1,0.2-0.1c0.1,0,0.2,0,0.3,0c0.1,0,0.2,0,0.3,0.1c0.1,0,0.2,0.1,0.2,0.1
	c0-0.1,0.1-0.1,0.1-0.2c0-0.1,0.1-0.2,0.1-0.3c0-0.1,0-0.1-0.1-0.2s-0.1-0.1-0.1-0.1c-0.1,0-0.1,0-0.2-0.1c-0.1,0-0.1,0-0.2,0
	c-0.2,0-0.4,0-0.5,0.1c-0.1,0.1-0.3,0.2-0.3,0.3c0-0.1-0.1-0.2-0.2-0.3C218.7,213.8,218.5,213.7,218.4,213.7
	C218.4,213.7,218.4,213.7,218.4,213.7z M223.8,214.9c-0.1-0.2-0.2-0.4-0.3-0.6c-0.1-0.2-0.3-0.3-0.5-0.4c-0.2-0.1-0.5-0.2-0.8-0.2
	c-0.3,0-0.5,0.1-0.8,0.2c-0.2,0.1-0.4,0.2-0.5,0.4c-0.1,0.2-0.3,0.4-0.3,0.6c-0.1,0.2-0.1,0.5-0.1,0.7c0,0.3,0,0.5,0.1,0.8
	c0.1,0.2,0.2,0.4,0.3,0.6s0.3,0.3,0.5,0.4c0.2,0.1,0.5,0.2,0.8,0.2c0.3,0,0.6-0.1,0.8-0.2c0.2-0.1,0.4-0.3,0.5-0.4
	c0.1-0.2,0.2-0.4,0.3-0.6c0.1-0.2,0.1-0.5,0.1-0.7C223.9,215.3,223.9,215.1,223.8,214.9z M223.2,216.1c0,0.2-0.1,0.3-0.2,0.5
	c-0.1,0.1-0.2,0.2-0.3,0.3c-0.1,0.1-0.3,0.1-0.5,0.1c-0.2,0-0.4,0-0.5-0.1c-0.1-0.1-0.2-0.2-0.3-0.3c-0.1-0.1-0.1-0.3-0.2-0.5
	c0-0.2,0-0.3,0-0.5c0-0.2,0-0.3,0.1-0.5c0-0.2,0.1-0.3,0.2-0.4c0.1-0.1,0.2-0.2,0.3-0.3c0.1-0.1,0.3-0.1,0.5-0.1
	c0.2,0,0.4,0,0.5,0.1c0.1,0.1,0.2,0.2,0.3,0.3c0.1,0.1,0.1,0.3,0.2,0.4c0,0.2,0,0.3,0,0.5C223.2,215.8,223.2,215.9,223.2,216.1z
	 M225.8,217c-0.1,0-0.2-0.1-0.3-0.1c-0.1-0.1-0.1-0.2-0.2-0.3c0-0.1,0-0.3,0-0.5v-1.9c0-0.2-0.1-0.3-0.2-0.4
	c-0.1-0.1-0.2-0.1-0.4-0.1c0,0,0,0-0.1,0c0,0,0,0,0,0h0v2.4c0,0.2,0,0.3,0,0.5c0,0.2,0.1,0.3,0.1,0.5c0.1,0.1,0.2,0.3,0.4,0.4
	c0.2,0.1,0.4,0.1,0.7,0.1c0.3,0,0.5,0,0.7-0.1c0.2-0.1,0.3-0.2,0.4-0.3v0.3h0.7v-3.2c0-0.2-0.1-0.3-0.2-0.4
	c-0.1-0.1-0.2-0.1-0.4-0.1c0,0,0,0-0.1,0c0,0,0,0,0,0h0v2.7c0,0.1,0,0.1-0.1,0.2c0,0.1-0.1,0.1-0.2,0.2c-0.1,0.1-0.2,0.1-0.3,0.1
	c-0.1,0-0.2,0.1-0.4,0.1C226,217,225.9,217,225.8,217z M228.8,213.7C228.7,213.7,228.7,213.7,228.8,213.7L228.8,213.7l-0.1,5.4h0.7
	v-2c0.1,0.1,0.2,0.2,0.3,0.3c0.2,0.1,0.4,0.1,0.7,0.1c0.2,0,0.4,0,0.5-0.1c0.2-0.1,0.4-0.2,0.5-0.3c0.2-0.2,0.3-0.4,0.4-0.6
	c0.1-0.3,0.1-0.6,0.1-1c0-0.3,0-0.6-0.1-0.9c-0.1-0.2-0.2-0.4-0.3-0.6s-0.3-0.3-0.5-0.3c-0.2-0.1-0.4-0.1-0.6-0.1
	c-0.3,0-0.5,0-0.7,0.1s-0.3,0.2-0.4,0.3c0-0.1-0.1-0.2-0.2-0.3C229.1,213.8,228.9,213.7,228.8,213.7
	C228.8,213.7,228.8,213.7,228.8,213.7z M231,216.6c-0.2,0.2-0.4,0.4-0.7,0.4c-0.1,0-0.2,0-0.3,0s-0.2-0.1-0.3-0.1
	c-0.1,0-0.1-0.1-0.2-0.1c-0.1,0-0.1-0.1-0.1-0.1v-1.8c0-0.1,0.1-0.3,0.2-0.4c0.2-0.1,0.4-0.2,0.6-0.2c0.2,0,0.3,0,0.5,0.1
	c0.1,0.1,0.2,0.2,0.3,0.3c0.1,0.1,0.1,0.3,0.2,0.4c0,0.2,0.1,0.3,0.1,0.5C231.2,216.1,231.1,216.4,231,216.6z M174.3,208.5
	c-0.4-0.5-0.7-1.2-0.7-2h6.3c0-0.1,0-0.2,0-0.3c0-0.1,0-0.2,0-0.4c0-0.1,0-0.2,0-0.4c0-0.1,0-0.2,0-0.3c0-0.6-0.1-1.2-0.2-1.7
	c-0.2-0.5-0.4-1-0.8-1.4c-0.3-0.4-0.8-0.8-1.3-1c-0.6-0.2-1.2-0.4-2-0.4c-0.6,0-1.2,0.1-1.8,0.3c-0.6,0.2-1.1,0.5-1.6,0.9
	c-0.5,0.4-0.8,1-1.1,1.6c-0.3,0.6-0.4,1.4-0.4,2.3c0,1.1,0.2,2,0.5,2.7c0.3,0.7,0.7,1.3,1.2,1.7c0.5,0.4,1.1,0.7,1.7,0.9
	c0.6,0.2,1.3,0.3,2,0.3c0.7,0,1.4-0.1,1.9-0.2c0.5-0.2,1-0.4,1.3-0.6c0.4-0.3,0.5-0.5,0.5-0.9c0-0.2-0.1-0.5-0.3-0.8
	c-0.2-0.3-0.4-0.6-0.5-0.8c-0.1,0.1-0.3,0.2-0.4,0.4c-0.2,0.1-0.3,0.3-0.6,0.4c-0.2,0.1-0.5,0.2-0.7,0.3c-0.3,0.1-0.6,0.1-0.9,0.1
	C175.4,209.3,174.8,209.1,174.3,208.5z M173.6,205c0-0.7,0.2-1.3,0.5-1.7c0.3-0.4,0.8-0.6,1.4-0.6c0.7,0,1.2,0.2,1.4,0.6
	c0.3,0.4,0.4,1,0.4,1.7H173.6z M184.4,204.2c0-0.3,0.2-0.6,0.5-0.8c0.3-0.2,0.7-0.3,1.2-0.3c0.4,0,0.7,0.1,0.9,0.2
	c0.2,0.1,0.3,0.3,0.4,0.4c0.1,0.2,0.2,0.4,0.2,0.7c0,0.3,0,0.6,0,0.9v5.9h2.9v-5.9c0-0.4,0-0.8-0.1-1.3c0.1-0.2,0.4-0.4,0.7-0.6
	c0.3-0.2,0.7-0.3,1.1-0.3c0.3,0,0.6,0.1,0.8,0.1c0.2,0.1,0.3,0.2,0.4,0.4c0.1,0.2,0.1,0.4,0.2,0.7c0,0.3,0,0.5,0,0.9v5.9h2.9v-6
	c0-0.4,0-0.7,0-1.1c0-0.4-0.1-0.7-0.1-1.1c0-0.3-0.1-0.6-0.3-0.8c-0.1-0.3-0.3-0.5-0.6-0.7c-0.2-0.2-0.6-0.4-0.9-0.5
	c-0.4-0.1-0.8-0.2-1.3-0.2c-0.8,0-1.5,0.1-2,0.4c-0.5,0.3-0.9,0.6-1.2,1c-0.2-0.4-0.5-0.7-0.9-1c-0.4-0.3-1-0.4-1.8-0.4
	c-0.8,0-1.5,0.1-2,0.4c-0.5,0.3-0.9,0.6-1.1,0.9c-0.1-0.4-0.3-0.7-0.6-0.9c-0.3-0.2-0.7-0.2-1.2-0.2c-0.2,0-0.3,0-0.4,0
	c-0.1,0-0.2,0-0.3,0c-0.1,0-0.2,0-0.3,0v10.1h2.9V204.2z M200.8,197.7c0-0.4-0.1-0.6-0.2-0.9c-0.1-0.2-0.3-0.4-0.4-0.5
	c-0.2-0.1-0.4-0.2-0.6-0.3c-0.2,0-0.5-0.1-0.7-0.1c-0.2,0-0.4,0-0.7,0c-0.2,0-0.3,0-0.3,0.1v15.1h1.9c0.3,0,0.5-0.1,0.6-0.2
	c0.1-0.2,0.2-0.4,0.2-0.6c0,0,0.1,0.1,0.2,0.2c0.1,0.1,0.3,0.2,0.5,0.4c0.2,0.1,0.5,0.2,0.8,0.4c0.3,0.1,0.7,0.2,1.2,0.2
	c0.5,0,1-0.1,1.5-0.3c0.5-0.2,1-0.5,1.4-0.9c0.4-0.4,0.7-1,1-1.7c0.3-0.7,0.4-1.6,0.4-2.8c0-1-0.1-1.8-0.3-2.4
	c-0.2-0.6-0.5-1.2-0.9-1.6c-0.4-0.4-0.8-0.7-1.3-0.8c-0.5-0.2-1-0.2-1.6-0.2c-0.7,0-1.2,0.1-1.6,0.3c-0.4,0.2-0.7,0.4-0.9,0.6V197.7
	z M204.1,208.3c-0.3,0.6-0.8,0.9-1.5,0.9c-0.4,0-0.8-0.1-1.1-0.2c-0.3-0.2-0.5-0.3-0.6-0.4v-4.6c0-0.3,0.1-0.5,0.3-0.8
	c0.2-0.2,0.6-0.3,1.2-0.3c0.4,0,0.7,0.1,1,0.2c0.3,0.2,0.5,0.4,0.7,0.6c0.2,0.3,0.3,0.6,0.3,1c0.1,0.4,0.1,0.8,0.1,1.2
	C204.5,206.9,204.4,207.7,204.1,208.3z M217.2,204.6c0-0.7-0.1-1.2-0.2-1.7c-0.1-0.5-0.4-0.9-0.7-1.2c-0.3-0.3-0.8-0.6-1.3-0.7
	c-0.5-0.2-1.2-0.2-1.9-0.2c-0.6,0-1.1,0-1.6,0.1c-0.5,0.1-0.9,0.2-1.3,0.4c-0.4,0.1-0.7,0.3-0.9,0.5c-0.2,0.2-0.3,0.4-0.3,0.6
	c0,0.1,0.1,0.4,0.2,0.7c0.1,0.3,0.3,0.6,0.5,0.8c0.5-0.3,0.9-0.5,1.4-0.7c0.5-0.2,1-0.3,1.6-0.3c0.7,0,1.1,0.1,1.4,0.3
	c0.3,0.2,0.4,0.6,0.4,1.2v0.4c-0.1,0-0.3,0-0.5,0c-0.2,0-0.3,0-0.5,0c-0.5,0-1.1,0.1-1.7,0.2c-0.6,0.1-1.2,0.3-1.7,0.5
	c-0.5,0.3-1,0.6-1.3,1.1c-0.3,0.5-0.5,1-0.5,1.8c0,0.6,0.1,1.1,0.3,1.5c0.2,0.4,0.5,0.7,0.8,1c0.3,0.2,0.7,0.4,1,0.5
	c0.4,0.1,0.8,0.2,1.1,0.2c0.7,0,1.4-0.1,1.9-0.3c0.5-0.2,0.9-0.5,1.2-0.8c0.1,0.4,0.2,0.7,0.5,0.9c0.3,0.2,0.6,0.3,1.2,0.3
	c0.2,0,0.5,0,0.7-0.1c0.2,0,0.5-0.1,0.7-0.2c-0.3-0.5-0.5-1.3-0.5-2.5V204.6z M214.5,208.4c0,0.1-0.1,0.2-0.2,0.4
	c-0.1,0.1-0.3,0.3-0.4,0.4c-0.2,0.1-0.4,0.2-0.6,0.3c-0.2,0.1-0.5,0.1-0.8,0.1c-0.5,0-0.9-0.1-1.1-0.4c-0.2-0.3-0.3-0.6-0.3-1
	c0-0.4,0.1-0.6,0.3-0.9c0.2-0.2,0.4-0.4,0.7-0.6c0.3-0.1,0.6-0.2,0.9-0.3c0.3-0.1,0.7-0.1,1-0.1c0.1,0,0.2,0,0.3,0
	c0.1,0,0.2,0,0.3,0V208.4z M220.9,201.2c-0.3-0.2-0.7-0.3-1.2-0.3c-0.2,0-0.3,0-0.4,0c-0.1,0-0.2,0-0.3,0c-0.1,0-0.2,0-0.3,0v10.1
	h2.9v-6.6c0-0.4,0.1-0.7,0.4-0.9c0.3-0.3,0.7-0.4,1.1-0.4c0.3,0,0.6,0.1,0.8,0.2c0.2,0.1,0.5,0.3,0.7,0.5c0.2-0.3,0.3-0.6,0.5-1
	c0.2-0.4,0.2-0.8,0.2-1.1c0-0.2,0-0.4-0.1-0.5c-0.1-0.1-0.2-0.2-0.4-0.3c-0.2-0.1-0.3-0.1-0.5-0.2c-0.2,0-0.4,0-0.5,0
	c-0.3,0-0.5,0-0.8,0.1c-0.2,0.1-0.5,0.2-0.7,0.3c-0.2,0.1-0.4,0.3-0.5,0.4c-0.1,0.2-0.3,0.3-0.3,0.4
	C221.4,201.7,221.2,201.4,220.9,201.2z M231.9,210.2c0.3,0.4,0.7,0.7,1,0.9c0.3,0.2,0.8,0.2,1.3,0.2c0.3,0,0.6-0.1,0.9-0.1
	s0.5-0.2,0.7-0.4l-4-5.3l3.5-4c-0.3-0.2-0.5-0.4-0.8-0.5c-0.3-0.1-0.6-0.2-1-0.2c-0.4,0-0.7,0.1-0.9,0.2c-0.2,0.2-0.5,0.4-0.7,0.7
	l-2.2,2.6c-0.3,0.3-0.5,0.7-0.6,1.1v-7.6c0-0.4-0.1-0.6-0.2-0.9c-0.1-0.2-0.3-0.4-0.4-0.5c-0.2-0.1-0.4-0.2-0.6-0.3
	c-0.2,0-0.5-0.1-0.7-0.1c-0.2,0-0.4,0-0.7,0c-0.2,0-0.3,0-0.3,0.1v15.1h2.9V206c0,0.2,0.1,0.4,0.2,0.6c0.1,0.2,0.2,0.3,0.3,0.5
	L231.9,210.2z"/>
<polygon class="st3" points="271.9,191.4 318.7,187.5 298.6,152.8 "/>
<polygon class="st4" points="291.5,166 291.5,166 291.5,166 "/>
<polygon class="st3" points="271.7,266.9 298.5,305.5 318.5,270.8 "/>
<polygon class="st4" points="303.5,271.3 303.4,271.3 303.4,271.3 "/>
<polygon class="st3" points="206.2,304.5 186.1,347 226.2,347 "/>
<polygon class="st4" points="218.3,334.2 218.3,334.2 218.3,334.2 "/>
<polygon class="st3" points="140.8,266.6 94,270.5 114.1,305.2 "/>
<polygon class="st4" points="121.2,291.9 121.2,291.9 121.2,291.9 "/>
<polygon class="st3" points="141,191.1 114.2,152.5 94.2,187.1 "/>
<polygon class="st4" points="109.3,186.7 109.3,186.7 109.3,186.7 "/>
<polygon class="st3" points="206.5,153.5 226.6,111 186.5,111 "/>
<polygon class="st4" points="194.4,123.7 194.4,123.7 194.4,123.7 "/>
<linearGradient id="SVGID_00000006678062445329987040000008770343653258767254_" gradientUnits="userSpaceOnUse" x1="311.5166" y1="186.0254" x2="395.325" y2="102.2171">
	<stop  offset="0.2921" style="stop-color:#AB1355"/>
	<stop  offset="0.8" style="stop-color:#CE4266"/>
</linearGradient>
<circle style="fill:url(#SVGID_00000006678062445329987040000008770343653258767254_);" cx="353.4" cy="144.1" r="59.3"/>
<circle class="st6" cx="353.4" cy="144.1" r="55.3"/>
<g>
	<path class="st1" d="M331.3,156.4c-0.5,0-0.9,0.2-1.2,0.6c-0.3,0.4-0.4,0.9-0.4,1.6c0,1.4,0.5,2.1,1.6,2.1c0.5,0,1-0.1,1.6-0.3v1.1
		c-0.5,0.2-1.1,0.3-1.8,0.3c-0.9,0-1.6-0.3-2.1-0.9c-0.5-0.6-0.7-1.4-0.7-2.4c0-0.7,0.1-1.3,0.4-1.8s0.6-0.9,1-1.2
		c0.5-0.3,1-0.4,1.6-0.4c0.6,0,1.3,0.2,1.9,0.5l-0.4,1.1c-0.2-0.1-0.5-0.2-0.7-0.3S331.6,156.4,331.3,156.4z"/>
	<path class="st1" d="M339.6,155.3v4.2c0,0.5-0.1,0.9-0.3,1.2c-0.2,0.4-0.5,0.6-0.9,0.8s-0.9,0.3-1.4,0.3c-0.8,0-1.5-0.2-1.9-0.6
		s-0.7-1-0.7-1.7v-4.1h1.4v3.9c0,0.5,0.1,0.9,0.3,1.1c0.2,0.2,0.5,0.3,1,0.3c0.4,0,0.8-0.1,1-0.3c0.2-0.2,0.3-0.6,0.3-1.1v-3.9
		H339.6z"/>
	<path class="st1" d="M344.9,160c0,0.6-0.2,1-0.6,1.4c-0.4,0.3-1,0.5-1.7,0.5c-0.7,0-1.3-0.1-1.8-0.4v-1.3c0.4,0.2,0.8,0.3,1.1,0.4
		c0.3,0.1,0.6,0.1,0.8,0.1c0.3,0,0.5-0.1,0.7-0.2c0.2-0.1,0.2-0.3,0.2-0.5c0-0.1,0-0.2-0.1-0.3c-0.1-0.1-0.2-0.2-0.3-0.3
		c-0.1-0.1-0.4-0.2-0.8-0.4c-0.4-0.2-0.7-0.4-0.9-0.5s-0.4-0.4-0.5-0.6c-0.1-0.2-0.2-0.5-0.2-0.8c0-0.6,0.2-1,0.6-1.3
		c0.4-0.3,0.9-0.5,1.6-0.5c0.3,0,0.7,0,1,0.1c0.3,0.1,0.6,0.2,1,0.3l-0.4,1.1c-0.3-0.1-0.6-0.2-0.9-0.3c-0.2-0.1-0.4-0.1-0.7-0.1
		c-0.3,0-0.5,0.1-0.6,0.2s-0.2,0.3-0.2,0.5c0,0.1,0,0.2,0.1,0.3c0.1,0.1,0.1,0.2,0.3,0.3c0.1,0.1,0.4,0.2,0.9,0.5
		c0.6,0.3,1,0.6,1.2,0.9C344.8,159.2,344.9,159.6,344.9,160z"/>
	<path class="st1" d="M348.6,161.8h-1.4v-5.3h-1.7v-1.1h4.9v1.1h-1.7V161.8z"/>
	<path class="st1" d="M357.1,158.5c0,1.1-0.3,1.9-0.8,2.5s-1.3,0.9-2.3,0.9s-1.7-0.3-2.3-0.9s-0.8-1.4-0.8-2.5s0.3-1.9,0.8-2.4
		c0.5-0.6,1.3-0.8,2.3-0.8s1.7,0.3,2.3,0.9C356.9,156.7,357.1,157.5,357.1,158.5z M352.5,158.5c0,0.7,0.1,1.3,0.4,1.6
		c0.3,0.4,0.7,0.5,1.2,0.5c1.1,0,1.6-0.7,1.6-2.2c0-1.4-0.5-2.2-1.6-2.2c-0.5,0-1,0.2-1.2,0.5C352.6,157.3,352.5,157.8,352.5,158.5z
		"/>
	<path class="st1" d="M363.8,158.5c0,1.1-0.3,1.9-0.9,2.4c-0.6,0.6-1.5,0.8-2.6,0.8h-1.8v-6.4h2c1,0,1.9,0.3,2.4,0.8
		S363.8,157.5,363.8,158.5z M362.4,158.5c0-1.4-0.6-2.1-1.8-2.1h-0.7v4.2h0.6C361.7,160.6,362.4,159.9,362.4,158.5z"/>
	<path class="st1" d="M367.1,158l1.3-2.6h1.5l-2.1,3.9v2.5h-1.4v-2.5l-2.1-4h1.5L367.1,158z"/>
	<path class="st1" d="M379,161.8h-1.7l-0.5-0.5c-0.6,0.4-1.2,0.6-1.9,0.6c-0.7,0-1.3-0.2-1.7-0.5s-0.6-0.8-0.6-1.3
		c0-0.4,0.1-0.7,0.3-1c0.2-0.3,0.5-0.5,0.9-0.8c-0.2-0.3-0.4-0.5-0.5-0.7c-0.1-0.2-0.1-0.5-0.1-0.8c0-0.4,0.2-0.8,0.5-1.1
		c0.3-0.3,0.8-0.4,1.4-0.4c0.5,0,1,0.1,1.3,0.4c0.3,0.3,0.5,0.6,0.5,1c0,0.3-0.1,0.7-0.3,1c-0.2,0.3-0.5,0.6-1,0.8l1.2,1.2
		c0.2-0.3,0.4-0.8,0.5-1.3h1.4c-0.1,0.4-0.2,0.8-0.4,1.2s-0.4,0.7-0.6,1L379,161.8z M374.1,159.9c0,0.3,0.1,0.5,0.3,0.6
		c0.2,0.1,0.4,0.2,0.7,0.2c0.4,0,0.7-0.1,1-0.3l-1.5-1.5c-0.2,0.1-0.3,0.3-0.4,0.4C374.1,159.6,374.1,159.7,374.1,159.9z
		 M375.6,156.8c0-0.2-0.1-0.3-0.2-0.4s-0.2-0.1-0.4-0.1c-0.2,0-0.4,0-0.5,0.1c-0.1,0.1-0.2,0.2-0.2,0.4c0,0.3,0.1,0.5,0.4,0.9
		c0.3-0.1,0.4-0.3,0.6-0.4C375.6,157.1,375.6,157,375.6,156.8z"/>
	<path class="st1" d="M327.3,164.3h2c0.9,0,1.6,0.1,2,0.4c0.4,0.3,0.6,0.7,0.6,1.2c0,0.4-0.1,0.7-0.3,0.9c-0.2,0.2-0.4,0.4-0.7,0.4
		v0c0.4,0.1,0.7,0.3,0.9,0.5c0.2,0.2,0.3,0.6,0.3,1c0,0.6-0.2,1-0.6,1.4c-0.4,0.3-1,0.5-1.7,0.5h-2.4V164.3z M328.7,166.9h0.8
		c0.4,0,0.6-0.1,0.8-0.2c0.2-0.1,0.2-0.3,0.2-0.6c0-0.2-0.1-0.4-0.3-0.5c-0.2-0.1-0.5-0.2-0.9-0.2h-0.7V166.9z M328.7,168v1.7h0.9
		c0.4,0,0.7-0.1,0.8-0.2s0.3-0.4,0.3-0.7c0-0.5-0.4-0.8-1.1-0.8H328.7z"/>
	<path class="st1" d="M334.7,168.3v2.5h-1.4v-6.4h1.9c0.9,0,1.5,0.2,1.9,0.5c0.4,0.3,0.6,0.8,0.6,1.4c0,0.4-0.1,0.7-0.3,1
		c-0.2,0.3-0.5,0.5-0.9,0.7c1,1.4,1.6,2.4,1.9,2.8H337l-1.5-2.5H334.7z M334.7,167.2h0.4c0.4,0,0.7-0.1,1-0.2
		c0.2-0.1,0.3-0.4,0.3-0.7c0-0.3-0.1-0.5-0.3-0.7c-0.2-0.1-0.5-0.2-1-0.2h-0.4V167.2z"/>
	<path class="st1" d="M345.1,167.5c0,1.1-0.3,1.9-0.8,2.5s-1.3,0.9-2.3,0.9s-1.7-0.3-2.3-0.9s-0.8-1.4-0.8-2.5s0.3-1.9,0.8-2.4
		c0.5-0.6,1.3-0.8,2.3-0.8s1.7,0.3,2.3,0.9C344.8,165.7,345.1,166.5,345.1,167.5z M340.4,167.5c0,0.7,0.1,1.3,0.4,1.6
		c0.3,0.4,0.7,0.5,1.2,0.5c1.1,0,1.6-0.7,1.6-2.2c0-1.4-0.5-2.2-1.6-2.2c-0.5,0-1,0.2-1.2,0.5C340.6,166.3,340.4,166.8,340.4,167.5z
		"/>
	<path class="st1" d="M351.6,170.8h-1.5l-1.7-2.7l-0.6,0.4v2.3h-1.4v-6.4h1.4v2.9l0.5-0.8l1.7-2.2h1.5l-2.2,2.8L351.6,170.8z"/>
	<path class="st1" d="M356.1,170.8h-3.7v-6.4h3.7v1.1h-2.3v1.4h2.2v1.1h-2.2v1.7h2.3V170.8z"/>
	<path class="st1" d="M358.8,168.3v2.5h-1.4v-6.4h1.9c0.9,0,1.5,0.2,1.9,0.5c0.4,0.3,0.6,0.8,0.6,1.4c0,0.4-0.1,0.7-0.3,1
		c-0.2,0.3-0.5,0.5-0.9,0.7c1,1.4,1.6,2.4,1.9,2.8h-1.5l-1.5-2.5H358.8z M358.8,167.2h0.4c0.4,0,0.7-0.1,1-0.2
		c0.2-0.1,0.3-0.4,0.3-0.7c0-0.3-0.1-0.5-0.3-0.7c-0.2-0.1-0.5-0.2-1-0.2h-0.4V167.2z"/>
	<path class="st1" d="M367.3,170.8l-0.5-1.5h-2.3l-0.5,1.5h-1.5l2.3-6.5h1.7l2.3,6.5H367.3z M366.5,168.1c-0.4-1.4-0.7-2.2-0.7-2.4
		c-0.1-0.2-0.1-0.3-0.1-0.4c-0.1,0.4-0.4,1.3-0.8,2.8H366.5z"/>
	<path class="st1" d="M372,167.2h2.5v3.3c-0.4,0.1-0.8,0.2-1.2,0.3c-0.4,0.1-0.7,0.1-1.1,0.1c-1,0-1.7-0.3-2.2-0.9
		c-0.5-0.6-0.8-1.4-0.8-2.5c0-1,0.3-1.8,0.9-2.4c0.6-0.6,1.4-0.9,2.5-0.9c0.7,0,1.3,0.1,1.9,0.4l-0.5,1.1c-0.5-0.2-1-0.4-1.5-0.4
		c-0.6,0-1.1,0.2-1.4,0.6c-0.4,0.4-0.5,0.9-0.5,1.6c0,0.7,0.1,1.2,0.4,1.6c0.3,0.4,0.7,0.6,1.2,0.6c0.3,0,0.6,0,0.9-0.1v-1.3H372
		V167.2z"/>
	<path class="st1" d="M379.8,170.8h-3.7v-6.4h3.7v1.1h-2.3v1.4h2.2v1.1h-2.2v1.7h2.3V170.8z"/>
	<path class="st1" d="M332.2,178c0,0.6-0.2,1-0.6,1.4c-0.4,0.3-1,0.5-1.7,0.5c-0.7,0-1.3-0.1-1.8-0.4v-1.3c0.4,0.2,0.8,0.3,1.1,0.4
		c0.3,0.1,0.6,0.1,0.8,0.1c0.3,0,0.5-0.1,0.7-0.2c0.2-0.1,0.2-0.3,0.2-0.5c0-0.1,0-0.2-0.1-0.3c-0.1-0.1-0.2-0.2-0.3-0.3
		c-0.1-0.1-0.4-0.2-0.8-0.4c-0.4-0.2-0.7-0.4-0.9-0.5s-0.4-0.4-0.5-0.6c-0.1-0.2-0.2-0.5-0.2-0.8c0-0.6,0.2-1,0.6-1.3
		c0.4-0.3,0.9-0.5,1.6-0.5c0.3,0,0.7,0,1,0.1c0.3,0.1,0.6,0.2,1,0.3l-0.4,1.1c-0.3-0.1-0.6-0.2-0.9-0.3c-0.2-0.1-0.4-0.1-0.7-0.1
		c-0.3,0-0.5,0.1-0.6,0.2s-0.2,0.3-0.2,0.5c0,0.1,0,0.2,0.1,0.3c0.1,0.1,0.1,0.2,0.3,0.3c0.1,0.1,0.4,0.2,0.9,0.5
		c0.6,0.3,1,0.6,1.2,0.9C332.1,177.2,332.2,177.6,332.2,178z"/>
	<path class="st1" d="M339.2,176.5c0,1.1-0.3,1.9-0.8,2.5s-1.3,0.9-2.3,0.9s-1.7-0.3-2.3-0.9s-0.8-1.4-0.8-2.5s0.3-1.9,0.8-2.4
		c0.5-0.6,1.3-0.8,2.3-0.8s1.7,0.3,2.3,0.9C338.9,174.7,339.2,175.5,339.2,176.5z M334.5,176.5c0,0.7,0.1,1.3,0.4,1.6
		c0.3,0.4,0.7,0.5,1.2,0.5c1.1,0,1.6-0.7,1.6-2.2c0-1.4-0.5-2.2-1.6-2.2c-0.5,0-1,0.2-1.2,0.5C334.6,175.3,334.5,175.8,334.5,176.5z
		"/>
	<path class="st1" d="M340.5,179.8v-6.4h1.4v5.3h2.6v1.1H340.5z"/>
	<path class="st1" d="M350.8,173.3v4.2c0,0.5-0.1,0.9-0.3,1.2c-0.2,0.4-0.5,0.6-0.9,0.8s-0.9,0.3-1.4,0.3c-0.8,0-1.5-0.2-1.9-0.6
		s-0.7-1-0.7-1.7v-4.1h1.4v3.9c0,0.5,0.1,0.9,0.3,1.1c0.2,0.2,0.5,0.3,1,0.3c0.4,0,0.8-0.1,1-0.3c0.2-0.2,0.3-0.6,0.3-1.1v-3.9
		H350.8z"/>
	<path class="st1" d="M354.9,179.8h-1.4v-5.3h-1.7v-1.1h4.9v1.1h-1.7V179.8z"/>
	<path class="st1" d="M357.6,179.8v-6.4h1.4v6.4H357.6z"/>
	<path class="st1" d="M366.4,176.5c0,1.1-0.3,1.9-0.8,2.5s-1.3,0.9-2.3,0.9s-1.7-0.3-2.3-0.9s-0.8-1.4-0.8-2.5s0.3-1.9,0.8-2.4
		c0.5-0.6,1.3-0.8,2.3-0.8s1.7,0.3,2.3,0.9C366.2,174.7,366.4,175.5,366.4,176.5z M361.8,176.5c0,0.7,0.1,1.3,0.4,1.6
		c0.3,0.4,0.7,0.5,1.2,0.5c1.1,0,1.6-0.7,1.6-2.2c0-1.4-0.5-2.2-1.6-2.2c-0.5,0-1,0.2-1.2,0.5C361.9,175.3,361.8,175.8,361.8,176.5z
		"/>
	<path class="st1" d="M373.5,179.8h-1.7l-2.8-4.9h0c0.1,0.9,0.1,1.5,0.1,1.8v3h-1.2v-6.4h1.7l2.8,4.8h0c0-0.8-0.1-1.4-0.1-1.8v-3
		h1.2V179.8z"/>
	<path class="st1" d="M378.9,178c0,0.6-0.2,1-0.6,1.4c-0.4,0.3-1,0.5-1.7,0.5c-0.7,0-1.3-0.1-1.8-0.4v-1.3c0.4,0.2,0.8,0.3,1.1,0.4
		c0.3,0.1,0.6,0.1,0.8,0.1c0.3,0,0.5-0.1,0.7-0.2c0.2-0.1,0.2-0.3,0.2-0.5c0-0.1,0-0.2-0.1-0.3c-0.1-0.1-0.2-0.2-0.3-0.3
		c-0.1-0.1-0.4-0.2-0.8-0.4c-0.4-0.2-0.7-0.4-0.9-0.5s-0.4-0.4-0.5-0.6c-0.1-0.2-0.2-0.5-0.2-0.8c0-0.6,0.2-1,0.6-1.3
		c0.4-0.3,0.9-0.5,1.6-0.5c0.3,0,0.7,0,1,0.1c0.3,0.1,0.6,0.2,1,0.3l-0.4,1.1c-0.3-0.1-0.6-0.2-0.9-0.3c-0.2-0.1-0.4-0.1-0.7-0.1
		c-0.3,0-0.5,0.1-0.6,0.2s-0.2,0.3-0.2,0.5c0,0.1,0,0.2,0.1,0.3c0.1,0.1,0.1,0.2,0.3,0.3c0.1,0.1,0.4,0.2,0.9,0.5
		c0.6,0.3,1,0.6,1.2,0.9C378.8,177.2,378.9,177.6,378.9,178z"/>
</g>
<rect x="332" y="128.3" class="st7" width="7.4" height="15.1"/>
<path class="st8" d="M339.5,140.5c19.5,6.6,13,6.6,35.3-4.7c-2-2-3.5-2.5-5.6-1.9l-8.2,2.8"/>
<path class="st8" d="M339.5,130.2h5.6c4.4,0,7.4,2.8,8.4,3.7c0,0,2.8,0,5.6,0c3,0,3,3.7,0,3.7h-10.2"/>
<ellipse class="st8" cx="363.7" cy="109.6" rx="5.6" ry="5.6"/>
<ellipse class="st8" cx="354.3" cy="122.7" rx="5.6" ry="5.6"/>
<linearGradient id="SVGID_00000163784231355867012450000016208320301439818657_" gradientUnits="userSpaceOnUse" x1="164.6294" y1="101.1565" x2="248.4302" y2="17.3557">
	<stop  offset="0.2921" style="stop-color:#009BA9"/>
	<stop  offset="0.8" style="stop-color:#2EB8C3"/>
</linearGradient>
<circle style="fill:url(#SVGID_00000163784231355867012450000016208320301439818657_);" cx="206.5" cy="59.3" r="59.3"/>
<circle class="st6" cx="206.5" cy="59.3" r="55.3"/>
<g>
	<path class="st1" d="M187.4,76.5c0,0.7-0.2,1.2-0.6,1.6c-0.4,0.4-1,0.5-1.8,0.5h-0.6V81H183v-6.4h2.1c0.8,0,1.4,0.2,1.8,0.5
		C187.2,75.4,187.4,75.9,187.4,76.5z M184.4,77.6h0.4c0.4,0,0.7-0.1,0.9-0.2s0.3-0.4,0.3-0.7c0-0.3-0.1-0.6-0.3-0.7
		c-0.2-0.2-0.4-0.2-0.8-0.2h-0.6V77.6z"/>
	<path class="st1" d="M188.6,81v-6.4h1.4v5.3h2.6V81H188.6z"/>
	<path class="st1" d="M197.7,81l-0.5-1.5h-2.3l-0.5,1.5h-1.5l2.3-6.5h1.7l2.3,6.5H197.7z M196.9,78.3c-0.4-1.4-0.7-2.2-0.7-2.4
		c-0.1-0.2-0.1-0.3-0.1-0.4c-0.1,0.4-0.4,1.3-0.8,2.8H196.9z"/>
	<path class="st1" d="M202.4,81h-1.4v-5.3h-1.7v-1.1h4.9v1.1h-1.7V81z"/>
	<path class="st1" d="M206.5,81h-1.3v-6.4h3.7v1.1h-2.3v1.7h2.2v1.1h-2.2V81z"/>
	<path class="st1" d="M215.9,77.7c0,1.1-0.3,1.9-0.8,2.5s-1.3,0.9-2.3,0.9s-1.7-0.3-2.3-0.9s-0.8-1.4-0.8-2.5s0.3-1.9,0.8-2.4
		c0.5-0.6,1.3-0.8,2.3-0.8s1.7,0.3,2.3,0.9C215.7,75.9,215.9,76.7,215.9,77.7z M211.2,77.7c0,0.7,0.1,1.3,0.4,1.6
		c0.3,0.4,0.7,0.5,1.2,0.5c1.1,0,1.6-0.7,1.6-2.2c0-1.4-0.5-2.2-1.6-2.2c-0.5,0-1,0.2-1.2,0.5C211.4,76.5,211.2,77,211.2,77.7z"/>
	<path class="st1" d="M218.6,78.5V81h-1.4v-6.4h1.9c0.9,0,1.5,0.2,1.9,0.5c0.4,0.3,0.6,0.8,0.6,1.4c0,0.4-0.1,0.7-0.3,1
		c-0.2,0.3-0.5,0.5-0.9,0.7c1,1.4,1.6,2.4,1.9,2.8h-1.5l-1.5-2.5H218.6z M218.6,77.4h0.4c0.4,0,0.7-0.1,1-0.2
		c0.2-0.1,0.3-0.4,0.3-0.7c0-0.3-0.1-0.5-0.3-0.7c-0.2-0.1-0.5-0.2-1-0.2h-0.4V77.4z"/>
	<path class="st1" d="M225.9,81l-1.5-5h0c0.1,1,0.1,1.7,0.1,2.1v3h-1.2v-6.4h1.9l1.5,4.9h0l1.6-4.9h1.9V81h-1.3v-3
		c0-0.1,0-0.3,0-0.5c0-0.2,0-0.7,0.1-1.5h0l-1.7,5H225.9z"/>
	<path class="st1" d="M185.3,88.2c0,0.6-0.2,1-0.6,1.4c-0.4,0.3-1,0.5-1.7,0.5c-0.7,0-1.3-0.1-1.8-0.4v-1.3c0.4,0.2,0.8,0.3,1.1,0.4
		c0.3,0.1,0.6,0.1,0.8,0.1c0.3,0,0.5-0.1,0.7-0.2c0.2-0.1,0.2-0.3,0.2-0.5c0-0.1,0-0.2-0.1-0.3c-0.1-0.1-0.2-0.2-0.3-0.3
		c-0.1-0.1-0.4-0.2-0.8-0.4c-0.4-0.2-0.7-0.4-0.9-0.5s-0.4-0.4-0.5-0.6c-0.1-0.2-0.2-0.5-0.2-0.8c0-0.6,0.2-1,0.6-1.3
		c0.4-0.3,0.9-0.5,1.6-0.5c0.3,0,0.7,0,1,0.1c0.3,0.1,0.6,0.2,1,0.3l-0.4,1.1c-0.3-0.1-0.6-0.2-0.9-0.3c-0.2-0.1-0.4-0.1-0.7-0.1
		c-0.3,0-0.5,0.1-0.6,0.2s-0.2,0.3-0.2,0.5c0,0.1,0,0.2,0.1,0.3c0.1,0.1,0.1,0.2,0.3,0.3c0.1,0.1,0.4,0.2,0.9,0.5
		c0.6,0.3,1,0.6,1.2,0.9C185.2,87.4,185.3,87.8,185.3,88.2z"/>
	<path class="st1" d="M192.3,86.7c0,1.1-0.3,1.9-0.8,2.5s-1.3,0.9-2.3,0.9s-1.7-0.3-2.3-0.9s-0.8-1.4-0.8-2.5s0.3-1.9,0.8-2.4
		c0.5-0.6,1.3-0.8,2.3-0.8s1.7,0.3,2.3,0.9C192,84.9,192.3,85.7,192.3,86.7z M187.6,86.7c0,0.7,0.1,1.3,0.4,1.6
		c0.3,0.4,0.7,0.5,1.2,0.5c1.1,0,1.6-0.7,1.6-2.2c0-1.4-0.5-2.2-1.6-2.2c-0.5,0-1,0.2-1.2,0.5C187.8,85.5,187.6,86,187.6,86.7z"/>
	<path class="st1" d="M193.6,90v-6.4h1.4v5.3h2.6V90H193.6z"/>
	<path class="st1" d="M204,83.5v4.2c0,0.5-0.1,0.9-0.3,1.2c-0.2,0.4-0.5,0.6-0.9,0.8s-0.9,0.3-1.4,0.3c-0.8,0-1.5-0.2-1.9-0.6
		s-0.7-1-0.7-1.7v-4.1h1.4v3.9c0,0.5,0.1,0.9,0.3,1.1c0.2,0.2,0.5,0.3,1,0.3c0.4,0,0.8-0.1,1-0.3c0.2-0.2,0.3-0.6,0.3-1.1v-3.9H204z
		"/>
	<path class="st1" d="M208,90h-1.4v-5.3h-1.7v-1.1h4.9v1.1H208V90z"/>
	<path class="st1" d="M210.7,90v-6.4h1.4V90H210.7z"/>
	<path class="st1" d="M219.6,86.7c0,1.1-0.3,1.9-0.8,2.5s-1.3,0.9-2.3,0.9s-1.7-0.3-2.3-0.9s-0.8-1.4-0.8-2.5s0.3-1.9,0.8-2.4
		c0.5-0.6,1.3-0.8,2.3-0.8s1.7,0.3,2.3,0.9C219.3,84.9,219.6,85.7,219.6,86.7z M214.9,86.7c0,0.7,0.1,1.3,0.4,1.6
		c0.3,0.4,0.7,0.5,1.2,0.5c1.1,0,1.6-0.7,1.6-2.2c0-1.4-0.5-2.2-1.6-2.2c-0.5,0-1,0.2-1.2,0.5C215,85.5,214.9,86,214.9,86.7z"/>
	<path class="st1" d="M226.6,90h-1.7l-2.8-4.9h0c0.1,0.9,0.1,1.5,0.1,1.8v3h-1.2v-6.4h1.7l2.8,4.8h0c0-0.8-0.1-1.4-0.1-1.8v-3h1.2
		V90z"/>
	<path class="st1" d="M232,88.2c0,0.6-0.2,1-0.6,1.4c-0.4,0.3-1,0.5-1.7,0.5c-0.7,0-1.3-0.1-1.8-0.4v-1.3c0.4,0.2,0.8,0.3,1.1,0.4
		c0.3,0.1,0.6,0.1,0.8,0.1c0.3,0,0.5-0.1,0.7-0.2c0.2-0.1,0.2-0.3,0.2-0.5c0-0.1,0-0.2-0.1-0.3c-0.1-0.1-0.2-0.2-0.3-0.3
		c-0.1-0.1-0.4-0.2-0.8-0.4c-0.4-0.2-0.7-0.4-0.9-0.5s-0.4-0.4-0.5-0.6c-0.1-0.2-0.2-0.5-0.2-0.8c0-0.6,0.2-1,0.6-1.3
		c0.4-0.3,0.9-0.5,1.6-0.5c0.3,0,0.7,0,1,0.1c0.3,0.1,0.6,0.2,1,0.3l-0.4,1.1c-0.3-0.1-0.6-0.2-0.9-0.3c-0.2-0.1-0.4-0.1-0.7-0.1
		c-0.3,0-0.5,0.1-0.6,0.2s-0.2,0.3-0.2,0.5c0,0.1,0,0.2,0.1,0.3c0.1,0.1,0.1,0.2,0.3,0.3c0.1,0.1,0.4,0.2,0.9,0.5
		c0.6,0.3,1,0.6,1.2,0.9C231.9,87.4,232,87.8,232,88.2z"/>
</g>
<path class="st8" d="M202.8,63c-1.4,1.4-3.6,1.4-5,0l-11.1-11.2c-1.4-1.4-1.4-3.6,0-5l23.5-23.7c1.4-1.4,3.6-1.4,5,0l11.1,11.2
	c1.4,1.4,1.4,3.6,0,5L202.8,63z M206.7,59l-16.1-16.2 M206.7,26.6l16.1,16.2 M220.9,34.8l-6.2-6.2 M194.9,54.8
	c0.3,0.3,0.9,0.3,1.2,0l0,0c0.3-0.3,0.3-0.9,0-1.2l0,0c-0.3-0.3-0.9-0.3-1.2,0l0,0C194.5,53.9,194.5,54.4,194.9,54.8L194.9,54.8z"/>
<linearGradient id="SVGID_00000091733938944112765730000001047422398103269520_" gradientUnits="userSpaceOnUse" x1="311.4352" y1="355.7574" x2="395.247" y2="271.9456">
	<stop  offset="0.2921" style="stop-color:#44A6D7"/>
	<stop  offset="0.8" style="stop-color:#74C4EF"/>
</linearGradient>
<circle style="fill:url(#SVGID_00000091733938944112765730000001047422398103269520_);" cx="353.3" cy="313.9" r="59.3"/>
<circle class="st6" cx="353.3" cy="313.9" r="55.3"/>
<g>
	<path class="st1" d="M331.1,335.6h-1.6l-0.9-3.4c0-0.1-0.1-0.4-0.2-0.7c-0.1-0.4-0.1-0.6-0.1-0.8c0,0.2-0.1,0.4-0.1,0.8
		c-0.1,0.4-0.1,0.6-0.2,0.7l-0.9,3.4h-1.5l-1.6-6.4h1.3l0.8,3.5c0.1,0.6,0.2,1.2,0.3,1.7c0-0.2,0.1-0.4,0.1-0.8
		c0.1-0.3,0.1-0.6,0.2-0.8l0.9-3.6h1.3l0.9,3.6c0,0.2,0.1,0.4,0.2,0.7c0.1,0.3,0.1,0.6,0.1,0.9c0-0.2,0.1-0.5,0.1-0.9
		c0.1-0.3,0.1-0.6,0.2-0.8l0.8-3.5h1.3L331.1,335.6z"/>
	<path class="st1" d="M338.8,335.6h-1.4v-2.8h-2.5v2.8h-1.4v-6.4h1.4v2.5h2.5v-2.5h1.4V335.6z"/>
	<path class="st1" d="M340.4,335.6v-6.4h1.4v6.4H340.4z"/>
	<path class="st1" d="M345.9,335.6h-1.4v-5.3h-1.7v-1.1h4.9v1.1h-1.7V335.6z"/>
	<path class="st1" d="M352.3,335.6h-3.7v-6.4h3.7v1.1H350v1.4h2.2v1.1H350v1.7h2.3V335.6z"/>
	<path class="st1" d="M356,335.6v-6.4h1.4v5.3h2.6v1.1H356z"/>
	<path class="st1" d="M365,335.6l-0.5-1.5h-2.3l-0.5,1.5h-1.5l2.3-6.5h1.7l2.3,6.5H365z M364.2,332.9c-0.4-1.4-0.7-2.2-0.7-2.4
		c-0.1-0.2-0.1-0.3-0.1-0.4c-0.1,0.4-0.4,1.3-0.8,2.8H364.2z"/>
	<path class="st1" d="M367.3,329.1h2c0.9,0,1.6,0.1,2,0.4c0.4,0.3,0.6,0.7,0.6,1.2c0,0.4-0.1,0.7-0.3,0.9c-0.2,0.2-0.4,0.4-0.7,0.4
		v0c0.4,0.1,0.7,0.3,0.9,0.5c0.2,0.2,0.3,0.6,0.3,1c0,0.6-0.2,1-0.6,1.4c-0.4,0.3-1,0.5-1.7,0.5h-2.4V329.1z M368.7,331.7h0.8
		c0.4,0,0.6-0.1,0.8-0.2c0.2-0.1,0.2-0.3,0.2-0.6c0-0.2-0.1-0.4-0.3-0.5c-0.2-0.1-0.5-0.2-0.9-0.2h-0.7V331.7z M368.7,332.8v1.7h0.9
		c0.4,0,0.7-0.1,0.8-0.2s0.3-0.4,0.3-0.7c0-0.5-0.4-0.8-1.1-0.8H368.7z"/>
	<path class="st1" d="M377,335.6h-3.7v-6.4h3.7v1.1h-2.3v1.4h2.2v1.1h-2.2v1.7h2.3V335.6z"/>
	<path class="st1" d="M378.4,335.6v-6.4h1.4v5.3h2.6v1.1H378.4z"/>
	<path class="st1" d="M332.1,342.8c0,0.6-0.2,1-0.6,1.4c-0.4,0.3-1,0.5-1.7,0.5c-0.7,0-1.3-0.1-1.8-0.4V343c0.4,0.2,0.8,0.3,1.1,0.4
		c0.3,0.1,0.6,0.1,0.8,0.1c0.3,0,0.5-0.1,0.7-0.2c0.2-0.1,0.2-0.3,0.2-0.5c0-0.1,0-0.2-0.1-0.3c-0.1-0.1-0.2-0.2-0.3-0.3
		c-0.1-0.1-0.4-0.2-0.8-0.4c-0.4-0.2-0.7-0.4-0.9-0.5s-0.4-0.4-0.5-0.6c-0.1-0.2-0.2-0.5-0.2-0.8c0-0.6,0.2-1,0.6-1.3
		c0.4-0.3,0.9-0.5,1.6-0.5c0.3,0,0.7,0,1,0.1c0.3,0.1,0.6,0.2,1,0.3l-0.4,1.1c-0.3-0.1-0.6-0.2-0.9-0.3c-0.2-0.1-0.4-0.1-0.7-0.1
		c-0.3,0-0.5,0.1-0.6,0.2s-0.2,0.3-0.2,0.5c0,0.1,0,0.2,0.1,0.3c0.1,0.1,0.1,0.2,0.3,0.3c0.1,0.1,0.4,0.2,0.9,0.5
		c0.6,0.3,1,0.6,1.2,0.9C332,342,332.1,342.4,332.1,342.8z"/>
	<path class="st1" d="M339.1,341.4c0,1.1-0.3,1.9-0.8,2.5s-1.3,0.9-2.3,0.9s-1.7-0.3-2.3-0.9s-0.8-1.4-0.8-2.5s0.3-1.9,0.8-2.5
		c0.5-0.6,1.3-0.8,2.3-0.8s1.7,0.3,2.3,0.9C338.9,339.5,339.1,340.3,339.1,341.4z M334.4,341.4c0,0.7,0.1,1.3,0.4,1.6
		c0.3,0.4,0.7,0.5,1.2,0.5c1.1,0,1.6-0.7,1.6-2.2c0-1.4-0.5-2.2-1.6-2.2c-0.5,0-1,0.2-1.2,0.5C334.6,340.1,334.4,340.6,334.4,341.4z
		"/>
	<path class="st1" d="M340.5,344.6v-6.4h1.4v5.3h2.6v1.1H340.5z"/>
	<path class="st1" d="M350.8,338.1v4.2c0,0.5-0.1,0.9-0.3,1.2c-0.2,0.4-0.5,0.6-0.9,0.8s-0.9,0.3-1.4,0.3c-0.8,0-1.5-0.2-1.9-0.6
		c-0.5-0.4-0.7-1-0.7-1.7v-4.1h1.4v3.9c0,0.5,0.1,0.9,0.3,1.1c0.2,0.2,0.5,0.3,1,0.3c0.4,0,0.8-0.1,1-0.3c0.2-0.2,0.3-0.6,0.3-1.1
		v-3.9H350.8z"/>
	<path class="st1" d="M354.8,344.6h-1.4v-5.3h-1.7v-1.1h4.9v1.1h-1.7V344.6z"/>
	<path class="st1" d="M357.6,344.6v-6.4h1.4v6.4H357.6z"/>
	<path class="st1" d="M366.4,341.4c0,1.1-0.3,1.9-0.8,2.5s-1.3,0.9-2.3,0.9s-1.7-0.3-2.3-0.9s-0.8-1.4-0.8-2.5s0.3-1.9,0.8-2.5
		c0.5-0.6,1.3-0.8,2.3-0.8s1.7,0.3,2.3,0.9C366.1,339.5,366.4,340.3,366.4,341.4z M361.7,341.4c0,0.7,0.1,1.3,0.4,1.6
		c0.3,0.4,0.7,0.5,1.2,0.5c1.1,0,1.6-0.7,1.6-2.2c0-1.4-0.5-2.2-1.6-2.2c-0.5,0-1,0.2-1.2,0.5C361.8,340.1,361.7,340.6,361.7,341.4z
		"/>
	<path class="st1" d="M373.4,344.6h-1.7l-2.8-4.9h0c0.1,0.9,0.1,1.5,0.1,1.8v3h-1.2v-6.4h1.7l2.8,4.8h0c0-0.8-0.1-1.4-0.1-1.8v-3
		h1.2V344.6z"/>
	<path class="st1" d="M378.8,342.8c0,0.6-0.2,1-0.6,1.4c-0.4,0.3-1,0.5-1.7,0.5c-0.7,0-1.3-0.1-1.8-0.4V343c0.4,0.2,0.8,0.3,1.1,0.4
		c0.3,0.1,0.6,0.1,0.8,0.1c0.3,0,0.5-0.1,0.7-0.2c0.2-0.1,0.2-0.3,0.2-0.5c0-0.1,0-0.2-0.1-0.3c-0.1-0.1-0.2-0.2-0.3-0.3
		c-0.1-0.1-0.4-0.2-0.8-0.4c-0.4-0.2-0.7-0.4-0.9-0.5s-0.4-0.4-0.5-0.6c-0.1-0.2-0.2-0.5-0.2-0.8c0-0.6,0.2-1,0.6-1.3
		c0.4-0.3,0.9-0.5,1.6-0.5c0.3,0,0.7,0,1,0.1c0.3,0.1,0.6,0.2,1,0.3l-0.4,1.1c-0.3-0.1-0.6-0.2-0.9-0.3c-0.2-0.1-0.4-0.1-0.7-0.1
		c-0.3,0-0.5,0.1-0.6,0.2s-0.2,0.3-0.2,0.5c0,0.1,0,0.2,0.1,0.3c0.1,0.1,0.1,0.2,0.3,0.3c0.1,0.1,0.4,0.2,0.9,0.5
		c0.6,0.3,1,0.6,1.2,0.9C378.7,342,378.8,342.4,378.8,342.8z"/>
</g>
<path class="st11" d="M360.4,287.8h-14.2c-1,0-1.8-0.8-1.8-1.8v-7.5c0-1,0.8-1.8,1.8-1.8h14.2c1,0,1.8,0.8,1.8,1.8v7.5
	C362.2,287,361.4,287.8,360.4,287.8z M341.1,309.2V304c0-1-0.8-1.8-1.8-1.8h-5.3c-1,0-1.8,0.8-1.8,1.8v5.2c0,1,0.8,1.8,1.8,1.8h5.3
	C340.2,311,341.1,310.2,341.1,309.2z M357.8,309.2V304c0-1-0.8-1.8-1.8-1.8h-5.3c-1,0-1.8,0.8-1.8,1.8v5.2c0,1,0.8,1.8,1.8,1.8h5.3
	C357,311,357.8,310.2,357.8,309.2z M374.6,309.2V304c0-1-0.8-1.8-1.8-1.8h-5.3c-1,0-1.8,0.8-1.8,1.8v5.2c0,1,0.8,1.8,1.8,1.8h5.3
	C373.7,311,374.6,310.2,374.6,309.2z M353.3,302.1v-14.4 M336.6,311v5.4c0,1.2,1,2.2,2.2,2.2h12.3c1.2,0,2.2-1,2.2-2.2V311
	 M370.1,302.2v-5.5c0-1.2-1-2.2-2.2-2.2h-29c-1.2,0-2.2,1-2.2,2.2v5.4"/>
<linearGradient id="SVGID_00000105424391332360661710000007899827565520324008_" gradientUnits="userSpaceOnUse" x1="164.4462" y1="440.6231" x2="248.2545" y2="356.8147">
	<stop  offset="0.2921" style="stop-color:#009BA9"/>
	<stop  offset="0.8" style="stop-color:#2EB8C3"/>
</linearGradient>
<circle style="fill:url(#SVGID_00000105424391332360661710000007899827565520324008_);" cx="206.4" cy="398.7" r="59.3"/>
<circle class="st6" cx="206.3" cy="398.7" r="55.3"/>
<g>
	<path class="st1" d="M181,420.4l-1.5-5h0c0.1,1,0.1,1.7,0.1,2.1v3h-1.2V414h1.9l1.5,4.9h0l1.6-4.9h1.9v6.4h-1.3v-3
		c0-0.1,0-0.3,0-0.5c0-0.2,0-0.7,0.1-1.5h0l-1.7,5H181z"/>
	<path class="st1" d="M192,414v4.2c0,0.5-0.1,0.9-0.3,1.2c-0.2,0.4-0.5,0.6-0.9,0.8s-0.9,0.3-1.4,0.3c-0.8,0-1.5-0.2-1.9-0.6
		c-0.5-0.4-0.7-1-0.7-1.7V414h1.4v3.9c0,0.5,0.1,0.9,0.3,1.1c0.2,0.2,0.5,0.3,1,0.3c0.4,0,0.8-0.1,1-0.3c0.2-0.2,0.3-0.6,0.3-1.1
		V414H192z"/>
	<path class="st1" d="M193.5,420.4V414h1.4v5.3h2.6v1.1H193.5z"/>
	<path class="st1" d="M201.1,420.4h-1.4v-5.3H198V414h4.9v1.1h-1.7V420.4z"/>
	<path class="st1" d="M203.8,420.4V414h1.4v6.4H203.8z"/>
	<path class="st1" d="M206.3,418.6v-1.1h2.4v1.1H206.3z"/>
	<path class="st1" d="M213.6,420.4l-0.5-1.5h-2.3l-0.5,1.5h-1.5l2.3-6.5h1.7l2.3,6.5H213.6z M212.8,417.8c-0.4-1.4-0.7-2.2-0.7-2.4
		c-0.1-0.2-0.1-0.3-0.1-0.4c-0.1,0.4-0.4,1.3-0.8,2.8H212.8z"/>
	<path class="st1" d="M219.7,418.6c0,0.6-0.2,1-0.6,1.4c-0.4,0.3-1,0.5-1.7,0.5c-0.7,0-1.3-0.1-1.8-0.4v-1.3
		c0.4,0.2,0.8,0.3,1.1,0.4c0.3,0.1,0.6,0.1,0.8,0.1c0.3,0,0.5-0.1,0.7-0.2c0.2-0.1,0.2-0.3,0.2-0.5c0-0.1,0-0.2-0.1-0.3
		c-0.1-0.1-0.2-0.2-0.3-0.3c-0.1-0.1-0.4-0.2-0.8-0.4c-0.4-0.2-0.7-0.4-0.9-0.5s-0.4-0.4-0.5-0.6c-0.1-0.2-0.2-0.5-0.2-0.8
		c0-0.6,0.2-1,0.6-1.3c0.4-0.3,0.9-0.5,1.6-0.5c0.3,0,0.7,0,1,0.1c0.3,0.1,0.6,0.2,1,0.3l-0.4,1.1c-0.3-0.1-0.6-0.2-0.9-0.3
		c-0.2-0.1-0.4-0.1-0.7-0.1c-0.3,0-0.5,0.1-0.6,0.2s-0.2,0.3-0.2,0.5c0,0.1,0,0.2,0.1,0.3c0.1,0.1,0.1,0.2,0.3,0.3
		c0.1,0.1,0.4,0.2,0.9,0.5c0.6,0.3,1,0.6,1.2,0.9C219.6,417.9,219.7,418.2,219.7,418.6z"/>
	<path class="st1" d="M224.7,418.6c0,0.6-0.2,1-0.6,1.4c-0.4,0.3-1,0.5-1.7,0.5c-0.7,0-1.3-0.1-1.8-0.4v-1.3
		c0.4,0.2,0.8,0.3,1.1,0.4c0.3,0.1,0.6,0.1,0.8,0.1c0.3,0,0.5-0.1,0.7-0.2c0.2-0.1,0.2-0.3,0.2-0.5c0-0.1,0-0.2-0.1-0.3
		c-0.1-0.1-0.2-0.2-0.3-0.3c-0.1-0.1-0.4-0.2-0.8-0.4c-0.4-0.2-0.7-0.4-0.9-0.5s-0.4-0.4-0.5-0.6c-0.1-0.2-0.2-0.5-0.2-0.8
		c0-0.6,0.2-1,0.6-1.3c0.4-0.3,0.9-0.5,1.6-0.5c0.3,0,0.7,0,1,0.1c0.3,0.1,0.6,0.2,1,0.3l-0.4,1.1c-0.3-0.1-0.6-0.2-0.9-0.3
		c-0.2-0.1-0.4-0.1-0.7-0.1c-0.3,0-0.5,0.1-0.6,0.2s-0.2,0.3-0.2,0.5c0,0.1,0,0.2,0.1,0.3c0.1,0.1,0.1,0.2,0.3,0.3
		c0.1,0.1,0.4,0.2,0.9,0.5c0.6,0.3,1,0.6,1.2,0.9C224.5,417.9,224.7,418.2,224.7,418.6z"/>
	<path class="st1" d="M229.5,420.4h-3.7V414h3.7v1.1h-2.3v1.4h2.2v1.1h-2.2v1.7h2.3V420.4z"/>
	<path class="st1" d="M233.3,420.4H232v-5.3h-1.7V414h4.9v1.1h-1.7V420.4z"/>
	<path class="st1" d="M185.1,427.6c0,0.6-0.2,1-0.6,1.4c-0.4,0.3-1,0.5-1.7,0.5c-0.7,0-1.3-0.1-1.8-0.4v-1.3
		c0.4,0.2,0.8,0.3,1.1,0.4c0.3,0.1,0.6,0.1,0.8,0.1c0.3,0,0.5-0.1,0.7-0.2c0.2-0.1,0.2-0.3,0.2-0.5c0-0.1,0-0.2-0.1-0.3
		c-0.1-0.1-0.2-0.2-0.3-0.3c-0.1-0.1-0.4-0.2-0.8-0.4c-0.4-0.2-0.7-0.4-0.9-0.5s-0.4-0.4-0.5-0.6c-0.1-0.2-0.2-0.5-0.2-0.8
		c0-0.6,0.2-1,0.6-1.3c0.4-0.3,0.9-0.5,1.6-0.5c0.3,0,0.7,0,1,0.1c0.3,0.1,0.6,0.2,1,0.3l-0.4,1.1c-0.3-0.1-0.6-0.2-0.9-0.3
		c-0.2-0.1-0.4-0.1-0.7-0.1c-0.3,0-0.5,0.1-0.6,0.2s-0.2,0.3-0.2,0.5c0,0.1,0,0.2,0.1,0.3c0.1,0.1,0.1,0.2,0.3,0.3
		c0.1,0.1,0.4,0.2,0.9,0.5c0.6,0.3,1,0.6,1.2,0.9C185,426.9,185.1,427.2,185.1,427.6z"/>
	<path class="st1" d="M192.1,426.2c0,1.1-0.3,1.9-0.8,2.5c-0.5,0.6-1.3,0.9-2.3,0.9s-1.7-0.3-2.3-0.9c-0.5-0.6-0.8-1.4-0.8-2.5
		c0-1.1,0.3-1.9,0.8-2.4c0.5-0.6,1.3-0.8,2.3-0.8s1.7,0.3,2.3,0.9C191.9,424.3,192.1,425.1,192.1,426.2z M187.4,426.2
		c0,0.7,0.1,1.3,0.4,1.6c0.3,0.4,0.7,0.5,1.2,0.5c1.1,0,1.6-0.7,1.6-2.2c0-1.4-0.5-2.2-1.6-2.2c-0.5,0-1,0.2-1.2,0.5
		C187.6,424.9,187.4,425.5,187.4,426.2z"/>
	<path class="st1" d="M193.5,429.4V423h1.4v5.3h2.6v1.1H193.5z"/>
	<path class="st1" d="M203.8,423v4.2c0,0.5-0.1,0.9-0.3,1.2c-0.2,0.4-0.5,0.6-0.9,0.8s-0.9,0.3-1.4,0.3c-0.8,0-1.5-0.2-1.9-0.6
		c-0.5-0.4-0.7-1-0.7-1.7V423h1.4v3.9c0,0.5,0.1,0.9,0.3,1.1c0.2,0.2,0.5,0.3,1,0.3c0.4,0,0.8-0.1,1-0.3c0.2-0.2,0.3-0.6,0.3-1.1
		V423H203.8z"/>
	<path class="st1" d="M207.8,429.4h-1.4v-5.3h-1.7V423h4.9v1.1h-1.7V429.4z"/>
	<path class="st1" d="M210.6,429.4V423h1.4v6.4H210.6z"/>
	<path class="st1" d="M219.4,426.2c0,1.1-0.3,1.9-0.8,2.5c-0.5,0.6-1.3,0.9-2.3,0.9s-1.7-0.3-2.3-0.9c-0.5-0.6-0.8-1.4-0.8-2.5
		c0-1.1,0.3-1.9,0.8-2.4c0.5-0.6,1.3-0.8,2.3-0.8s1.7,0.3,2.3,0.9C219.1,424.3,219.4,425.1,219.4,426.2z M214.7,426.2
		c0,0.7,0.1,1.3,0.4,1.6c0.3,0.4,0.7,0.5,1.2,0.5c1.1,0,1.6-0.7,1.6-2.2c0-1.4-0.5-2.2-1.6-2.2c-0.5,0-1,0.2-1.2,0.5
		C214.8,424.9,214.7,425.5,214.7,426.2z"/>
	<path class="st1" d="M226.4,429.4h-1.7l-2.8-4.9h0c0.1,0.9,0.1,1.5,0.1,1.8v3h-1.2V423h1.7l2.8,4.8h0c0-0.8-0.1-1.4-0.1-1.8v-3h1.2
		V429.4z"/>
	<path class="st1" d="M231.8,427.6c0,0.6-0.2,1-0.6,1.4c-0.4,0.3-1,0.5-1.7,0.5c-0.7,0-1.3-0.1-1.8-0.4v-1.3
		c0.4,0.2,0.8,0.3,1.1,0.4c0.3,0.1,0.6,0.1,0.8,0.1c0.3,0,0.5-0.1,0.7-0.2c0.2-0.1,0.2-0.3,0.2-0.5c0-0.1,0-0.2-0.1-0.3
		c-0.1-0.1-0.2-0.2-0.3-0.3c-0.1-0.1-0.4-0.2-0.8-0.4c-0.4-0.2-0.7-0.4-0.9-0.5s-0.4-0.4-0.5-0.6c-0.1-0.2-0.2-0.5-0.2-0.8
		c0-0.6,0.2-1,0.6-1.3c0.4-0.3,0.9-0.5,1.6-0.5c0.3,0,0.7,0,1,0.1c0.3,0.1,0.6,0.2,1,0.3l-0.4,1.1c-0.3-0.1-0.6-0.2-0.9-0.3
		c-0.2-0.1-0.4-0.1-0.7-0.1c-0.3,0-0.5,0.1-0.6,0.2s-0.2,0.3-0.2,0.5c0,0.1,0,0.2,0.1,0.3c0.1,0.1,0.1,0.2,0.3,0.3
		c0.1,0.1,0.4,0.2,0.9,0.5c0.6,0.3,1,0.6,1.2,0.9C231.7,426.9,231.8,427.2,231.8,427.6z"/>
</g>
<path class="st8" d="M228,392.7c0,1-0.8,1.9-1.8,1.9h-38.8c-1,0-1.8-0.8-1.8-1.9v-24.2c0-1,0.8-1.9,1.8-1.9h38.8
	c1,0,1.8,0.8,1.8,1.9V392.7z M190.8,389.3V379 M196,389.3v-6 M201.3,389.3v-17.4 M194.9,402.5h23.7 M206.8,394.6v7.8 M218.6,374
	c-3.9-2.2-8.9-0.8-11.1,3.1c-2.2,3.9-0.8,8.9,3.1,11.2c3.9,2.2,8.9,0.8,11.1-3.1C223.9,381.2,222.5,376.2,218.6,374z M214.6,372.9
	v8.2l6.8,4.6 M214.6,381.1L209,387"/>
<linearGradient id="SVGID_00000162310746445860169450000011078761632610857372_" gradientUnits="userSpaceOnUse" x1="17.4537" y1="355.6972" x2="101.2655" y2="271.8854">
	<stop  offset="0.2921" style="stop-color:#AB1355"/>
	<stop  offset="0.8" style="stop-color:#CE4266"/>
</linearGradient>
<circle style="fill:url(#SVGID_00000162310746445860169450000011078761632610857372_);" cx="59.4" cy="313.8" r="59.3"/>
<circle class="st6" cx="59.4" cy="313.8" r="55.3"/>
<g>
	<path class="st1" d="M31.8,327.4V321h1.4v6.4H31.8z"/>
	<path class="st1" d="M40.4,327.4h-1.7l-2.8-4.9h0c0.1,0.9,0.1,1.5,0.1,1.8v3h-1.2V321h1.7l2.8,4.8h0c0-0.8-0.1-1.4-0.1-1.8v-3h1.2
		V327.4z"/>
	<path class="st1" d="M45.6,321H47l-2.2,6.4h-1.5l-2.2-6.4h1.4l1.2,3.8c0.1,0.2,0.1,0.5,0.2,0.8c0.1,0.3,0.1,0.5,0.1,0.6
		c0-0.3,0.1-0.7,0.3-1.4L45.6,321z"/>
	<path class="st1" d="M51.4,327.4h-3.7V321h3.7v1.1h-2.3v1.4h2.2v1.1h-2.2v1.7h2.3V327.4z"/>
	<path class="st1" d="M56.4,325.6c0,0.6-0.2,1-0.6,1.4c-0.4,0.3-1,0.5-1.7,0.5c-0.7,0-1.3-0.1-1.8-0.4v-1.3c0.4,0.2,0.8,0.3,1.1,0.4
		c0.3,0.1,0.6,0.1,0.8,0.1c0.3,0,0.5-0.1,0.7-0.2c0.2-0.1,0.2-0.3,0.2-0.5c0-0.1,0-0.2-0.1-0.3c-0.1-0.1-0.2-0.2-0.3-0.3
		c-0.1-0.1-0.4-0.2-0.8-0.4c-0.4-0.2-0.7-0.4-0.9-0.5s-0.4-0.4-0.5-0.6c-0.1-0.2-0.2-0.5-0.2-0.8c0-0.6,0.2-1,0.6-1.3
		s0.9-0.5,1.6-0.5c0.3,0,0.7,0,1,0.1c0.3,0.1,0.6,0.2,1,0.3l-0.4,1.1c-0.3-0.1-0.6-0.2-0.9-0.3c-0.2-0.1-0.4-0.1-0.7-0.1
		c-0.3,0-0.5,0.1-0.6,0.2s-0.2,0.3-0.2,0.5c0,0.1,0,0.2,0.1,0.3c0.1,0.1,0.1,0.2,0.3,0.3c0.1,0.1,0.4,0.2,0.9,0.5
		c0.6,0.3,1,0.6,1.2,0.9C56.3,324.9,56.4,325.2,56.4,325.6z"/>
	<path class="st1" d="M60,327.4h-1.4v-5.3h-1.7V321h4.9v1.1H60V327.4z"/>
	<path class="st1" d="M65.4,327.4l-1.5-5h0c0.1,1,0.1,1.7,0.1,2.1v3h-1.2V321h1.9l1.5,4.9h0l1.6-4.9h1.9v6.4h-1.3v-3
		c0-0.1,0-0.3,0-0.5c0-0.2,0-0.7,0.1-1.5h0l-1.7,5H65.4z"/>
	<path class="st1" d="M74.7,327.4H71V321h3.7v1.1h-2.3v1.4h2.2v1.1h-2.2v1.7h2.3V327.4z"/>
	<path class="st1" d="M81.7,327.4H80l-2.8-4.9h0c0.1,0.9,0.1,1.5,0.1,1.8v3H76V321h1.7l2.8,4.8h0c0-0.8-0.1-1.4-0.1-1.8v-3h1.2
		V327.4z"/>
	<path class="st1" d="M85.7,327.4h-1.4v-5.3h-1.7V321h4.9v1.1h-1.7V327.4z"/>
	<path class="st1" d="M34.5,333.9v2.5h-1.4V330H35c0.9,0,1.5,0.2,1.9,0.5c0.4,0.3,0.6,0.8,0.6,1.4c0,0.4-0.1,0.7-0.3,1
		c-0.2,0.3-0.5,0.5-0.9,0.7c1,1.4,1.6,2.4,1.9,2.8h-1.5l-1.5-2.5H34.5z M34.5,332.8h0.4c0.4,0,0.7-0.1,1-0.2
		c0.2-0.1,0.3-0.4,0.3-0.7c0-0.3-0.1-0.5-0.3-0.7c-0.2-0.1-0.5-0.2-1-0.2h-0.4V332.8z"/>
	<path class="st1" d="M42.7,336.4H39V330h3.7v1.1h-2.3v1.4h2.2v1.1h-2.2v1.7h2.3V336.4z"/>
	<path class="st1" d="M47.7,334.6c0,0.6-0.2,1-0.6,1.4c-0.4,0.3-1,0.5-1.7,0.5c-0.7,0-1.3-0.1-1.8-0.4v-1.3c0.4,0.2,0.8,0.3,1.1,0.4
		c0.3,0.1,0.6,0.1,0.8,0.1c0.3,0,0.5-0.1,0.7-0.2c0.2-0.1,0.2-0.3,0.2-0.5c0-0.1,0-0.2-0.1-0.3c-0.1-0.1-0.2-0.2-0.3-0.3
		c-0.1-0.1-0.4-0.2-0.8-0.4c-0.4-0.2-0.7-0.4-0.9-0.5s-0.4-0.4-0.5-0.6c-0.1-0.2-0.2-0.5-0.2-0.8c0-0.6,0.2-1,0.6-1.3
		c0.4-0.3,0.9-0.5,1.6-0.5c0.3,0,0.7,0,1,0.1c0.3,0.1,0.6,0.2,1,0.3l-0.4,1.1c-0.3-0.1-0.6-0.2-0.9-0.3c-0.2-0.1-0.4-0.1-0.7-0.1
		c-0.3,0-0.5,0.1-0.6,0.2s-0.2,0.3-0.2,0.5c0,0.1,0,0.2,0.1,0.3c0.1,0.1,0.1,0.2,0.3,0.3c0.1,0.1,0.4,0.2,0.9,0.5
		c0.6,0.3,1,0.6,1.2,0.9C47.6,333.9,47.7,334.2,47.7,334.6z"/>
	<path class="st1" d="M52.5,336.4h-3.7V330h3.7v1.1h-2.3v1.4h2.2v1.1h-2.2v1.7h2.3V336.4z"/>
	<path class="st1" d="M57.7,336.4l-0.5-1.5h-2.3l-0.5,1.5h-1.5l2.3-6.5h1.7l2.3,6.5H57.7z M56.9,333.7c-0.4-1.4-0.7-2.2-0.7-2.4
		c-0.1-0.2-0.1-0.3-0.1-0.4c-0.1,0.4-0.4,1.3-0.8,2.8H56.9z"/>
	<path class="st1" d="M61.2,333.9v2.5h-1.4V330h1.9c0.9,0,1.5,0.2,1.9,0.5c0.4,0.3,0.6,0.8,0.6,1.4c0,0.4-0.1,0.7-0.3,1
		c-0.2,0.3-0.5,0.5-0.9,0.7c1,1.4,1.6,2.4,1.9,2.8h-1.5l-1.5-2.5H61.2z M61.2,332.8h0.4c0.4,0,0.7-0.1,1-0.2
		c0.2-0.1,0.3-0.4,0.3-0.7c0-0.3-0.1-0.5-0.3-0.7c-0.2-0.1-0.5-0.2-1-0.2h-0.4V332.8z"/>
	<path class="st1" d="M68.4,331c-0.5,0-0.9,0.2-1.2,0.6c-0.3,0.4-0.4,0.9-0.4,1.6c0,1.4,0.5,2.1,1.6,2.1c0.5,0,1-0.1,1.6-0.3v1.1
		c-0.5,0.2-1.1,0.3-1.8,0.3c-0.9,0-1.6-0.3-2.1-0.9c-0.5-0.6-0.7-1.4-0.7-2.4c0-0.7,0.1-1.3,0.4-1.8c0.2-0.5,0.6-0.9,1-1.2
		c0.5-0.3,1-0.4,1.6-0.4c0.6,0,1.3,0.2,1.9,0.5l-0.4,1.1c-0.2-0.1-0.5-0.2-0.7-0.3S68.7,331,68.4,331z"/>
	<path class="st1" d="M76.6,336.4h-1.4v-2.8h-2.5v2.8h-1.4V330h1.4v2.5h2.5V330h1.4V336.4z"/>
	<path class="st1" d="M86.3,336.4h-1.7l-0.5-0.5c-0.6,0.4-1.2,0.6-1.9,0.6c-0.7,0-1.3-0.2-1.7-0.5s-0.6-0.8-0.6-1.3
		c0-0.4,0.1-0.7,0.3-1c0.2-0.3,0.5-0.5,0.9-0.8c-0.2-0.3-0.4-0.5-0.5-0.7c-0.1-0.2-0.1-0.5-0.1-0.8c0-0.4,0.2-0.8,0.5-1.1
		c0.3-0.3,0.8-0.4,1.4-0.4c0.5,0,1,0.1,1.3,0.4c0.3,0.3,0.5,0.6,0.5,1c0,0.3-0.1,0.7-0.3,1c-0.2,0.3-0.5,0.6-1,0.8l1.2,1.2
		c0.2-0.3,0.4-0.8,0.5-1.3h1.4c-0.1,0.4-0.2,0.8-0.4,1.2c-0.2,0.4-0.4,0.7-0.6,1L86.3,336.4z M81.4,334.5c0,0.3,0.1,0.5,0.3,0.6
		c0.2,0.2,0.4,0.2,0.7,0.2c0.4,0,0.7-0.1,1-0.3l-1.5-1.5c-0.2,0.1-0.3,0.3-0.4,0.4C81.4,334.2,81.4,334.4,81.4,334.5z M82.9,331.4
		c0-0.2-0.1-0.3-0.2-0.4c-0.1-0.1-0.2-0.1-0.4-0.1c-0.2,0-0.4,0-0.5,0.1c-0.1,0.1-0.2,0.2-0.2,0.4c0,0.3,0.1,0.5,0.4,0.9
		c0.3-0.1,0.4-0.3,0.6-0.4C82.9,331.8,82.9,331.6,82.9,331.4z"/>
	<path class="st1" d="M29.7,340c-0.5,0-0.9,0.2-1.2,0.6c-0.3,0.4-0.4,0.9-0.4,1.6c0,1.4,0.5,2.1,1.6,2.1c0.5,0,1-0.1,1.6-0.3v1.1
		c-0.5,0.2-1.1,0.3-1.8,0.3c-0.9,0-1.6-0.3-2.1-0.9c-0.5-0.6-0.7-1.4-0.7-2.4c0-0.7,0.1-1.3,0.4-1.8c0.2-0.5,0.6-0.9,1-1.2
		c0.5-0.3,1-0.4,1.6-0.4c0.6,0,1.3,0.2,1.9,0.5l-0.4,1.1c-0.2-0.1-0.5-0.2-0.7-0.3S30,340,29.7,340z"/>
	<path class="st1" d="M38.5,342.2c0,1.1-0.3,1.9-0.8,2.5c-0.5,0.6-1.3,0.9-2.3,0.9s-1.7-0.3-2.3-0.9c-0.5-0.6-0.8-1.4-0.8-2.5
		c0-1.1,0.3-1.9,0.8-2.4c0.5-0.6,1.3-0.8,2.3-0.8s1.7,0.3,2.3,0.9C38.2,340.3,38.5,341.1,38.5,342.2z M33.8,342.2
		c0,0.7,0.1,1.3,0.4,1.6c0.3,0.4,0.7,0.5,1.2,0.5c1.1,0,1.6-0.7,1.6-2.2c0-1.4-0.5-2.2-1.6-2.2c-0.5,0-1,0.2-1.2,0.5
		C33.9,340.9,33.8,341.5,33.8,342.2z"/>
	<path class="st1" d="M45.4,345.4h-1.7l-2.8-4.9h0c0.1,0.9,0.1,1.5,0.1,1.8v3h-1.2V339h1.7l2.8,4.8h0c0-0.8-0.1-1.4-0.1-1.8v-3h1.2
		V345.4z"/>
	<path class="st1" d="M50.7,343.6c0,0.6-0.2,1-0.6,1.4c-0.4,0.3-1,0.5-1.7,0.5c-0.7,0-1.3-0.1-1.8-0.4v-1.3c0.4,0.2,0.8,0.3,1.1,0.4
		c0.3,0.1,0.6,0.1,0.8,0.1c0.3,0,0.5-0.1,0.7-0.2c0.2-0.1,0.2-0.3,0.2-0.5c0-0.1,0-0.2-0.1-0.3c-0.1-0.1-0.2-0.2-0.3-0.3
		c-0.1-0.1-0.4-0.2-0.8-0.4c-0.4-0.2-0.7-0.4-0.9-0.5s-0.4-0.4-0.5-0.6c-0.1-0.2-0.2-0.5-0.2-0.8c0-0.6,0.2-1,0.6-1.3
		c0.4-0.3,0.9-0.5,1.6-0.5c0.3,0,0.7,0,1,0.1c0.3,0.1,0.6,0.2,1,0.3l-0.4,1.1c-0.3-0.1-0.6-0.2-0.9-0.3c-0.2-0.1-0.4-0.1-0.7-0.1
		c-0.3,0-0.5,0.1-0.6,0.2s-0.2,0.3-0.2,0.5c0,0.1,0,0.2,0.1,0.3c0.1,0.1,0.1,0.2,0.3,0.3c0.1,0.1,0.4,0.2,0.9,0.5
		c0.6,0.3,1,0.6,1.2,0.9C50.6,342.9,50.7,343.2,50.7,343.6z"/>
	<path class="st1" d="M57,339v4.2c0,0.5-0.1,0.9-0.3,1.2c-0.2,0.4-0.5,0.6-0.9,0.8s-0.9,0.3-1.4,0.3c-0.8,0-1.5-0.2-1.9-0.6
		c-0.5-0.4-0.7-1-0.7-1.7V339h1.4v3.9c0,0.5,0.1,0.9,0.3,1.1c0.2,0.2,0.5,0.3,1,0.3c0.4,0,0.8-0.1,1-0.3c0.2-0.2,0.3-0.6,0.3-1.1
		V339H57z"/>
	<path class="st1" d="M58.5,345.4V339h1.4v5.3h2.6v1.1H58.5z"/>
	<path class="st1" d="M66,345.4h-1.4v-5.3h-1.7V339h4.9v1.1H66V345.4z"/>
	<path class="st1" d="M72.6,345.4l-0.5-1.5h-2.3l-0.5,1.5h-1.5l2.3-6.5h1.7l2.3,6.5H72.6z M71.8,342.7c-0.4-1.4-0.7-2.2-0.7-2.4
		c-0.1-0.2-0.1-0.3-0.1-0.4c-0.1,0.4-0.4,1.3-0.8,2.8H71.8z"/>
	<path class="st1" d="M80.5,345.4h-1.7l-2.8-4.9h0c0.1,0.9,0.1,1.5,0.1,1.8v3h-1.2V339h1.7l2.8,4.8h0c0-0.8-0.1-1.4-0.1-1.8v-3h1.2
		V345.4z"/>
	<path class="st1" d="M84.7,340c-0.5,0-0.9,0.2-1.2,0.6c-0.3,0.4-0.4,0.9-0.4,1.6c0,1.4,0.5,2.1,1.6,2.1c0.5,0,1-0.1,1.6-0.3v1.1
		c-0.5,0.2-1.1,0.3-1.8,0.3c-0.9,0-1.6-0.3-2.1-0.9c-0.5-0.6-0.7-1.4-0.7-2.4c0-0.7,0.1-1.3,0.4-1.8c0.2-0.5,0.6-0.9,1-1.2
		c0.5-0.3,1-0.4,1.6-0.4c0.6,0,1.3,0.2,1.9,0.5l-0.4,1.1c-0.2-0.1-0.5-0.2-0.7-0.3S85,340,84.7,340z"/>
	<path class="st1" d="M89.6,341.6L91,339h1.5l-2.1,3.9v2.5H89v-2.5l-2.1-4h1.5L89.6,341.6z"/>
</g>
<path class="st8" d="M77.5,292.7c0,10.1-8.1,18.3-18.1,18.3s-18.1-8.2-18.1-18.3s8.1-18.3,18.1-18.3S77.5,282.6,77.5,292.7z
	 M46.9,292.7c0,7,5.6,12.6,12.5,12.6 M72.4,305.8l5.1,5.2"/>
<linearGradient id="SVGID_00000132791871959239010370000006310699059502287769_" gradientUnits="userSpaceOnUse" x1="17.3632" y1="186.0272" x2="101.175" y2="102.2153">
	<stop  offset="0.2921" style="stop-color:#44A6D7"/>
	<stop  offset="0.8" style="stop-color:#74C4EF"/>
</linearGradient>
<circle style="fill:url(#SVGID_00000132791871959239010370000006310699059502287769_);" cx="59.3" cy="144.1" r="59.3"/>
<circle class="st6" cx="59.3" cy="144.1" r="55.3"/>
<g>
	<path class="st1" d="M39.6,171.4h-1.3v-6.4H42v1.1h-2.3v1.7h2.2v1.1h-2.2V171.4z"/>
	<path class="st1" d="M48.5,164.9v4.2c0,0.5-0.1,0.9-0.3,1.2c-0.2,0.4-0.5,0.6-0.9,0.8s-0.9,0.3-1.4,0.3c-0.8,0-1.5-0.2-1.9-0.6
		c-0.5-0.4-0.7-1-0.7-1.7v-4.1h1.4v3.9c0,0.5,0.1,0.9,0.3,1.1c0.2,0.2,0.5,0.3,1,0.3c0.4,0,0.8-0.1,1-0.3c0.2-0.2,0.3-0.6,0.3-1.1
		v-3.9H48.5z"/>
	<path class="st1" d="M50,171.4v-6.4h1.4v5.3H54v1.1H50z"/>
	<path class="st1" d="M55.1,171.4v-6.4h1.4v5.3h2.6v1.1H55.1z"/>
	<path class="st1" d="M66.3,169.6c0,0.6-0.2,1-0.6,1.4c-0.4,0.3-1,0.5-1.7,0.5c-0.7,0-1.3-0.1-1.8-0.4v-1.3c0.4,0.2,0.8,0.3,1.1,0.4
		c0.3,0.1,0.6,0.1,0.8,0.1c0.3,0,0.5-0.1,0.7-0.2c0.2-0.1,0.2-0.3,0.2-0.5c0-0.1,0-0.2-0.1-0.3c-0.1-0.1-0.2-0.2-0.3-0.3
		c-0.1-0.1-0.4-0.2-0.8-0.4c-0.4-0.2-0.7-0.4-0.9-0.5s-0.4-0.4-0.5-0.6c-0.1-0.2-0.2-0.5-0.2-0.8c0-0.6,0.2-1,0.6-1.3
		c0.4-0.3,0.9-0.5,1.6-0.5c0.3,0,0.7,0,1,0.1c0.3,0.1,0.6,0.2,1,0.3l-0.4,1.1c-0.3-0.1-0.6-0.2-0.9-0.3c-0.2-0.1-0.4-0.1-0.7-0.1
		c-0.3,0-0.5,0.1-0.6,0.2s-0.2,0.3-0.2,0.5c0,0.1,0,0.2,0.1,0.3c0.1,0.1,0.1,0.2,0.3,0.3c0.1,0.1,0.4,0.2,0.9,0.5
		c0.6,0.3,1,0.6,1.2,0.9C66.2,168.8,66.3,169.2,66.3,169.6z"/>
	<path class="st1" d="M67.5,171.4v-6.4h1.4v6.4H67.5z"/>
	<path class="st1" d="M74.9,166.9c0,0.7-0.2,1.2-0.6,1.6c-0.4,0.4-1,0.5-1.8,0.5h-0.6v2.3h-1.4v-6.4h2.1c0.8,0,1.4,0.2,1.8,0.5
		C74.7,165.8,74.9,166.3,74.9,166.9z M71.8,168h0.4c0.4,0,0.7-0.1,0.9-0.2c0.2-0.2,0.3-0.4,0.3-0.7c0-0.3-0.1-0.6-0.3-0.7
		c-0.2-0.2-0.4-0.2-0.8-0.2h-0.6V168z"/>
	<path class="st1" d="M80.6,166.9c0,0.7-0.2,1.2-0.6,1.6c-0.4,0.4-1,0.5-1.8,0.5h-0.6v2.3h-1.4v-6.4h2.1c0.8,0,1.4,0.2,1.8,0.5
		C80.4,165.8,80.6,166.3,80.6,166.9z M77.5,168h0.4c0.4,0,0.7-0.1,0.9-0.2c0.2-0.2,0.3-0.4,0.3-0.7c0-0.3-0.1-0.6-0.3-0.7
		c-0.2-0.2-0.4-0.2-0.8-0.2h-0.6V168z"/>
</g>
<path class="st7" d="M64.6,126.8c2.9,2.9,2.9,7.7,0,10.6c-2.9,2.9-7.6,2.9-10.5,0c-2.9-2.9-2.9-7.7,0-10.6
	C56.9,123.9,61.6,123.9,64.6,126.8z M68,118.5l1.2-4.4l-9.6-2.6l-1.2,4.4c-2.2,0.1-4.5,0.7-6.5,1.7l-3.2-3.2l-7,7.1l3.2,3.2
	c-1,2.1-1.6,4.3-1.7,6.6l-4.4,1.2l2.6,9.7l4.4-1.2c1.2,1.9,2.8,3.5,4.8,4.8l-1.2,4.4l9.6,2.6l1.2-4.4c2.2-0.1,4.5-0.7,6.5-1.7
	l3.2,3.2l7-7.1l-3.2-3.2c1-2.1,1.6-4.3,1.7-6.6l4.4-1.2l-2.6-9.7l-4.4,1.2C71.6,121.5,70,119.8,68,118.5z"/>
</svg>
